<?xml version="1.0" standalone="no"?>
<!DOCTYPE svg PUBLIC "-//W3C//DTD SVG 20010904//EN"
 "http://www.w3.org/TR/2001/REC-SVG-20010904/DTD/svg10.dtd">
<svg version="1.0" xmlns="http://www.w3.org/2000/svg"
 width="827.000000pt" height="1254.000000pt" viewBox="0 0 827.000000 1254.000000"
 preserveAspectRatio="xMidYMid meet">

<g transform="translate(0.000000,1254.000000) scale(0.100000,-0.100000)"
fill="#000000" stroke="none">
<path d="M0 6270 l0 -6270 4135 0 4135 0 0 6270 0 6270 -4135 0 -4135 0 0
-6270z m750 4194 c0 -1107 -3 -1663 -10 -1659 -14 9 -14 3325 0 3325 7 0 10
-562 10 -1666z m420 1566 l0 -100 30 0 c20 0 30 -5 30 -15 0 -11 -12 -15 -50
-15 l-50 0 0 115 c0 108 1 115 20 115 19 0 20 -7 20 -100z m926 23 l29 -76 3
76 c2 60 6 77 17 77 12 0 15 -21 15 -115 0 -105 -2 -115 -18 -115 -14 0 -27
20 -50 78 l-31 77 0 -77 c-1 -62 -4 -78 -16 -78 -12 0 -15 19 -15 115 0 105 2
115 18 115 14 0 26 -20 48 -77z m662 54 c2 -10 -3 -17 -12 -17 -18 0 -29 16
-21 31 9 14 29 6 33 -14z m309 -55 l32 -77 0 78 c1 61 4 77 16 77 12 0 15 -19
15 -115 0 -105 -2 -115 -18 -115 -14 0 -27 20 -50 78 l-31 77 0 -77 c-1 -62
-4 -78 -16 -78 -12 0 -15 19 -15 115 0 103 2 115 18 115 12 0 26 -23 49 -78z
m804 16 l0 -63 16 33 c10 18 24 32 35 32 22 0 22 -4 1 -41 -16 -27 -16 -31 4
-79 l21 -50 -23 0 c-16 0 -26 10 -38 38 l-15 37 -1 -37 c-1 -31 -5 -38 -21
-38 -19 0 -20 7 -20 115 0 108 1 115 20 115 18 0 20 -7 21 -62z m659 -52 l0
-114 -45 0 c-55 0 -75 22 -75 83 0 53 24 88 56 82 21 -4 24 -1 24 29 0 27 4
34 20 34 19 0 20 -7 20 -114z m180 93 c0 -15 -5 -19 -15 -15 -21 8 -45 -3 -45
-21 0 -8 16 -29 35 -47 59 -56 36 -126 -40 -126 -29 0 -35 4 -35 21 0 13 6 20
18 18 63 -6 69 20 17 71 -58 56 -38 120 37 120 22 0 28 -5 28 -21z m1100 -4
c0 -10 -10 -15 -30 -15 -16 0 -30 -4 -30 -9 0 -5 -3 -16 -6 -25 -4 -11 -1 -16
10 -16 24 0 56 -37 56 -64 0 -39 -36 -76 -76 -76 -27 0 -34 4 -34 19 0 14 5
18 20 14 26 -7 50 14 50 43 0 19 -7 26 -30 31 -26 5 -30 10 -30 37 0 65 8 76
56 76 32 0 44 -4 44 -15z m121 5 c21 -12 26 -59 9 -76 -8 -8 -5 -20 7 -42 16
-29 17 -34 3 -59 -19 -34 -63 -42 -91 -17 -22 20 -25 53 -5 79 12 16 12 24 1
45 -26 53 22 98 76 70z m133 -6 c18 -17 21 -60 6 -69 -7 -4 -5 -14 5 -28 34
-49 1 -111 -57 -105 -43 4 -48 26 -6 30 28 2 34 7 36 30 3 22 -2 30 -22 38
-31 12 -33 26 -5 35 28 9 22 50 -8 50 -26 1 -37 10 -28 24 10 16 61 13 79 -5z
m-4524 -14 c0 -11 7 -20 15 -20 8 0 15 -7 15 -15 0 -8 -7 -15 -15 -15 -11 0
-15 -12 -15 -50 0 -36 4 -52 15 -56 24 -10 17 -34 -10 -34 -32 0 -45 26 -45
88 0 56 -13 67 -51 48 -19 -9 -24 -19 -24 -51 0 -32 5 -42 23 -50 30 -13 28
-35 -3 -35 -60 0 -88 89 -44 144 16 20 29 26 59 26 29 0 39 4 43 20 3 11 12
20 21 20 9 0 16 -8 16 -20z m840 0 c0 -11 7 -20 15 -20 8 0 15 -7 15 -15 0 -8
-7 -15 -15 -15 -11 0 -15 -12 -15 -50 0 -36 4 -52 15 -56 24 -9 18 -34 -8 -34
-36 0 -47 19 -47 80 0 31 -6 62 -12 69 -10 11 -10 14 0 18 6 3 12 13 12 24 0
12 7 19 20 19 13 0 20 -7 20 -20z m970 0 c0 -11 7 -20 15 -20 8 0 15 -7 15
-15 0 -8 -7 -15 -15 -15 -11 0 -15 -12 -15 -50 0 -36 4 -52 15 -56 24 -10 17
-34 -10 -34 -32 0 -45 26 -45 89 0 28 -4 51 -10 51 -5 0 -10 7 -10 15 0 8 5
15 10 15 6 0 10 9 10 20 0 13 7 20 20 20 13 0 20 -7 20 -20z m1670 0 c0 -11 7
-20 15 -20 8 0 15 -7 15 -15 0 -8 -7 -15 -15 -15 -11 0 -15 -12 -15 -50 0 -36
4 -52 15 -56 24 -9 18 -34 -8 -34 -36 0 -47 19 -47 82 0 32 -4 58 -10 58 -5 0
-10 7 -10 15 0 8 5 15 10 15 6 0 10 9 10 20 0 13 7 20 20 20 13 0 20 -7 20
-20z m-3686 -36 c9 -8 16 -31 16 -50 0 -32 -2 -34 -36 -34 -28 0 -35 -3 -32
-17 2 -11 15 -20 33 -23 39 -7 38 -24 -2 -28 -46 -5 -73 26 -73 81 0 70 55
111 94 71z m298 -51 c2 -53 6 -68 18 -68 12 0 16 15 18 68 3 59 5 67 22 67 18
0 20 -7 20 -84 l0 -84 -50 0 c-62 -1 -70 11 -70 102 0 59 2 66 20 66 17 0 19
-8 22 -67z m188 46 c0 -11 -6 -19 -14 -19 -19 0 -26 -22 -26 -81 0 -42 -3 -49
-20 -49 -18 0 -20 7 -20 84 l0 85 40 -1 c32 0 40 -4 40 -19z m104 5 c9 -8 16
-31 16 -50 0 -32 -2 -34 -36 -34 -28 0 -35 -3 -32 -17 2 -11 15 -20 33 -23 39
-7 38 -24 -2 -28 -43 -4 -73 26 -73 74 0 76 53 120 94 78z m366 -4 c14 -14 20
-33 20 -65 0 -32 -6 -51 -20 -65 -43 -43 -100 -11 -100 58 0 78 54 118 100 72z
m224 4 c9 -8 16 -31 16 -50 0 -32 -2 -34 -36 -34 -28 0 -35 -3 -32 -17 2 -11
15 -20 33 -23 39 -7 38 -24 -2 -28 -46 -5 -73 26 -73 81 0 70 55 111 94 71z
m121 6 c3 -6 -6 -15 -21 -20 l-27 -11 26 -27 c29 -30 35 -70 15 -90 -18 -18
-68 -15 -68 3 0 9 9 15 25 15 14 0 25 6 25 13 0 8 -11 24 -25 37 -27 25 -32
59 -13 78 15 15 54 16 63 2z m125 -75 c0 -78 -2 -85 -20 -85 -18 0 -20 7 -20
85 0 78 2 85 20 85 18 0 20 -7 20 -85z m137 73 c8 -7 13 -37 13 -84 0 -67 -2
-74 -20 -74 -18 0 -20 7 -20 64 0 64 -14 92 -31 65 -5 -8 -9 -40 -9 -71 0 -51
-2 -58 -20 -58 -18 0 -20 7 -20 84 l0 84 47 0 c27 0 54 -4 60 -10z m357 -4 c9
-8 16 -31 16 -50 0 -32 -2 -34 -36 -34 -28 0 -35 -3 -32 -17 2 -11 15 -20 33
-23 39 -7 38 -24 -2 -28 -43 -4 -73 26 -73 74 0 76 53 120 94 78z m187 -16 c1
-18 4 -44 8 -58 7 -23 8 -22 15 15 17 96 37 102 58 18 l15 -58 7 58 c6 48 11
57 28 57 16 0 19 -4 14 -22 -3 -13 -14 -51 -22 -86 -21 -79 -44 -82 -60 -7
l-10 50 -13 -52 c-9 -38 -18 -53 -30 -53 -13 0 -21 17 -34 73 -22 91 -21 97 3
97 16 0 20 -7 21 -32z m253 19 c12 -9 20 -31 23 -64 5 -42 2 -54 -16 -72 -51
-51 -108 -7 -98 76 7 65 48 92 91 60z m126 -8 c0 -11 -6 -19 -14 -19 -19 0
-26 -22 -26 -81 0 -42 -3 -49 -20 -49 -18 0 -20 7 -20 84 l0 83 40 0 c32 0 40
-3 40 -18z m215 11 c3 -6 -6 -15 -21 -20 l-27 -11 26 -27 c29 -30 35 -70 15
-90 -18 -18 -68 -15 -68 3 0 9 9 15 25 15 14 0 25 6 25 13 0 7 -11 23 -25 35
-29 25 -33 66 -7 81 22 13 49 14 57 1z m179 -12 c10 -15 16 -45 16 -84 l0 -62
-50 0 c-44 -1 -52 2 -62 23 -13 30 12 75 42 75 10 0 22 5 25 10 10 17 -14 38
-35 33 -11 -3 -20 -1 -20 4 0 31 63 32 84 1z m154 10 c7 -7 12 -37 12 -84 0
-67 -2 -74 -20 -74 -18 0 -20 7 -20 64 0 64 -14 92 -31 65 -5 -8 -9 -40 -9
-71 0 -51 -2 -58 -20 -58 -18 0 -20 7 -20 83 l0 84 48 1 c26 0 53 -4 60 -10z
m408 -15 c16 -77 20 -80 28 -25 5 43 10 52 27 52 16 0 18 -5 13 -27 -31 -140
-83 -243 -99 -200 -5 11 -1 25 11 38 18 20 18 22 0 92 -10 40 -21 78 -23 85
-3 7 3 12 16 12 14 0 22 -8 27 -27z m159 17 c3 -6 -6 -15 -21 -20 l-27 -11 26
-27 c29 -30 35 -70 15 -90 -18 -18 -68 -15 -68 3 0 9 9 15 25 15 14 0 25 6 25
13 0 7 -11 23 -25 35 -27 23 -33 60 -13 80 15 15 54 16 63 2z m229 -6 c9 -8
16 -31 16 -50 0 -32 -2 -34 -36 -34 -28 0 -35 -3 -32 -17 2 -11 15 -20 33 -23
39 -7 38 -24 -2 -28 -51 -5 -77 28 -70 91 6 70 52 100 91 61z m143 5 c7 -7 13
-6 18 1 11 17 54 11 65 -9 5 -11 10 -49 10 -85 0 -59 -2 -66 -20 -66 -17 0
-19 8 -22 68 -2 52 -6 67 -18 67 -12 0 -16 -15 -18 -67 -3 -60 -5 -68 -22 -68
-18 0 -20 7 -20 64 0 64 -14 92 -31 65 -5 -8 -9 -40 -9 -71 0 -51 -2 -58 -20
-58 -18 0 -20 7 -20 84 l0 84 47 0 c27 0 53 -4 60 -9z m188 0 c4 -6 -2 -13
-14 -16 -26 -7 -27 -25 -1 -48 22 -20 27 -64 8 -83 -18 -18 -68 -15 -68 3 0 9
9 15 25 15 14 0 25 6 25 13 0 7 -11 23 -25 35 -27 23 -33 60 -13 80 15 15 55
16 63 1z m-4241 -1478 c13 -21 -5 -37 -36 -33 -22 3 -35 0 -45 -14 -23 -31
-15 -53 42 -108 50 -48 55 -57 55 -95 0 -34 -6 -49 -30 -72 -25 -26 -36 -30
-72 -27 -35 2 -44 7 -46 25 -3 19 0 21 36 16 28 -4 43 -1 55 12 31 30 21 62
-38 120 -42 42 -55 62 -55 85 0 40 18 76 44 88 27 13 83 15 90 3z m1149 -11
c33 -26 51 -102 45 -190 -8 -111 -57 -168 -125 -144 -83 28 -101 257 -28 330
30 30 73 31 108 4z m1340 9 c51 -23 64 -111 23 -150 -23 -22 -23 -25 -9 -41 8
-9 21 -45 29 -80 17 -81 17 -78 -5 -78 -21 0 -24 7 -41 85 -13 57 -25 75 -51
75 -17 0 -19 -8 -19 -80 0 -73 -2 -80 -20 -80 -19 0 -20 7 -20 180 l0 180 45
0 c24 0 55 -5 68 -11z m497 -49 c0 -59 1 -60 21 -50 30 16 68 4 79 -26 6 -14
10 -70 10 -125 0 -92 -1 -99 -20 -99 -19 0 -20 7 -20 94 0 106 -5 126 -29 126
-34 0 -41 -22 -41 -122 0 -91 -1 -98 -20 -98 -19 0 -20 7 -20 180 0 173 1 180
20 180 18 0 20 -7 20 -60z m430 -120 c0 -149 -2 -180 -14 -180 -8 0 -16 5 -18
11 -3 9 -10 8 -24 -1 -33 -20 -69 -5 -89 36 -25 54 -17 154 15 189 25 27 59
32 78 13 9 -9 12 2 12 50 0 55 2 62 20 62 19 0 20 -7 20 -180z m232 41 l34
-138 33 138 c30 129 34 139 55 139 26 0 27 -6 42 -252 6 -103 5 -108 -13 -108
-18 0 -21 9 -26 83 -4 45 -7 107 -8 137 -1 53 -2 50 -34 -75 -19 -71 -34 -133
-35 -137 0 -5 -7 -8 -15 -8 -15 0 -30 44 -63 184 l-19 80 -6 -85 c-4 -46 -7
-105 -7 -131 0 -42 -3 -48 -21 -48 -21 0 -21 3 -15 98 18 274 16 262 41 262
21 0 26 -11 57 -139z m468 77 c0 -48 3 -59 12 -50 20 20 65 14 82 -10 12 -17
16 -49 16 -130 0 -101 -1 -108 -20 -108 -19 0 -20 7 -20 94 0 107 -5 126 -31
126 -29 0 -39 -32 -39 -129 0 -84 -1 -91 -20 -91 -19 0 -20 7 -20 180 0 173 1
180 20 180 18 0 20 -7 20 -62z m1060 -118 c0 -153 -2 -180 -15 -180 -8 0 -15
7 -15 16 0 14 -2 14 -22 0 -32 -22 -51 -20 -79 10 -21 23 -24 35 -24 104 0 69
3 81 24 104 26 28 59 34 79 14 9 -9 12 2 12 50 0 55 2 62 20 62 19 0 20 -7 20
-180z m-5072 142 c3 -16 -2 -22 -17 -22 -24 0 -35 15 -27 36 9 23 40 13 44
-14z m3100 0 c3 -16 -2 -22 -17 -22 -24 0 -35 15 -27 36 9 23 40 13 44 -14z
m-1362 -62 c15 0 24 -6 24 -15 0 -9 -9 -15 -25 -15 -25 0 -25 -1 -25 -90 0
-84 1 -90 25 -106 29 -19 24 -34 -10 -34 -45 0 -55 23 -55 131 0 81 -3 99 -15
99 -8 0 -15 7 -15 15 0 8 7 15 15 15 10 0 15 10 15 29 0 20 6 31 18 33 13 3
18 -4 20 -29 3 -27 7 -33 28 -33z m-1736 -130 c0 -123 -1 -130 -20 -130 -19 0
-20 7 -20 130 0 123 1 130 20 130 19 0 20 -7 20 -130z m158 118 c9 -9 12 -9
12 0 0 7 9 12 20 12 19 0 20 -7 20 -151 l0 -151 -30 -29 c-24 -25 -37 -30 -67
-27 -28 2 -39 8 -41 22 -4 16 0 18 27 13 38 -8 71 20 71 59 0 22 -2 24 -14 15
-8 -7 -27 -11 -42 -9 -70 8 -88 173 -27 240 19 21 54 23 71 6z m227 6 c23 -9
45 -57 45 -99 l0 -35 -60 0 c-64 0 -66 -1 -49 -48 12 -34 37 -47 76 -38 20 6
24 3 21 -11 -4 -20 -44 -29 -85 -19 -35 9 -63 62 -63 119 0 99 49 156 115 131z
m125 -4 c0 -7 6 -7 19 0 29 15 41 12 41 -9 0 -11 -9 -23 -21 -26 -29 -9 -39
-45 -39 -136 0 -72 -2 -79 -20 -79 -19 0 -20 7 -20 130 0 123 1 130 20 130 11
0 20 -5 20 -10z m130 -84 c0 -107 5 -126 31 -126 29 0 39 32 39 129 0 84 1 91
20 91 19 0 20 -7 20 -130 0 -107 -3 -130 -14 -130 -8 0 -18 5 -22 11 -4 8 -9
8 -17 0 -19 -19 -65 -13 -81 11 -12 17 -16 49 -16 130 0 101 1 108 20 108 19
0 20 -7 20 -94z m535 84 c4 -7 12 -7 25 0 27 14 56 12 70 -5 11 -13 15 -13 33
0 32 22 73 19 91 -7 12 -17 16 -49 16 -130 0 -101 -1 -108 -20 -108 -19 0 -20
7 -20 91 0 96 -10 129 -38 129 -35 0 -42 -21 -42 -122 0 -91 -1 -98 -20 -98
-19 0 -20 7 -20 94 0 107 -5 126 -31 126 -29 0 -39 -32 -39 -129 0 -84 -1 -91
-20 -91 -19 0 -20 7 -20 130 0 107 3 130 14 130 8 0 18 -5 21 -10z m391 2 c25
-16 34 -56 34 -151 0 -94 -1 -101 -20 -101 -11 0 -20 5 -20 12 0 9 -3 9 -12 0
-18 -18 -56 -14 -78 8 -43 43 -10 123 55 136 25 4 35 12 35 24 0 31 -29 52
-61 45 -22 -5 -29 -3 -29 8 0 9 6 18 13 20 19 8 71 8 83 -1z m264 -79 c0 -107
6 -133 31 -133 29 0 39 32 39 129 0 84 1 91 20 91 19 0 20 -7 20 -130 0 -107
-3 -130 -14 -130 -8 0 -18 5 -21 10 -5 8 -11 7 -20 0 -23 -19 -68 -8 -82 20
-8 15 -13 65 -13 128 0 95 1 102 20 102 18 0 20 -7 20 -87z m769 61 c18 -23
21 -41 21 -130 0 -97 -1 -104 -20 -104 -11 0 -20 5 -20 12 0 9 -3 9 -12 0 -20
-20 -65 -14 -82 10 -36 51 -4 122 59 134 37 7 43 21 24 56 -9 16 -17 19 -45
13 -26 -4 -34 -3 -34 9 0 17 15 24 57 25 23 1 37 -6 52 -25z m186 6 c0 -8 -9
-15 -20 -15 -56 0 -58 -36 -5 -85 46 -42 51 -73 19 -114 -21 -26 -69 -35 -96
-18 -20 13 2 35 26 27 24 -7 51 9 51 32 0 7 -18 33 -40 55 -46 48 -51 82 -19
117 24 26 84 27 84 1z m315 -110 c0 -123 -1 -130 -20 -130 -19 0 -20 7 -20
130 0 123 1 130 20 130 19 0 20 -7 20 -130z m775 124 c23 -9 45 -57 45 -99 l0
-35 -60 0 c-64 0 -66 -1 -49 -48 12 -35 35 -46 74 -36 23 6 26 4 23 -12 -2
-14 -13 -20 -44 -22 -59 -4 -94 27 -101 90 -13 115 39 190 112 162z m341 -5
c4 -8 9 -8 17 0 16 16 63 13 77 -4 11 -13 15 -13 33 0 32 22 73 19 91 -7 12
-17 16 -49 16 -130 0 -101 -1 -108 -20 -108 -19 0 -20 7 -20 98 0 101 -7 122
-42 122 -28 0 -38 -33 -38 -129 0 -84 -1 -91 -20 -91 -19 0 -20 7 -20 94 0
107 -5 126 -31 126 -29 0 -39 -32 -39 -129 0 -84 -1 -91 -20 -91 -19 0 -20 7
-20 130 0 107 3 130 14 130 8 0 18 -5 22 -11z m415 -15 c21 -22 24 -35 24 -99
0 -91 -22 -130 -75 -130 -43 0 -71 37 -78 104 -5 61 1 89 29 124 27 35 67 36
100 1z m209 1 c47 -51 34 -195 -21 -228 -9 -6 -28 -7 -43 -3 -96 24 -84 256
14 256 15 0 36 -10 50 -25z m-2702 -93 c4 -28 -24 -40 -45 -19 -14 13 -14 19
-3 32 18 22 44 15 48 -13z m3120 0 c4 -28 -24 -40 -45 -19 -14 13 -14 19 -3
32 18 22 44 15 48 -13z m-5365 -313 c31 -14 47 -48 47 -100 0 -55 -42 -99 -94
-99 l-36 0 0 -75 c0 -68 -2 -75 -20 -75 -19 0 -20 7 -20 180 l0 180 50 0 c27
0 60 -5 73 -11z m797 -169 c0 -173 -1 -180 -20 -180 -19 0 -20 7 -20 180 0
173 1 180 20 180 19 0 20 -7 20 -180z m265 155 c0 -17 -6 -19 -37 -17 -28 3
-39 -1 -47 -17 -19 -35 -12 -50 44 -105 50 -48 55 -57 55 -95 0 -34 -6 -49
-30 -72 -25 -26 -36 -30 -72 -27 -35 2 -44 7 -46 25 -3 19 0 21 36 16 28 -4
43 -1 55 12 31 30 21 62 -38 120 -42 42 -55 62 -55 85 0 66 36 101 100 97 28
-2 35 -6 35 -22z m535 -82 l1 -108 31 58 c25 45 36 57 55 57 l25 0 -22 -32
c-45 -69 -45 -72 -15 -140 15 -35 29 -69 32 -75 3 -8 -3 -13 -17 -13 -16 0
-27 14 -49 61 -31 67 -41 63 -41 -17 0 -37 -3 -44 -20 -44 -19 0 -20 7 -20
180 0 173 1 180 20 180 19 0 20 -7 20 -107z m545 82 c0 -17 -6 -19 -37 -17
-28 3 -39 -1 -47 -17 -19 -35 -12 -50 44 -105 50 -48 55 -57 55 -95 0 -72 -68
-120 -134 -95 -9 3 -16 14 -16 24 0 15 6 17 38 13 28 -4 43 0 55 12 30 29 21
65 -26 109 -67 62 -80 97 -56 150 14 31 45 46 89 43 28 -2 35 -6 35 -22z m695
5 c0 -12 -5 -17 -14 -14 -18 7 -46 -22 -46 -47 0 -14 7 -19 25 -19 16 0 25 -6
25 -15 0 -9 -9 -15 -25 -15 l-25 0 0 -115 c0 -108 -1 -115 -20 -115 -19 0 -20
7 -20 115 0 96 -3 115 -15 115 -8 0 -15 7 -15 15 0 8 7 15 15 15 9 0 15 9 15
24 0 37 37 76 71 76 22 0 29 -5 29 -20z m774 12 c9 -16 -10 -30 -43 -34 -55
-5 -76 -43 -76 -138 0 -97 20 -132 81 -140 50 -6 54 -34 5 -38 -85 -8 -130 51
-131 170 0 84 22 144 64 169 31 19 91 26 100 11z m-2436 -30 c3 -16 -2 -22
-17 -22 -24 0 -35 15 -27 36 9 23 40 13 44 -14z m1720 0 c3 -16 -2 -22 -17
-22 -24 0 -35 15 -27 36 9 23 40 13 44 -14z m790 0 c3 -16 -2 -22 -17 -22 -24
0 -35 15 -27 36 9 23 40 13 44 -14z m-2382 -62 c15 0 24 -6 24 -15 0 -9 -9
-15 -25 -15 -25 0 -25 -1 -25 -90 0 -84 1 -90 25 -106 29 -19 24 -34 -10 -34
-45 0 -55 23 -55 131 0 81 -3 99 -15 99 -8 0 -15 7 -15 15 0 8 7 15 15 15 10
0 15 10 15 29 0 20 6 31 18 33 13 3 18 -4 20 -29 3 -27 7 -33 28 -33z m-1121
-16 c18 -13 20 -29 23 -129 4 -111 3 -115 -17 -115 -12 0 -21 5 -21 12 0 9 -3
9 -12 0 -20 -20 -65 -14 -82 10 -36 51 -4 122 60 134 32 6 35 9 29 33 -8 33
-23 42 -57 35 -21 -4 -28 -2 -28 9 0 29 72 36 105 11z m114 -36 c6 -29 15 -73
19 -98 l8 -45 23 98 c18 79 26 97 41 97 15 0 21 -16 36 -90 10 -49 21 -87 24
-84 3 3 12 42 20 87 13 72 18 82 38 85 12 2 22 1 22 -3 0 -3 -14 -62 -31 -130
-26 -102 -35 -125 -50 -125 -19 0 -19 -1 -45 110 -9 41 -19 70 -20 65 -1 -6
-11 -47 -20 -92 -16 -71 -21 -83 -39 -83 -17 0 -24 15 -48 118 -32 139 -33
142 -8 142 16 0 22 -11 30 -52z m366 46 c23 -9 45 -57 45 -99 l0 -35 -60 0
c-65 0 -70 -6 -48 -54 13 -30 39 -40 75 -32 20 6 24 3 21 -11 -4 -20 -44 -29
-85 -19 -35 9 -63 62 -63 119 0 99 49 156 115 131z m515 -124 c0 -123 -1 -130
-20 -130 -19 0 -20 7 -20 130 0 123 1 130 20 130 19 0 20 -7 20 -130z m295
124 c23 -9 45 -57 45 -99 l0 -35 -60 0 c-65 0 -72 -8 -49 -53 17 -32 30 -38
67 -32 24 4 32 2 32 -8 0 -34 -78 -36 -115 -4 -20 16 -28 35 -32 69 -13 115
39 190 112 162z m840 0 c23 -9 45 -57 45 -99 l0 -35 -60 0 c-64 0 -66 -1 -49
-48 12 -35 35 -46 74 -36 23 6 26 4 23 -12 -2 -14 -13 -20 -44 -22 -59 -4 -94
27 -101 90 -13 115 39 190 112 162z m135 -4 c0 -7 6 -7 19 0 29 15 41 12 41
-9 0 -11 -9 -23 -21 -26 -29 -9 -39 -45 -39 -136 0 -72 -2 -79 -20 -79 -19 0
-20 7 -20 130 0 123 1 130 20 130 11 0 20 -5 20 -10z m196 -4 c16 -13 19 -29
22 -130 4 -112 3 -116 -17 -116 -12 0 -21 5 -21 12 0 9 -3 9 -12 0 -20 -20
-65 -14 -82 10 -36 51 -4 122 59 134 25 4 35 12 35 24 0 31 -29 52 -61 45 -22
-5 -29 -3 -29 8 0 28 73 37 106 13z m254 -116 c0 -123 -1 -130 -20 -130 -19 0
-20 7 -20 130 0 123 1 130 20 130 19 0 20 -7 20 -130z m93 118 c4 -10 7 -10
18 0 21 20 66 15 83 -10 12 -17 16 -49 16 -130 0 -101 -1 -108 -20 -108 -19 0
-20 7 -20 94 0 107 -5 126 -31 126 -29 0 -39 -32 -39 -129 0 -84 -1 -91 -20
-91 -19 0 -20 7 -20 130 0 105 3 130 14 130 8 0 16 -6 19 -12z m298 -14 c21
-23 24 -35 24 -104 0 -69 -3 -81 -24 -104 -54 -57 -121 -16 -129 78 -5 66 1
94 29 129 27 35 67 36 100 1z m399 -104 c0 -123 -1 -130 -20 -130 -19 0 -20 7
-20 130 0 123 1 130 20 130 19 0 20 -7 20 -130z m183 124 c13 -14 -7 -34 -35
-34 -24 0 -32 -6 -45 -37 -29 -71 7 -164 57 -148 10 3 20 0 23 -9 8 -19 -1
-26 -35 -26 -69 0 -103 51 -96 143 4 52 9 64 36 88 30 27 79 39 95 23z m142 0
c23 -9 45 -57 45 -99 l0 -35 -60 0 c-65 0 -66 -1 -49 -49 11 -32 44 -49 74
-38 19 8 31 -13 14 -24 -26 -16 -77 -10 -104 14 -20 16 -28 35 -32 69 -13 115
39 190 112 162z m135 -4 c0 -7 6 -7 19 0 29 15 41 12 41 -9 0 -11 -9 -23 -21
-26 -29 -9 -39 -45 -39 -136 0 -72 -2 -79 -20 -79 -19 0 -20 7 -20 130 0 123
1 130 20 130 11 0 20 -5 20 -10z m200 -15 c32 -34 40 -136 16 -183 -50 -96
-146 -46 -146 76 0 112 71 170 130 107z m120 10 c0 -14 3 -13 25 1 32 21 68
12 83 -21 7 -14 12 -71 12 -125 0 -93 -1 -100 -20 -100 -19 0 -20 7 -20 99 0
78 -3 103 -16 116 -15 15 -18 15 -35 -1 -16 -15 -19 -32 -19 -116 0 -91 -1
-98 -20 -98 -19 0 -20 7 -20 130 0 109 2 130 15 130 8 0 15 -7 15 -15z m290 5
c21 -11 40 -60 40 -101 0 -29 -1 -29 -60 -29 -65 0 -70 -6 -48 -54 13 -30 39
-40 75 -32 20 6 24 3 21 -11 -2 -13 -14 -19 -44 -21 -61 -4 -95 28 -102 96
-10 108 52 187 118 152z m-2882 -108 c4 -28 -24 -40 -45 -19 -14 13 -14 19 -3
32 18 22 44 15 48 -13z m3100 0 c4 -28 -24 -40 -45 -19 -14 13 -14 19 -3 32
18 22 44 15 48 -13z m-4974 -321 c13 -21 -5 -37 -36 -33 -22 3 -35 0 -45 -14
-23 -31 -15 -53 42 -108 50 -48 55 -57 55 -95 0 -34 -6 -49 -30 -72 -25 -26
-36 -30 -72 -27 -35 2 -44 7 -46 25 -3 19 0 21 36 16 28 -4 43 -1 55 12 31 30
21 62 -38 120 -43 43 -55 62 -55 86 0 34 15 68 39 86 19 14 87 17 95 4z m795
-6 c32 -16 41 -33 41 -76 0 -35 -25 -89 -42 -89 -6 0 -3 -9 7 -20 9 -10 23
-47 31 -82 17 -82 18 -80 -8 -76 -19 2 -24 13 -35 67 -14 71 -26 91 -54 91
-17 0 -19 -8 -19 -80 0 -73 -2 -80 -20 -80 -19 0 -20 7 -20 180 l0 180 45 0
c26 0 59 -7 74 -15z m451 -165 c0 -150 -2 -180 -14 -180 -8 0 -18 4 -21 10 -4
6 -12 6 -24 -2 -51 -32 -101 29 -101 125 0 87 60 154 106 117 12 -11 14 -3 14
49 0 54 2 61 20 61 19 0 20 -7 20 -180z m259 149 c-21 -29 -45 -46 -54 -37
-11 10 36 68 56 68 l20 0 -22 -31z m1229 19 c-3 -7 -25 -14 -51 -16 -50 -3
-46 2 -63 -94 l-6 -38 41 0 c30 0 41 -4 41 -15 0 -11 -12 -15 -44 -15 l-44 0
-11 -50 c-17 -79 -17 -80 34 -80 38 0 45 -3 45 -20 0 -18 -7 -20 -71 -20 -69
0 -71 1 -66 23 3 12 18 93 34 179 l28 158 68 0 c51 0 68 -3 65 -12z m182 0 c0
-7 -14 -84 -30 -172 -17 -87 -30 -162 -30 -167 0 -5 -7 -9 -15 -9 -8 0 -15 7
-15 17 0 15 -1 15 -18 0 -27 -24 -59 -21 -78 8 -19 30 -14 118 11 165 20 39
62 70 95 70 25 0 28 4 34 50 5 41 10 50 26 50 11 0 20 -6 20 -12z m94 -7 c10
-16 -5 -41 -25 -41 -19 0 -27 29 -12 43 9 10 31 9 37 -2z m100 -46 c-6 -33 -4
-35 20 -35 18 0 24 -4 20 -15 -4 -8 -16 -15 -29 -15 -20 0 -24 -8 -40 -92 -17
-85 -17 -92 -2 -103 24 -18 21 -35 -7 -35 -51 0 -54 30 -20 198 5 26 3 32 -10
32 -22 0 -20 21 3 27 11 3 21 17 25 33 3 16 13 30 23 33 10 3 19 5 21 6 2 0 0
-15 -4 -34z m-2928 -49 c16 -13 19 -29 22 -130 4 -112 3 -116 -17 -116 -12 0
-21 5 -21 12 0 9 -3 9 -12 0 -20 -20 -65 -14 -82 10 -36 51 -4 122 60 134 32
6 35 9 29 33 -8 33 -23 42 -57 35 -21 -4 -28 -2 -28 9 0 28 73 37 106 13z
m124 4 c0 -7 6 -7 19 0 29 15 41 12 41 -10 0 -11 -4 -20 -10 -20 -5 0 -19 -9
-30 -20 -17 -17 -20 -33 -20 -110 0 -83 -1 -90 -20 -90 -19 0 -20 7 -20 130 0
123 1 130 20 130 11 0 20 -5 20 -10z m186 2 c25 -16 34 -56 34 -151 0 -94 -1
-101 -20 -101 -11 0 -20 5 -20 12 0 9 -3 9 -12 0 -20 -20 -65 -14 -82 10 -36
51 -4 122 60 134 32 6 35 9 29 33 -8 33 -23 42 -57 35 -21 -4 -28 -2 -28 9 0
9 6 18 13 20 19 8 71 8 83 -1z m515 -18 c21 -23 24 -35 24 -104 0 -69 -3 -81
-24 -104 -50 -54 -119 -17 -128 68 -15 130 60 212 128 140z m342 14 c4 -10 7
-10 18 0 20 18 39 15 39 -8 0 -11 -4 -20 -10 -20 -5 0 -19 -9 -30 -20 -17 -17
-20 -33 -20 -110 0 -83 -1 -90 -20 -90 -19 0 -20 7 -20 130 0 121 1 130 19
130 11 0 21 -6 24 -12z m137 -118 c0 -123 -1 -130 -20 -130 -19 0 -20 7 -20
130 0 123 1 130 20 130 19 0 20 -7 20 -130z m158 118 c9 -9 12 -9 12 0 0 7 9
12 20 12 19 0 20 -7 20 -151 l0 -151 -30 -29 c-24 -25 -37 -30 -67 -27 -28 2
-39 8 -41 22 -4 16 0 18 27 13 38 -8 71 19 71 58 0 22 -2 24 -18 14 -11 -7
-31 -9 -46 -5 -65 16 -77 174 -19 238 19 21 54 23 71 6z m152 -82 c0 -110 4
-126 35 -126 31 0 35 16 35 126 0 87 1 94 20 94 19 0 20 -7 20 -130 0 -107 -3
-130 -14 -130 -8 0 -18 5 -22 11 -4 8 -9 8 -17 0 -19 -19 -65 -13 -81 11 -12
17 -16 49 -16 130 0 101 1 108 20 108 19 0 20 -7 20 -94z m275 88 c23 -9 45
-57 45 -99 l0 -35 -60 0 c-65 0 -70 -6 -48 -54 13 -29 39 -40 74 -32 28 7 35
-18 8 -28 -63 -24 -123 15 -131 86 -13 115 39 190 112 162z m215 -4 c0 -6 -22
-55 -50 -110 -27 -55 -50 -102 -50 -105 0 -3 23 -5 50 -5 38 0 50 -4 50 -15 0
-12 -15 -15 -75 -15 -60 0 -75 3 -75 15 0 9 20 56 45 105 25 49 45 95 45 101
0 7 -15 10 -40 7 -33 -3 -40 0 -40 14 0 16 10 18 70 18 41 0 70 -4 70 -10z
m710 6 c0 -6 -30 -156 -41 -208 -9 -38 -15 -48 -31 -48 -14 0 -18 5 -14 15 3
8 12 57 21 108 23 135 23 137 45 137 11 0 20 -2 20 -4z m294 -18 c33 -47 8
-179 -41 -218 -55 -43 -113 -11 -113 61 0 96 50 179 108 179 21 0 36 -8 46
-22z m116 0 l0 -21 23 21 c13 12 29 22 35 22 22 0 12 -37 -13 -48 -33 -15 -50
-53 -65 -139 -10 -61 -15 -73 -31 -73 -23 0 -23 0 1 134 11 60 20 113 20 118
0 4 7 8 15 8 9 0 15 -9 15 -22z m198 5 c-2 -11 -11 -17 -21 -15 -24 4 -57 -16
-57 -35 0 -8 14 -31 30 -50 40 -45 41 -93 3 -123 -32 -25 -98 -25 -98 0 0 10
8 14 23 13 33 -4 62 14 62 39 0 11 -13 36 -30 55 -36 41 -38 76 -5 108 30 31
99 36 93 8z m-1918 -1110 c0 -132 1 -137 18 -117 49 61 142 56 186 -10 61 -94
59 -328 -5 -417 -24 -35 -68 -59 -104 -59 -37 0 -82 26 -91 52 -7 22 -8 21
-13 -7 -5 -25 -11 -31 -39 -33 l-32 -3 0 365 0 366 40 0 40 0 0 -137z m1720
-228 l0 -365 -35 0 c-31 0 -35 3 -35 26 l0 26 -35 -31 c-66 -58 -140 -35 -183
57 -24 51 -27 68 -27 172 0 104 3 121 27 172 47 101 141 129 195 59 10 -13 12
10 13 117 l0 132 40 0 40 0 0 -365z m-3335 334 c59 -15 117 -67 146 -131 22
-48 24 -67 24 -198 0 -173 -15 -229 -79 -295 -50 -53 -124 -77 -218 -73 l-63
3 -3 347 -2 347 22 4 c46 9 130 7 173 -4z m353 -11 c7 -7 12 -27 12 -45 0 -26
-5 -36 -22 -42 -46 -18 -83 32 -58 78 12 23 49 28 68 9z m1050 0 c7 -7 12 -27
12 -45 0 -26 -5 -36 -22 -42 -30 -12 -62 8 -66 41 -5 44 47 75 76 46z m-508
-113 l0 -65 50 0 c49 0 50 -1 50 -30 0 -29 -1 -30 -50 -30 l-50 0 0 -173 c0
-194 6 -217 61 -217 28 0 30 -2 27 -32 -3 -30 -6 -33 -42 -36 -21 -2 -50 2
-65 8 -52 21 -56 39 -59 253 l-4 197 -29 0 c-26 0 -29 4 -29 30 0 27 3 30 30
30 28 0 29 1 32 57 3 51 6 58 28 64 49 14 50 12 50 -56z m1590 0 l0 -65 50 0
c49 0 50 -1 50 -30 0 -29 -1 -30 -50 -30 l-50 0 0 -173 c0 -194 6 -217 61
-217 28 0 30 -2 27 -32 -3 -31 -6 -33 -45 -36 -59 -4 -100 19 -112 66 -6 20
-11 117 -11 215 l0 177 -30 0 c-27 0 -30 3 -30 30 0 27 3 30 30 30 28 0 29 1
32 57 3 51 6 58 28 64 49 14 50 12 50 -56z m-1808 -73 c6 -6 8 -22 4 -35 -5
-22 -10 -24 -63 -23 -51 1 -58 -2 -71 -25 -23 -40 -8 -74 52 -118 79 -59 101
-94 101 -163 0 -42 -6 -64 -21 -85 -41 -56 -121 -77 -193 -52 -30 11 -32 15
-27 42 8 39 10 41 36 27 37 -20 92 -15 112 10 37 46 19 99 -54 154 -68 53 -88
85 -88 145 0 92 57 145 148 138 29 -2 58 -9 64 -15z m588 -22 c0 -32 -4 -40
-19 -40 -27 0 -71 -39 -87 -76 -10 -24 -14 -81 -14 -199 l0 -165 -40 0 -40 0
0 255 0 255 35 0 c34 0 35 -1 35 -37 l0 -38 19 29 c23 34 56 55 89 56 19 0 22
-5 22 -40z m1601 14 c37 -34 61 -93 66 -170 l6 -74 -123 0 -123 0 6 -51 c8
-67 34 -110 79 -132 31 -15 43 -16 78 -7 48 13 46 14 55 -21 6 -23 3 -28 -26
-38 -72 -25 -162 -8 -206 40 -78 85 -84 300 -11 410 45 67 148 89 199 43z
m-2501 -239 l0 -255 -40 0 -40 0 0 255 0 255 40 0 40 0 0 -255z m1050 0 l0
-255 -40 0 -40 0 0 255 0 255 40 0 40 0 0 -255z m622 51 c3 -184 5 -206 22
-225 32 -35 78 -26 101 20 12 22 15 71 15 219 l0 190 40 0 40 0 0 -255 0 -255
-35 0 c-28 0 -35 4 -35 20 0 18 -2 18 -36 -5 -76 -52 -160 -20 -183 69 -6 25
-11 128 -11 235 l0 191 39 0 40 0 3 -204z m-1926 -558 c3 -4 3 -23 0 -42 -6
-34 -8 -34 -37 -24 -73 25 -152 -27 -185 -124 -15 -40 -19 -82 -19 -173 0
-114 2 -124 30 -180 45 -89 91 -112 185 -95 23 5 25 1 28 -31 4 -42 -9 -49
-93 -49 -126 1 -215 96 -233 252 -13 104 2 258 30 320 53 114 122 161 225 156
34 -2 65 -7 69 -10z m2332 -20 c7 -7 12 -27 12 -45 0 -26 -5 -36 -22 -42 -46
-18 -83 32 -58 78 12 23 49 28 68 9z m-238 -113 l0 -65 50 0 c49 0 50 -1 50
-30 0 -29 -1 -30 -50 -30 l-50 0 0 -173 c0 -194 6 -217 61 -217 28 0 30 -2 27
-32 -3 -30 -6 -33 -42 -36 -21 -2 -50 2 -65 8 -52 21 -56 39 -59 253 l-4 197
-29 0 c-26 0 -29 4 -29 30 0 27 3 30 30 30 30 0 30 1 30 55 0 48 3 57 23 65
51 20 57 15 57 -55z m-1804 -74 c66 -40 100 -142 92 -275 -10 -148 -61 -225
-157 -233 -60 -6 -105 24 -140 92 -24 45 -26 61 -26 165 0 110 2 120 30 175
46 89 128 120 201 76z m465 -19 l27 -30 31 32 c28 27 38 31 87 31 48 0 59 -4
79 -28 38 -43 45 -89 45 -294 l0 -193 -40 0 -40 0 0 193 c0 174 -2 195 -20
225 -25 41 -66 44 -101 6 -23 -25 -24 -30 -27 -225 l-3 -199 -39 0 -39 0 -3
204 c-3 186 -5 206 -22 225 -30 33 -75 25 -103 -18 -22 -32 -23 -43 -23 -222
l0 -189 -40 0 -40 0 0 255 0 255 35 0 c31 0 35 -3 35 -27 l0 -26 23 20 c39 36
61 44 107 39 33 -3 51 -11 71 -34z m618 24 c36 -19 56 -50 77 -121 22 -79 16
-230 -13 -295 -41 -94 -129 -129 -187 -75 l-26 24 0 -119 0 -120 -40 0 -40 0
0 355 0 355 35 0 c31 0 35 -3 35 -26 l0 -26 35 31 c40 35 79 40 124 17z m1350
-12 c17 -14 35 -42 41 -62 5 -20 10 -126 10 -234 l0 -198 -39 0 -40 0 -3 204
c-3 186 -5 206 -22 225 -30 33 -75 25 -103 -18 -22 -32 -23 -43 -23 -222 l0
-189 -40 0 -40 0 0 255 0 255 35 0 c31 0 35 -3 35 -27 l0 -27 28 26 c33 31 46
36 94 37 25 1 46 -7 67 -25z m372 -5 l29 -31 0 26 c0 23 4 26 35 26 l35 0 0
-270 c0 -156 -5 -290 -11 -320 -24 -113 -119 -163 -242 -129 -34 9 -37 12 -31
37 10 40 12 42 40 32 43 -17 102 -12 123 9 25 25 41 82 41 143 l0 46 -29 -29
c-41 -40 -88 -40 -135 1 -53 47 -71 106 -71 230 0 95 3 110 29 163 48 98 130
127 187 66z m-1451 -164 c0 -235 14 -279 85 -261 47 12 55 47 55 256 l0 190
40 0 40 0 0 -255 0 -255 -35 0 c-29 0 -35 4 -35 20 0 20 -1 20 -37 -5 -73 -49
-160 -19 -183 63 -5 20 -10 126 -10 235 l0 197 40 0 40 0 0 -185z m700 -70 l0
-255 -40 0 -40 0 0 255 0 255 40 0 40 0 0 -255z m188 -483 c8 -5 10 -19 6 -38
-5 -27 -8 -29 -44 -26 -33 3 -41 0 -56 -23 -10 -15 -20 -51 -22 -81 l-4 -54
45 0 c46 0 58 -10 49 -42 -3 -14 -15 -18 -48 -18 l-44 0 0 -225 0 -225 -40 0
-40 0 0 225 0 225 -33 0 c-31 0 -34 3 -32 28 1 22 6 27 32 30 30 3 30 4 35 65
6 76 28 121 71 147 32 20 101 26 125 12z m-1718 -336 c0 -183 3 -348 6 -365 6
-31 6 -31 -35 -31 -38 0 -41 2 -41 26 l0 26 -35 -31 c-64 -56 -142 -33 -186
55 -21 43 -24 63 -24 169 0 140 16 196 71 245 49 42 114 39 151 -9 10 -13 12
10 13 117 l0 132 40 0 40 0 0 -334z m2950 -31 l0 -365 -40 0 -40 0 0 365 0
365 40 0 40 0 0 -365z m-2368 -5 c42 -190 78 -349 78 -353 0 -5 -19 -7 -42 -5
l-42 3 -21 98 c-12 54 -26 102 -32 108 -6 6 -37 6 -78 2 l-70 -8 -17 -80 c-10
-44 -21 -90 -23 -102 -5 -19 -12 -23 -45 -23 -22 0 -40 2 -40 3 0 6 137 608
151 661 l12 47 45 -3 46 -3 78 -345z m796 328 c7 -7 12 -27 12 -45 0 -27 -5
-35 -26 -44 -34 -12 -64 12 -64 51 0 31 17 50 45 50 12 0 26 -5 33 -12z m458
-17 c25 -49 -22 -95 -65 -65 -23 17 -27 44 -10 75 14 28 60 22 75 -10z m517 8
c19 -26 8 -69 -20 -80 -26 -10 -63 15 -63 42 0 55 54 80 83 38z m-1213 -104
l0 -65 50 0 c49 0 50 -1 50 -30 0 -29 -1 -30 -50 -30 l-50 0 0 -173 c0 -194 6
-217 61 -217 28 0 30 -2 27 -32 -3 -30 -6 -33 -42 -36 -21 -2 -52 2 -69 9 -49
21 -57 56 -57 264 l0 185 -30 0 c-27 0 -30 3 -30 30 0 27 3 30 30 30 30 0 30
1 30 55 0 48 3 57 23 65 51 20 57 15 57 -55z m-2064 -71 c62 -30 73 -70 76
-302 l3 -202 -37 0 c-31 0 -38 4 -38 20 0 18 -2 18 -36 -5 -69 -47 -152 -22
-184 55 -18 44 -8 130 19 169 28 38 86 69 147 78 l45 6 -6 41 c-11 66 -29 86
-76 86 -22 0 -50 -5 -61 -11 -23 -13 -35 -4 -40 30 -2 20 3 26 32 37 49 18
116 17 156 -2z m453 -10 c17 -14 35 -42 41 -62 5 -20 10 -126 10 -234 l0 -198
-40 0 -40 0 0 178 c0 97 -5 194 -11 215 -20 72 -95 74 -125 2 -10 -26 -14 -80
-14 -215 l0 -180 -40 0 -39 0 -3 245 c-2 135 -1 250 0 255 2 6 19 10 38 10 30
0 34 -3 34 -27 l0 -27 28 26 c33 31 46 36 94 37 25 1 46 -7 67 -25z m1421 -17
c0 -39 -2 -43 -27 -45 -14 -1 -35 -10 -46 -20 -40 -35 -47 -73 -47 -247 l0
-165 -40 0 -40 0 0 255 0 255 35 0 c33 0 35 -2 35 -32 l1 -33 22 26 c27 32 55
48 85 49 19 0 22 -5 22 -43z m1256 30 c3 -3 3 -19 -1 -36 -6 -30 -8 -30 -51
-24 -40 5 -48 3 -75 -23 -61 -58 -77 -211 -31 -300 25 -50 59 -68 111 -61 36
4 40 3 46 -21 10 -39 -17 -54 -88 -50 -123 9 -187 117 -174 294 11 150 93 240
210 231 26 -2 50 -7 53 -10z m468 -1 c23 -9 40 -27 54 -57 19 -39 21 -65 24
-247 l3 -202 -37 0 c-31 0 -38 4 -38 20 0 11 -4 20 -10 20 -5 0 -10 -4 -10
-10 0 -16 -56 -40 -94 -40 -44 0 -90 38 -106 86 -17 51 -8 125 20 164 27 38
110 80 158 80 l34 0 -7 43 c-4 23 -14 53 -22 65 -13 21 -21 23 -61 20 -26 -3
-54 -8 -63 -12 -13 -5 -19 0 -27 24 -10 28 -9 32 11 39 12 4 29 11 37 14 29
11 101 7 134 -7z m-1284 -251 l0 -255 -40 0 -40 0 0 255 0 255 40 0 40 0 0
-255z m450 0 l0 -255 -40 0 -40 0 0 255 0 255 40 0 40 0 0 -255z m520 0 l0
-255 -40 0 -40 0 0 255 0 255 40 0 40 0 0 -255z m-2110 -850 l0 -365 -40 0
-40 0 0 365 0 365 40 0 40 0 0 -365z m210 0 l0 -365 -40 0 -40 0 0 365 0 365
40 0 40 0 0 -365z m-1500 -10 l0 -355 -40 0 -40 0 0 355 0 355 40 0 40 0 0
-355z m1706 320 c20 -30 11 -62 -22 -77 -31 -14 -64 13 -64 52 0 52 57 70 86
25z m-996 -165 c49 0 50 -1 50 -30 0 -29 -1 -30 -50 -30 l-50 0 0 -173 c0
-194 7 -217 61 -217 27 0 29 -3 29 -35 l0 -35 -51 0 c-108 0 -119 26 -119 275
l0 185 -30 0 c-27 0 -30 3 -30 30 0 27 3 30 30 30 28 0 29 1 32 57 3 55 4 57
38 68 l35 12 3 -69 3 -68 49 0z m-325 -12 c49 -39 55 -69 55 -293 l0 -205 -40
0 -40 0 -1 183 c0 113 -5 195 -12 217 -25 71 -105 60 -126 -17 -6 -21 -11
-116 -11 -210 l0 -173 -40 0 -40 0 0 224 c0 123 -3 238 -6 255 -6 31 -6 31 35
31 38 0 41 -2 41 -27 1 -24 2 -26 13 -13 41 53 123 67 172 28z m646 5 c43 -26
73 -95 77 -180 l4 -73 -122 0 -122 0 7 -52 c9 -63 27 -101 57 -122 25 -18 104
-21 128 -6 16 10 28 -7 29 -42 2 -35 -133 -52 -187 -24 -71 37 -104 103 -110
222 -7 140 26 228 102 275 39 24 99 24 137 2z m990 -12 l29 -29 0 24 c0 21 4
24 38 24 l37 0 -3 -267 c-3 -295 -10 -358 -50 -404 -45 -55 -134 -75 -211 -48
-34 12 -36 16 -21 53 8 23 12 25 35 16 15 -6 43 -10 63 -10 65 1 89 35 99 137
l6 68 -32 -28 c-51 -43 -127 -31 -164 26 -61 94 -61 310 1 405 43 65 125 81
173 33z m460 -7 c35 -34 59 -107 59 -181 l0 -53 -121 0 -121 0 7 -52 c15 -108
53 -144 145 -135 60 5 70 0 70 -38 0 -30 -119 -46 -177 -24 -73 27 -113 100
-120 214 -9 141 22 232 97 283 48 33 118 27 161 -14z m418 10 c17 -14 35 -42
41 -62 5 -20 10 -126 10 -234 l0 -198 -39 0 -40 0 -3 204 c-3 186 -5 206 -22
225 -27 30 -73 24 -100 -12 -19 -26 -21 -44 -24 -223 l-3 -194 -39 0 -39 0 -3
245 c-2 135 -1 250 0 255 2 6 19 10 38 10 30 0 34 -3 34 -27 l0 -27 28 26 c33
31 46 36 94 37 25 1 46 -7 67 -25z m417 13 c3 -3 3 -19 -1 -36 -6 -29 -8 -30
-49 -25 -36 5 -47 2 -74 -21 -85 -71 -77 -307 12 -354 15 -8 40 -12 65 -8 36
4 40 3 46 -21 9 -35 -16 -52 -72 -52 -119 0 -193 96 -193 251 0 177 85 286
213 276 26 -2 50 -7 53 -10z m305 -23 c35 -34 59 -107 59 -181 l0 -53 -121 0
-122 0 6 -51 c8 -67 34 -110 79 -132 31 -15 43 -16 79 -7 33 9 44 9 50 -2 26
-41 -13 -68 -98 -68 -116 0 -180 77 -190 230 -9 133 27 235 100 281 46 29 118
22 158 -17z m-1911 -229 l0 -255 -40 0 -40 0 0 255 0 255 40 0 40 0 0 -255z
m2158 -172 c-14 -52 -59 -163 -76 -190 -18 -29 -67 -33 -59 -5 26 94 47 180
47 197 0 30 8 35 56 35 l42 0 -10 -37z m-2778 -443 l0 -129 36 24 c46 31 101
33 138 4 50 -39 56 -73 56 -295 l0 -204 -40 0 -40 0 -1 183 c0 236 -17 286
-86 262 -53 -19 -63 -58 -63 -262 l0 -183 -40 0 -40 0 0 365 0 365 40 0 40 0
0 -130z m4670 -235 l0 -365 -40 0 -40 0 0 365 0 365 40 0 40 0 0 -365z m-4070
-10 l0 -355 -40 0 -40 0 0 355 0 355 40 0 40 0 0 -355z m-1134 324 c54 -33 87
-114 92 -225 7 -163 -28 -290 -104 -374 -44 -48 -123 -90 -171 -90 -31 0 -33
2 -33 34 0 31 3 34 43 45 89 23 143 83 172 190 l13 49 -37 -25 c-30 -21 -45
-24 -89 -21 -90 8 -141 79 -142 199 0 104 32 176 100 221 36 24 115 23 156 -3z
m3772 9 c20 -20 15 -76 -8 -88 -46 -25 -85 24 -61 76 12 26 48 33 69 12z
m-4188 -343 l0 -345 -40 0 -40 0 0 300 c0 165 -2 300 -5 300 -3 0 -29 -14 -59
-30 l-54 -31 -6 23 c-11 41 -7 46 62 87 46 28 79 41 105 41 l37 0 0 -345z
m750 165 c49 0 50 -1 50 -30 0 -29 -1 -30 -50 -30 l-50 0 0 -167 c0 -192 7
-216 58 -221 29 -3 32 -6 32 -38 l0 -34 -51 0 c-109 0 -119 22 -119 270 l0
190 -30 0 c-27 0 -30 3 -30 30 0 27 3 30 30 30 28 0 29 1 32 57 3 55 4 57 38
68 l35 12 3 -69 3 -68 49 0z m1510 0 c49 0 50 -1 50 -30 0 -29 -1 -30 -50 -30
l-50 0 0 -173 c0 -194 6 -217 61 -217 28 0 30 -2 27 -32 -3 -32 -5 -33 -50
-36 -104 -7 -118 25 -118 273 l0 185 -30 0 c-27 0 -30 3 -30 30 0 27 3 30 30
30 28 0 29 1 32 57 3 55 4 57 38 68 l35 12 3 -69 3 -68 49 0z m1730 0 c49 0
50 -1 50 -30 0 -29 -1 -30 -50 -30 l-50 0 0 -173 c0 -194 6 -217 61 -217 28 0
30 -2 27 -32 -3 -30 -6 -33 -42 -36 -58 -5 -85 5 -106 41 -18 29 -20 51 -20
225 l0 192 -30 0 c-27 0 -30 3 -30 30 0 27 3 30 30 30 30 0 30 0 30 58 l0 58
38 10 37 9 3 -67 3 -68 49 0z m-2051 -16 c17 -14 35 -42 41 -62 5 -20 10 -126
10 -234 l0 -198 -40 0 -40 0 0 185 c0 139 -4 194 -14 220 -26 62 -94 56 -122
-10 -10 -25 -14 -82 -14 -215 l0 -180 -40 0 -40 0 0 233 c0 127 -3 242 -6 255
-6 20 -3 22 35 22 38 0 41 -2 41 -27 l0 -27 28 26 c33 31 46 36 94 37 25 1 46
-7 67 -25z m672 -10 c35 -34 59 -107 59 -181 l0 -53 -121 0 -121 0 7 -52 c9
-64 27 -103 60 -124 26 -17 78 -21 115 -9 24 8 40 -7 40 -37 0 -35 -134 -52
-189 -23 -71 36 -111 127 -111 250 0 167 73 271 183 262 36 -3 56 -12 78 -33z
m349 -9 c0 -43 -1 -45 -28 -45 -35 0 -69 -34 -82 -81 -6 -19 -10 -105 -10
-191 l0 -158 -40 0 -40 0 0 233 c0 127 -3 242 -6 255 -6 20 -3 22 35 22 40 0
41 -1 41 -32 l1 -33 22 26 c27 32 55 48 85 49 20 0 22 -5 22 -45z m329 19 c17
-14 35 -42 41 -62 5 -20 10 -126 10 -234 l0 -198 -40 0 -40 0 0 188 c0 158 -3
192 -18 222 -19 38 -47 49 -82 30 -42 -22 -50 -66 -50 -260 l0 -180 -40 0 -40
0 0 233 c0 127 -3 242 -6 255 -6 20 -3 22 35 22 38 0 41 -2 41 -27 l0 -27 28
26 c33 31 46 36 94 37 25 1 46 -7 67 -25z m377 7 c53 -33 63 -78 66 -304 l3
-197 -37 0 c-31 0 -38 4 -38 20 0 11 -4 20 -10 20 -5 0 -10 -4 -10 -10 0 -16
-56 -40 -93 -40 -91 0 -147 128 -100 227 21 46 92 91 155 99 l49 7 -6 41 c-4
22 -14 52 -22 64 -13 21 -21 23 -61 20 -26 -3 -54 -8 -63 -12 -13 -5 -19 0
-27 24 -10 28 -9 32 11 39 12 4 29 11 37 14 35 13 116 6 146 -12z m890 -24
c48 -52 67 -127 62 -247 -3 -79 -8 -106 -29 -146 -65 -127 -205 -127 -269 1
-23 45 -25 62 -25 170 0 110 2 125 26 170 36 71 79 98 148 92 47 -3 59 -9 87
-40z m426 17 c42 -38 48 -72 48 -289 l0 -205 -40 0 -40 0 -1 183 c0 113 -5
195 -12 217 -25 71 -105 60 -126 -17 -6 -21 -11 -116 -11 -210 l0 -173 -40 0
-40 0 0 218 c0 119 -3 234 -6 255 l-7 37 42 0 c38 0 41 -2 41 -27 0 -24 2 -25
13 -10 36 48 135 60 179 21z m372 11 c57 -27 70 -64 73 -205 2 -69 4 -164 6
-213 l2 -87 -37 0 c-31 0 -38 4 -38 20 0 18 -2 18 -36 -5 -49 -33 -103 -33
-142 0 -41 34 -55 75 -50 139 8 92 72 152 175 164 l43 5 -6 41 c-13 83 -44
104 -118 82 l-45 -14 -10 28 c-9 27 -7 29 27 44 48 19 116 20 156 1z m-1154
-250 l0 -255 -40 0 -40 0 0 255 0 255 40 0 40 0 0 -255z m-2986 -484 c3 -5 3
-23 0 -39 -6 -28 -9 -30 -38 -25 -18 2 -39 -1 -49 -9 -19 -14 -36 -72 -37
-120 0 -27 2 -28 50 -28 49 0 50 -1 50 -30 0 -29 -1 -30 -50 -30 l-50 0 0
-225 0 -225 -40 0 -40 0 0 225 0 225 -35 0 c-32 0 -35 2 -35 30 0 28 3 30 35
30 l35 0 0 53 c1 108 59 177 152 177 26 0 49 -4 52 -9z m-1135 -20 c10 -6 12
-19 7 -44 -6 -34 -7 -35 -44 -26 -48 11 -80 2 -115 -30 -63 -58 -94 -171 -82
-304 15 -178 86 -263 198 -237 40 9 40 9 50 -38 7 -32 -30 -45 -114 -40 -78 4
-123 30 -164 93 -43 66 -59 138 -59 260 -1 185 55 309 158 356 43 19 141 25
165 10z m321 -229 c54 -53 73 -126 68 -252 -3 -79 -8 -106 -29 -146 -65 -127
-205 -127 -269 1 -23 45 -25 62 -25 170 0 109 2 124 26 170 34 66 77 95 142
95 44 0 54 -4 87 -38z m425 16 c49 -39 55 -69 55 -293 l0 -205 -39 0 -39 0 -4
198 c-3 211 -9 237 -53 248 -36 9 -72 -19 -84 -63 -6 -21 -11 -116 -11 -210
l0 -173 -40 0 -40 0 0 218 c0 119 -3 234 -6 255 l-7 37 42 0 c38 0 41 -2 42
-27 0 -16 3 -22 6 -15 10 25 67 52 109 52 27 0 51 -7 69 -22z m625 5 c47 -27
73 -86 78 -175 l5 -78 -122 0 c-136 0 -128 5 -110 -82 20 -92 87 -131 172 -99
20 8 27 6 31 -5 21 -54 -8 -74 -102 -74 -89 0 -156 54 -181 145 -16 58 -13
183 4 243 17 55 64 118 99 132 35 14 96 11 126 -7z m380 -28 c0 -43 -1 -45
-28 -45 -36 0 -67 -33 -81 -85 -6 -22 -11 -109 -11 -192 l0 -153 -40 0 -40 0
0 218 c0 119 -3 234 -6 255 l-7 37 42 0 c39 0 41 -1 41 -30 l0 -31 35 36 c25
24 45 35 65 35 29 0 30 -2 30 -45z m260 28 c47 -27 73 -86 78 -175 l5 -78
-122 0 c-136 0 -128 5 -110 -82 20 -92 87 -131 172 -99 20 8 27 6 31 -5 21
-54 -8 -74 -102 -74 -60 0 -108 21 -143 63 -47 56 -64 222 -34 325 17 55 64
118 99 132 35 14 96 11 126 -7z m435 -5 c49 -39 55 -69 55 -293 l0 -205 -40 0
-40 0 -1 183 c0 113 -5 195 -12 217 -25 71 -105 60 -126 -17 -6 -21 -11 -116
-11 -210 l0 -173 -40 0 -40 0 0 224 c0 123 -3 238 -6 255 -6 31 -6 31 35 31
38 0 41 -2 42 -27 0 -16 3 -22 6 -15 10 25 67 52 109 52 27 0 51 -7 69 -22z
m414 13 c9 -6 11 -18 6 -39 -6 -31 -8 -31 -51 -25 -41 5 -46 3 -78 -31 -82
-86 -67 -308 23 -346 18 -7 45 -10 65 -6 26 5 35 3 40 -10 18 -48 -1 -64 -77
-64 -116 0 -187 99 -187 262 0 119 50 220 125 254 34 15 113 18 134 5z m291
-8 c47 -27 73 -86 78 -175 l5 -78 -122 0 c-136 0 -128 5 -110 -82 16 -73 52
-108 114 -108 25 0 55 4 65 10 16 8 19 5 25 -21 10 -43 -4 -53 -84 -57 -57 -3
-76 0 -108 17 -43 25 -76 70 -92 127 -16 57 -13 182 4 242 17 55 64 118 99
132 35 14 96 11 126 -7z m1052 -2163 c7 -11 21 -20 30 -20 56 0 132 -63 156
-129 14 -41 20 -174 8 -208 -5 -17 -4 -23 8 -23 9 0 16 -7 16 -15 0 -13 -27
-15 -180 -15 -153 0 -180 2 -180 15 0 8 6 15 14 15 8 0 18 10 22 22 3 12 29
46 57 75 42 45 47 53 29 53 -23 0 -58 -32 -68 -62 -10 -33 -77 -21 -111 22
l-22 28 39 55 c22 30 40 60 40 66 0 6 11 21 25 33 18 15 25 32 25 56 0 31 2
34 25 30 17 -4 25 -1 25 8 0 21 28 17 42 -6z m520 -133 c11 -17 10 -67 -2 -67
-5 0 -16 14 -25 30 -17 33 -54 41 -75 15 -18 -22 -8 -47 30 -72 77 -49 90 -63
90 -99 0 -51 -36 -84 -92 -84 -76 0 -88 7 -88 51 0 44 16 51 30 14 23 -60 104
-53 98 8 -2 25 -12 36 -53 60 -59 34 -65 42 -65 83 0 55 43 87 105 79 22 -3
43 -11 47 -18z m493 -17 c0 -16 -6 -26 -18 -28 -19 -4 -32 20 -23 44 9 25 41
13 41 -16z m-383 -71 c3 -9 9 -9 26 0 57 30 114 -33 96 -106 -10 -42 -60 -83
-100 -83 -21 0 -24 -5 -24 -41 0 -32 4 -42 20 -46 39 -10 19 -23 -35 -23 -53
0 -72 11 -40 24 12 4 15 27 15 120 0 99 -2 116 -17 125 -25 14 -5 30 49 40 3
0 8 -4 10 -10z m242 -10 c28 26 58 19 54 -13 -2 -16 -9 -20 -30 -18 -32 3 -48
-20 -48 -72 0 -23 6 -39 20 -49 27 -19 15 -27 -36 -27 -44 0 -67 15 -40 26 12
5 16 21 16 70 0 39 -4 64 -11 64 -20 0 -3 24 22 30 18 5 25 2 27 -13 4 -18 5
-18 26 2z m146 -63 c0 -67 3 -85 16 -90 28 -11 4 -26 -42 -26 -41 0 -57 11
-34 25 6 3 10 35 10 71 0 36 -4 64 -10 64 -32 0 15 35 53 39 4 1 7 -37 7 -83z
m122 73 c2 -7 12 -7 30 2 23 10 31 9 53 -5 23 -15 25 -23 25 -87 0 -52 4 -71
15 -75 26 -10 5 -24 -35 -24 -41 0 -62 16 -36 26 12 5 16 20 16 58 0 62 -10
79 -41 74 -22 -3 -24 -8 -27 -61 -2 -32 2 -64 7 -71 15 -18 3 -26 -40 -26 -40
0 -61 16 -35 26 12 5 16 21 16 70 0 36 -4 64 -10 64 -21 0 -9 19 18 28 36 14
40 14 44 1z m348 -6 c3 -3 -3 -10 -13 -17 -10 -8 -17 -26 -17 -44 0 -35 -39
-72 -76 -72 -15 0 -24 -6 -24 -15 0 -11 12 -15 48 -15 57 0 72 -12 72 -57 0
-40 -35 -77 -81 -87 -38 -7 -95 16 -104 43 -7 23 10 61 27 61 6 0 3 9 -7 20
-17 19 -17 21 -1 39 16 17 16 20 -1 50 -16 28 -17 33 -3 58 23 41 56 53 120
46 30 -3 57 -8 60 -10z m144 -4 c15 -12 26 -30 26 -44 0 -21 -6 -24 -60 -32
-59 -8 -59 -8 -47 -33 11 -21 20 -25 55 -24 45 1 53 -10 25 -32 -29 -22 -81
-17 -108 11 -39 38 -35 97 9 141 39 39 63 42 100 13z m140 6 c22 15 56 11 56
-5 0 -26 -14 -39 -35 -34 -29 7 -45 -19 -45 -70 0 -23 6 -39 20 -49 27 -19 15
-27 -42 -27 -47 0 -63 12 -33 24 23 8 21 124 -2 141 -16 12 -14 14 17 22 26 7
36 6 38 -4 3 -10 8 -9 26 2z m-1554 -270 l0 -25 -180 0 -180 0 0 25 0 25 180
0 180 0 0 -25z"/>
<path d="M4456 12025 c-9 -24 -7 -68 4 -85 16 -25 32 3 28 50 -3 45 -21 63
-32 35z"/>
<path d="M5885 12080 c-9 -15 5 -52 18 -47 19 6 21 57 3 57 -8 0 -18 -5 -21
-10z"/>
<path d="M5880 11981 c-13 -25 -3 -51 20 -51 10 0 21 7 24 16 7 17 -10 54 -24
54 -5 0 -14 -9 -20 -19z"/>
<path d="M1287 12034 c-14 -15 -6 -34 14 -34 14 0 19 5 17 17 -3 18 -20 27
-31 17z"/>
<path d="M1877 12033 c-14 -13 -6 -33 13 -33 22 0 23 1 14 24 -7 17 -16 20
-27 9z"/>
<path d="M2234 12027 c-11 -29 0 -92 16 -92 11 0 15 12 15 49 0 49 -19 74 -31
43z"/>
<path d="M2467 12034 c-14 -15 -6 -34 14 -34 14 0 19 5 17 17 -3 18 -20 27
-31 17z"/>
<path d="M3207 12034 c-14 -15 -6 -34 14 -34 14 0 19 5 17 17 -3 18 -20 27
-31 17z"/>
<path d="M3644 12027 c-11 -29 0 -92 16 -92 11 0 15 12 15 49 0 49 -19 74 -31
43z"/>
<path d="M4160 11965 c-9 -11 -10 -19 -2 -27 14 -14 32 -1 32 23 0 23 -13 25
-30 4z"/>
<path d="M5117 12033 c-14 -13 -6 -33 13 -33 22 0 23 1 14 24 -7 17 -16 20
-27 9z"/>
<path d="M2313 10523 c-26 -39 -26 -187 0 -226 22 -34 52 -34 74 0 25 39 25
187 0 226 -22 34 -52 34 -74 0z"/>
<path d="M3670 10491 c0 -61 2 -71 18 -71 23 0 37 10 51 37 24 46 7 87 -41 99
l-28 6 0 -71z"/>
<path d="M4559 10408 c-15 -58 -2 -131 25 -137 29 -5 46 26 46 87 0 62 -13 92
-40 92 -14 0 -22 -11 -31 -42z"/>
<path d="M6322 10425 c-24 -51 -8 -151 24 -162 7 -2 19 3 28 12 19 19 23 124
6 156 -15 27 -45 24 -58 -6z"/>
<path d="M1461 10419 c-20 -57 -6 -141 24 -153 36 -14 62 113 35 165 -17 30
-46 24 -59 -12z"/>
<path d="M1692 10447 c-6 -6 -13 -24 -17 -40 -7 -26 -6 -27 34 -27 46 0 54 17
25 58 -17 25 -27 27 -42 9z"/>
<path d="M2872 10344 c-27 -19 -27 -61 1 -78 24 -15 47 15 47 61 0 37 -13 42
-48 17z"/>
<path d="M3890 10342 c-18 -15 -22 -25 -16 -46 15 -59 66 -36 66 31 0 38 -16
43 -50 15z"/>
<path d="M5183 10448 c-6 -7 -13 -25 -17 -40 -6 -27 -5 -28 34 -28 45 0 52 18
24 58 -17 25 -27 27 -41 10z"/>
<path d="M5910 10425 c-17 -46 -12 -120 10 -146 l20 -24 20 24 c21 24 26 88
11 141 -10 36 -48 39 -61 5z"/>
<path d="M6131 10446 c-18 -22 -25 -109 -11 -150 14 -43 41 -48 58 -11 33 72
-7 209 -47 161z"/>
<path d="M1183 10033 c-9 -3 -13 -27 -13 -74 0 -63 2 -69 20 -69 28 0 70 44
70 72 0 44 -42 82 -77 71z"/>
<path d="M1369 9819 c-24 -24 -22 -57 4 -73 24 -15 47 15 47 61 0 39 -19 44
-51 12z"/>
<path d="M1862 9927 c-6 -6 -13 -24 -17 -40 -7 -26 -6 -27 34 -27 46 0 54 17
25 58 -17 25 -27 27 -42 9z"/>
<path d="M2672 9927 c-6 -6 -13 -24 -17 -40 -7 -26 -6 -27 34 -27 46 0 54 17
25 58 -17 25 -27 27 -42 9z"/>
<path d="M3513 9928 c-6 -7 -13 -25 -17 -40 -6 -27 -5 -28 34 -28 45 0 52 18
24 58 -17 25 -27 27 -41 10z"/>
<path d="M3832 9824 c-27 -19 -27 -61 1 -78 24 -15 47 15 47 61 0 37 -13 42
-48 17z"/>
<path d="M4462 9913 c-4 -10 -7 -46 -7 -80 0 -46 5 -67 18 -80 16 -16 18 -16
33 -1 20 20 29 92 17 138 -11 40 -48 55 -61 23z"/>
<path d="M5212 9927 c-6 -6 -13 -24 -17 -40 -7 -26 -6 -27 34 -27 46 0 54 17
25 58 -17 25 -27 27 -42 9z"/>
<path d="M5530 9925 c-19 -23 -25 -119 -10 -155 17 -40 45 -39 59 1 30 86 -8
203 -49 154z"/>
<path d="M5946 9918 c-28 -40 -21 -58 24 -58 34 0 40 3 40 21 0 28 -18 59 -35
59 -8 0 -21 -10 -29 -22z"/>
<path d="M1977 9503 c-4 -3 -7 -35 -7 -71 0 -62 1 -64 23 -58 12 3 25 6 28 6
9 0 29 48 29 69 0 33 -54 74 -73 54z"/>
<path d="M2389 9360 c-17 -55 -2 -133 25 -139 29 -5 46 26 46 87 0 62 -13 92
-40 92 -14 0 -23 -11 -31 -40z"/>
<path d="M4057 9392 c-42 -46 -61 -148 -32 -172 30 -25 59 27 71 128 5 51 4
62 -8 62 -8 0 -22 -8 -31 -18z"/>
<path d="M1372 9294 c-24 -17 -29 -53 -10 -72 16 -16 23 -15 42 4 19 19 22 84
3 84 -7 0 -23 -7 -35 -16z"/>
<path d="M1692 9294 c-24 -17 -29 -53 -10 -72 16 -16 23 -15 42 4 19 19 22 84
3 84 -7 0 -23 -7 -35 -16z"/>
<path d="M2182 9383 c-4 -10 -7 -46 -7 -80 0 -46 5 -67 18 -80 16 -16 18 -16
33 -1 20 20 29 92 17 138 -11 40 -48 55 -61 23z"/>
<path d="M2840 9364 c-16 -48 -7 -124 16 -141 17 -12 21 -11 37 8 19 24 24
118 7 150 -18 32 -47 24 -60 -17z"/>
<path d="M3272 9397 c-6 -6 -13 -24 -17 -40 -7 -26 -6 -27 34 -27 46 0 54 17
25 58 -17 25 -27 27 -42 9z"/>
<path d="M4472 9397 c-36 -43 -54 -143 -32 -177 13 -20 40 -3 59 36 21 42 21
147 0 152 -9 1 -21 -3 -27 -11z"/>
<path d="M2980 8150 c-33 -33 -40 -65 -40 -178 0 -93 3 -112 23 -147 19 -34
27 -40 56 -40 59 0 90 67 91 191 0 69 -20 147 -46 175 -22 25 -59 24 -84 -1z"/>
<path d="M4468 8153 c-40 -46 -57 -140 -44 -246 14 -110 82 -159 130 -94 19
26 21 42 21 162 0 120 -2 136 -21 162 -25 34 -64 41 -86 16z"/>
<path d="M1210 8075 l0 -285 39 0 c55 0 101 34 134 101 23 46 30 75 34 153 12
203 -46 316 -164 316 l-43 0 0 -285z"/>
<path d="M4077 8169 c-22 -13 -42 -53 -51 -101 l-7 -38 81 0 80 0 0 30 c0 42
-24 96 -48 109 -25 13 -32 13 -55 0z"/>
<path d="M1611 7189 c-54 -58 -54 -290 0 -348 15 -16 30 -21 52 -19 26 2 36
11 52 43 30 59 29 243 -1 300 -26 49 -70 60 -103 24z"/>
<path d="M2695 7186 c-31 -31 -38 -71 -33 -199 2 -88 6 -110 24 -134 70 -94
144 19 131 200 -11 136 -62 193 -122 133z"/>
<path d="M4438 7193 c-35 -41 -42 -69 -43 -173 0 -88 3 -111 20 -139 25 -43
46 -56 77 -48 46 12 60 62 56 197 -3 102 -6 123 -24 147 -25 34 -64 41 -86 16z"/>
<path d="M2056 6227 c-78 -79 -48 -367 38 -367 50 0 76 66 76 194 0 107 -13
160 -43 181 -29 21 -44 19 -71 -8z"/>
<path d="M2677 6274 c-14 -76 -29 -151 -33 -166 l-6 -28 67 0 67 0 -8 33 c-4
17 -19 92 -33 166 l-27 134 -27 -139z"/>
<path d="M1243 6045 c-56 -24 -78 -96 -48 -155 13 -25 22 -30 50 -30 51 0 75
43 75 133 0 63 -1 67 -22 67 -13 -1 -37 -7 -55 -15z"/>
<path d="M4852 6049 c-46 -14 -74 -62 -69 -116 6 -55 21 -73 63 -73 50 0 74
43 74 133 0 74 -1 75 -68 56z"/>
<path d="M2128 5273 c-22 -25 -34 -53 -41 -90 l-6 -33 79 0 c88 0 88 0 74 68
-13 62 -72 93 -106 55z"/>
<path d="M3136 5267 c-63 -63 -58 -292 8 -346 24 -20 59 -8 84 29 22 33 23 43
20 157 -3 105 -6 125 -24 150 -28 37 -58 40 -88 10z"/>
<path d="M3574 5290 c-23 -9 -48 -56 -57 -107 l-6 -33 79 0 80 0 0 33 c0 41
-29 98 -55 107 -11 4 -29 4 -41 0z"/>
<path d="M4700 5280 c-22 -22 -33 -47 -45 -97 l-7 -33 81 0 81 0 0 30 c0 61
-39 120 -79 120 -6 0 -20 -9 -31 -20z"/>
<path d="M1633 4488 c-57 -62 -55 -207 3 -265 31 -31 76 -26 114 13 23 22 25
32 23 104 -2 106 -31 163 -83 168 -27 2 -41 -3 -57 -20z"/>
<path d="M3848 4328 c-28 -10 -51 -50 -61 -105 l-6 -33 79 0 80 0 0 30 c0 41
-24 96 -47 108 -11 6 -28 6 -45 0z"/>
<path d="M4922 4123 c-43 -21 -66 -65 -59 -115 7 -51 22 -68 63 -68 50 0 74
43 74 133 0 63 -1 67 -22 67 -13 0 -38 -8 -56 -17z"/>
<path d="M5761 4305 c-27 -35 -36 -82 -35 -180 0 -121 28 -185 79 -185 39 0
62 35 76 114 15 87 1 205 -28 245 -28 37 -65 39 -92 6z"/>
<path d="M6623 4121 c-34 -16 -44 -27 -54 -60 -10 -33 -9 -47 2 -78 14 -35 18
-38 54 -38 36 0 42 4 57 35 12 22 18 58 18 98 0 71 -6 75 -77 43z"/>
<path d="M1611 3345 c-27 -36 -36 -82 -35 -186 1 -89 21 -152 55 -172 27 -17
65 0 82 35 36 77 30 262 -12 318 -26 36 -64 38 -90 5z"/>
<path d="M2688 3353 c-22 -25 -34 -53 -41 -90 l-6 -33 79 0 c79 0 80 0 80 25
0 31 -26 96 -43 107 -21 13 -53 9 -69 -9z"/>
<path d="M3328 3353 c-22 -25 -34 -53 -41 -90 l-6 -33 79 0 c79 0 80 0 80 25
0 31 -26 96 -43 107 -21 13 -53 9 -69 -9z"/>
<path d="M4474 3362 c-16 -10 -40 -61 -47 -99 l-6 -33 79 0 c79 0 80 0 80 25
0 31 -26 96 -43 107 -15 10 -49 10 -63 0z"/>
<path d="M5612 1223 c-2 -24 -27 -31 -35 -10 -3 6 -6 2 -6 -11 -1 -13 -11 -33
-24 -45 -36 -34 -72 -99 -69 -124 3 -23 -12 -32 -21 -13 -3 6 -4 5 -3 -2 2 -8
14 -12 30 -10 19 2 26 -2 26 -15 0 -15 4 -14 20 7 11 14 23 35 26 48 7 24 15
27 31 11 21 -21 57 -6 67 29 12 41 26 41 26 -1 0 -38 -15 -62 -82 -134 -26
-28 -48 -57 -48 -62 0 -7 42 -11 120 -11 140 0 134 -5 134 110 1 116 -47 195
-127 215 -21 6 -27 4 -27 -9 0 -31 -29 -17 -33 17 -2 19 -4 23 -5 10z m-42
-92 c0 -5 -7 -12 -16 -15 -22 -9 -24 -8 -24 9 0 8 9 15 20 15 11 0 20 -4 20
-9z"/>
<path d="M6264 996 c-3 -7 -4 -35 -2 -62 3 -43 6 -49 27 -52 15 -3 30 3 38 14
16 22 17 86 1 102 -16 16 -57 15 -64 -2z"/>
<path d="M6984 993 c-13 -51 36 -85 57 -40 8 18 8 30 0 46 -17 30 -49 27 -57
-6z"/>
<path d="M6977 823 c-4 -3 -7 -17 -7 -29 0 -46 77 -57 100 -15 17 33 2 51 -44
51 -24 0 -46 -3 -49 -7z"/>
<path d="M7192 1008 c-20 -20 -14 -28 19 -28 24 0 30 4 27 17 -4 22 -29 28
-46 11z"/>
</g>
</svg>
