<?xml version="1.0" encoding="UTF-8"?>
<svg version="1.1" xmlns="http://www.w3.org/2000/svg" width="68" height="68">
<path d="M0 0 C22.44 0 44.88 0 68 0 C68 22.44 68 44.88 68 68 C45.56 68 23.12 68 0 68 C0 45.56 0 23.12 0 0 Z " fill="#0E1C34" transform="translate(0,0)"/>
<path d="M0 0 C22.44 0 44.88 0 68 0 C68 22.44 68 44.88 68 68 C45.56 68 23.12 68 0 68 C0 45.56 0 23.12 0 0 Z M9 14 C2.79654155 23.01648257 1.79849554 32.27266646 3 43 C5.35529862 51.43064832 11.23366254 57.94389283 18.50390625 62.60546875 C26.17870069 66.59368071 34.18844873 67.53578532 42.6015625 65.3125 C45.00838198 64.46463698 45.00838198 64.46463698 48 63 C48 62.67 48 62.34 48 62 C46.69546875 61.85046875 45.3909375 61.7009375 44.046875 61.546875 C30.85428294 59.68476272 24.37459202 56.21329396 16 46 C15.34 45.67 14.68 45.34 14 45 C18.39579583 45.23135768 20.8801748 46.53237005 24.375 49 C31.08638091 53.30269512 38.26917545 52.98081681 46 53 C46 51.68 46 50.36 46 49 C44.04350603 48.16235732 42.08474444 47.33000941 40.125 46.5 C39.03445312 46.0359375 37.94390625 45.571875 36.8203125 45.09375 C34.19338071 43.87947544 34.19338071 43.87947544 32 44 C32 43.34 32 42.68 32 42 C35.3984116 42.41879778 38.79298087 42.863324 42.1875 43.3125 C43.62706055 43.48942383 43.62706055 43.48942383 45.09570312 43.66992188 C54.17443049 44.89507886 54.17443049 44.89507886 58 48 C58.66 48.99 59.32 49.98 60 51 C60.66 51 61.32 51 62 51 C66.75842132 43.35253717 67.39596033 34.74106 66 26 C63.18913073 16.93135609 57.99600931 10.17321272 49.59375 5.7265625 C34.39049667 -1.23336841 20.23001577 1.39668842 9 14 Z " fill="#FAFBFB" transform="translate(0,0)"/>
<path d="M0 0 C22.21646341 1.21646341 22.21646341 1.21646341 26.5 5.5 C26.995 6.325 27.49 7.15 28 8 C28.66 8.66 29.32 9.32 30 10 C29.34 10 28.68 10 28 10 C27.74089844 10.59425781 27.48179688 11.18851563 27.21484375 11.80078125 C25.91195824 14.15938107 24.61934696 15.46682588 22.5625 17.1875 C21.96566406 17.69667969 21.36882813 18.20585938 20.75390625 18.73046875 C16.85518418 21.55248361 13.70691935 20.93061014 9.23217773 20.27514648 C-2.66855219 18.21278862 -8.55430236 14.33666846 -16 5 C-16.9828731 3.98316153 -17.97343632 2.97271116 -19 2 C-14.17847217 2.20963164 -11.53256154 3.17659426 -7.5625 5.9375 C-0.92813637 10.22669323 6.30910514 10.44656092 14 11 C14 9.68 14 8.36 14 7 C13.32453125 6.80664062 12.6490625 6.61328125 11.953125 6.4140625 C11.06109375 6.15367188 10.1690625 5.89328125 9.25 5.625 C8.36828125 5.36976562 7.4865625 5.11453125 6.578125 4.8515625 C4.23919428 4.0790066 2.16557438 3.16374324 0 2 C0 1.34 0 0.68 0 0 Z " fill="#AEC3E7" transform="translate(32,42)"/>
<path d="M0 0 C2.4375 1.4375 2.4375 1.4375 4 4 C4.21899701 6.33316046 4.18885618 8.54076454 4.04296875 10.87890625 C3.87751099 13.19149499 3.87751099 13.19149499 5 16 C10.01535052 15.67039784 10.01535052 15.67039784 14 13 C14.71408334 11.01643517 15.38617742 9.01684563 16 7 C17.66611905 6.957279 19.33382885 6.95936168 21 7 C22 8 22 8 22.0625 10.5625 C22.041875 11.366875 22.02125 12.17125 22 13 C20.906875 13.33 19.81375 13.66 18.6875 14 C16.25890642 15.01354611 15.23047905 15.58564611 13.9375 17.91015625 C13.44898306 19.31209808 13.00240535 20.72958607 12.60546875 22.16015625 C12 24 12 24 10 26 C7.5 26.25 7.5 26.25 5 26 C2.50494038 23.50494038 2.64051624 22.32671112 2.375 18.875 C2.30023438 17.96492188 2.22546875 17.05484375 2.1484375 16.1171875 C2.09945313 15.41851562 2.05046875 14.71984375 2 14 C0.7625 14.0825 -0.475 14.165 -1.75 14.25 C-4.80700305 14.23373935 -5.828179 14.10738813 -8.5 12.4375 C-10.56021138 9.08965651 -10.49125459 6.85985753 -10 3 C-7.7773391 -1.05308751 -4.20075589 -0.5158823 0 0 Z " fill="#D5D5D6" transform="translate(26,10)"/>
<path d="M0 0 C1.9078584 3.1749094 2.1609041 5.10585211 1.625 8.75 C1.45871094 9.94882812 1.45871094 9.94882812 1.2890625 11.171875 C1.14597656 12.07679687 1.14597656 12.07679687 1 13 C-0.45742463 13.08096803 -1.91612807 13.13917774 -3.375 13.1875 C-4.18710937 13.22230469 -4.99921875 13.25710937 -5.8359375 13.29296875 C-6.55007812 13.19628906 -7.26421875 13.09960938 -8 13 C-10.46324069 9.30513897 -10.38991688 7.36706908 -10 3 C-7.7672032 -1.07157064 -4.21152194 -0.23838803 0 0 Z " fill="#D9D9D9" transform="translate(26,10)"/>
<path d="M0 0 C1.32 0.33 2.64 0.66 4 1 C4.38922918 2.28745036 4.76098036 3.58019597 5.125 4.875 C5.33382812 5.59429688 5.54265625 6.31359375 5.7578125 7.0546875 C5.83773437 7.69664063 5.91765625 8.33859375 6 9 C4 11 4 11 0.5 11.3125 C-1.2325 11.1578125 -1.2325 11.1578125 -3 11 C-3.66 10.01 -4.32 9.02 -5 8 C-3.88213958 4.64641875 -2.25245881 2.68841859 0 0 Z " fill="#152138" transform="translate(34,15)"/>
<path d="M0 0 C3 0.25 3 0.25 5 2.25 C4.43181818 7.81818182 4.43181818 7.81818182 3 9.25 C0.0625 9.4375 0.0625 9.4375 -3 9.25 C-5 7.25 -5 7.25 -5.25 4.75 C-4.86630891 0.91308908 -3.76694968 0.31391247 0 0 Z " fill="#D8D8D8" transform="translate(47,27.75)"/>
<path d="M0 0 C1.66611905 -0.042721 3.33382885 -0.04063832 5 0 C6 1 6 1 6.0625 3.5625 C6.041875 4.366875 6.02125 5.17125 6 6 C3.41210938 7.07421875 3.41210938 7.07421875 0.82421875 8.1484375 C-1.26533932 9.06806692 -1.26533932 9.06806692 -4 11 C-6.04296875 11.1953125 -6.04296875 11.1953125 -8.1875 11.125 C-10.0746875 11.063125 -10.0746875 11.063125 -12 11 C-11.67 10.01 -11.34 9.02 -11 8 C-9.329375 8.061875 -9.329375 8.061875 -7.625 8.125 C-3.95633975 8.41121859 -3.95633975 8.41121859 -2 6 C-1.28591666 4.01643517 -0.61382258 2.01684563 0 0 Z " fill="#E8E6E5" transform="translate(42,17)"/>
<path d="M0 0 C1.67542976 0.28604898 3.34385343 0.61781233 5 1 C5 2.65 5 4.3 5 6 C2.625 6.625 2.625 6.625 0 7 C-0.66 6.34 -1.32 5.68 -2 5 C-1.46428571 1.46428571 -1.46428571 1.46428571 0 0 Z " fill="#D3D4D4" transform="translate(19,27)"/>
<path d="M0 0 C0.99 0.66 1.98 1.32 3 2 C3.2578125 4.09375 3.2578125 4.09375 3.125 6.5 C2.89255348 9.88137158 2.89255348 9.88137158 4 13 C3.01 14.485 3.01 14.485 2 16 C1.67 14.68 1.34 13.36 1 12 C-1.64 12 -4.28 12 -7 12 C-7 11.67 -7 11.34 -7 11 C-4.69 11 -2.38 11 0 11 C0 7.37 0 3.74 0 0 Z " fill="#BBBDC1" transform="translate(27,12)"/>
<path d="M0 0 C1.2065625 0.0309375 1.2065625 0.0309375 2.4375 0.0625 C2.7675 0.7225 3.0975 1.3825 3.4375 2.0625 C2.5 4.1875 2.5 4.1875 1.4375 6.0625 C0.1175 6.0625 -1.2025 6.0625 -2.5625 6.0625 C-2.94468767 4.40635343 -3.27645102 2.73792976 -3.5625 1.0625 C-2.5625 0.0625 -2.5625 0.0625 0 0 Z " fill="#D1D2D3" transform="translate(44.5625,16.9375)"/>
<path d="M0 0 C5.40049736 0.31767632 7.52337065 3.19996327 11 7 C10.67 7.66 10.34 8.32 10 9 C8.3278148 7.88321917 6.66237197 6.75633648 5 5.625 C3.6078125 4.68527344 3.6078125 4.68527344 2.1875 3.7265625 C1.465625 3.15679687 0.74375 2.58703125 0 2 C0 1.34 0 0.68 0 0 Z " fill="#A9BEE1" transform="translate(19,41)"/>
<path d="M0 0 C0.99 0.33 1.98 0.66 3 1 C1.02 3.97 1.02 3.97 -1 7 C-2.32 6.34 -3.64 5.68 -5 5 C-3.35 3.35 -1.7 1.7 0 0 Z " fill="#162239" transform="translate(18,6)"/>
<path d="M0 0 C1.98 0.495 1.98 0.495 4 1 C3.67 2.32 3.34 3.64 3 5 C1.68 4.67 0.36 4.34 -1 4 C-0.67 2.68 -0.34 1.36 0 0 Z " fill="#CACBCD" transform="translate(34,15)"/>
<path d="M0 0 C6.625 -0.25 6.625 -0.25 10 2 C2.25 3.125 2.25 3.125 0 2 C0 1.34 0 0.68 0 0 Z " fill="#B0C6E9" transform="translate(32,42)"/>
<path d="M0 0 C7.09821429 0.66964286 7.09821429 0.66964286 10 4 C8.51882199 3.71872579 7.04006751 3.42466268 5.5625 3.125 C4.73878906 2.96257813 3.91507813 2.80015625 3.06640625 2.6328125 C2.38449219 2.42398438 1.70257813 2.21515625 1 2 C0.67 1.34 0.34 0.68 0 0 Z " fill="#A6BBDE" transform="translate(13,44)"/>
<path d="M0 0 C2.64 0.66 5.28 1.32 8 2 C8 2.33 8 2.66 8 3 C5.69 3.66 3.38 4.32 1 5 C0.34 4.34 -0.32 3.68 -1 3 C-0.67 2.01 -0.34 1.02 0 0 Z " fill="#2F3A4E" transform="translate(41,25)"/>
</svg>
