<?xml version="1.0" encoding="UTF-8"?>
<svg version="1.1" xmlns="http://www.w3.org/2000/svg" width="1323" height="465">
<path d="M0 0 C66.66 0 133.32 0 202 0 C199.52404902 4.12658497 196.93730087 7.58973305 193.8125 11.1875 C192.82056772 12.34415513 191.82968987 13.50171531 190.83984375 14.66015625 C190.35499512 15.22750488 189.87014648 15.79485352 189.37060547 16.37939453 C186.82706185 19.3868834 184.38903676 22.47700215 181.94140625 25.5625 C179.91945301 28.10112942 177.87027731 30.6153333 175.8125 33.125 C175.07773438 34.02347656 174.34296875 34.92195313 173.5859375 35.84765625 C171.57826872 38.2995923 169.55910159 40.74184264 167.5390625 43.18359375 C166.33839771 44.64311075 165.13787639 46.10274579 163.9375 47.5625 C163.35266846 48.26584473 162.76783691 48.96918945 162.1652832 49.69384766 C161.62476318 50.35304199 161.08424316 51.01223633 160.52734375 51.69140625 C160.03999756 52.28123291 159.55265137 52.87105957 159.05053711 53.47875977 C157.81058393 54.96616418 157.81058393 54.96616418 158 57 C160.25689896 58.90923045 162.52143781 60.71755662 164.875 62.5 C166.16489701 63.48849533 167.45399374 64.47803604 168.7421875 65.46875 C169.3182373 65.90638672 169.89428711 66.34402344 170.48779297 66.79492188 C172 68 172 68 174 70 C173.47605588 74.54928425 170.37140225 77.34663688 167.4375 80.625 C166.32819364 81.89084724 165.2201217 83.15777729 164.11328125 84.42578125 C163.30431396 85.34931396 163.30431396 85.34931396 162.47900391 86.29150391 C160.6358656 88.42063594 158.87062206 90.60289997 157.125 92.8125 C153.49617229 97.40345948 149.78672939 101.9239226 146.0625 106.4375 C145.44906738 107.18104736 144.83563477 107.92459473 144.20361328 108.69067383 C143.00572252 110.1425995 141.80780667 111.59450447 140.60986328 113.04638672 C138.56681111 115.52568661 136.532288 118.0118717 134.5 120.5 C127.74134329 128.77029712 120.93987962 137.00548082 114.14746094 145.24804688 C107.88874652 152.84341307 101.6333987 160.44121353 95.40625 168.0625 C91.66454358 172.63029745 87.90737457 177.18534249 84.15234375 181.7421875 C80.92805276 185.65590572 77.70843416 189.57325968 74.5 193.5 C70.0660312 198.92664838 65.60886462 204.33406281 61.15234375 209.7421875 C57.92805276 213.65590572 54.70843416 217.57325968 51.5 221.5 C44.74134329 229.77029712 37.93987962 238.00548082 31.14746094 246.24804688 C22.62790366 256.5859259 22.62790366 256.5859259 14.125 266.9375 C13.09052734 268.19820313 13.09052734 268.19820313 12.03515625 269.484375 C10.58835297 271.27274604 9.16056401 273.07657302 7.74609375 274.890625 C6.66521484 276.27507812 6.66521484 276.27507812 5.5625 277.6875 C4.92441406 278.51636719 4.28632812 279.34523438 3.62890625 280.19921875 C3.09136719 280.79347656 2.55382812 281.38773437 2 282 C1.34 282 0.68 282 0 282 C0 188.94 0 95.88 0 0 Z " fill="#E60012" transform="translate(0,0)"/>
<path d="M0 0 C0.33 0 0.66 0 1 0 C1 81.18 1 162.36 1 246 C-65.99 246 -132.98 246 -202 246 C-198.314627 241.08616934 -194.67960141 236.32372485 -190.6875 231.6875 C-185.71076102 225.85615235 -180.83706396 219.94792675 -176 214 C-170.07072299 206.73691587 -164.11610522 199.49505669 -158.15356445 192.25927734 C-154.92885454 188.34508068 -151.70883634 184.42723253 -148.5 180.5 C-144.0660312 175.07335162 -139.60886462 169.66593719 -135.15234375 164.2578125 C-131.92805276 160.34409428 -128.70843416 156.42674032 -125.5 152.5 C-121.0660312 147.07335162 -116.60886462 141.66593719 -112.15234375 136.2578125 C-108.92805276 132.34409428 -105.70843416 128.42674032 -102.5 124.5 C-95.74134329 116.22970288 -88.93987962 107.99451918 -82.14746094 99.75195312 C-75.88874652 92.15658693 -69.6333987 84.55878647 -63.40625 76.9375 C-59.66454358 72.36970255 -55.90737457 67.81465751 -52.15234375 63.2578125 C-48.92805276 59.34409428 -45.70843416 55.42674032 -42.5 51.5 C-38.0660312 46.07335162 -33.60886462 40.66593719 -29.15234375 35.2578125 C-25.92805276 31.34409428 -22.70843416 27.42674032 -19.5 23.5 C-15.50925071 18.61737871 -11.50638399 13.74479403 -7.5 8.875 C-6.87544922 8.11509766 -6.25089844 7.35519531 -5.60742188 6.57226562 C-5.02541016 5.86521484 -4.44339844 5.15816406 -3.84375 4.4296875 C-3.31974609 3.79272949 -2.79574219 3.15577148 -2.25585938 2.49951172 C-1 1 -1 1 0 0 Z " fill="#E60012" transform="translate(466,219)"/>
<path d="M0 0 C3.89997796 1.69316116 7.07319071 4.24822728 10.375 6.875 C10.98859375 7.3596875 11.6021875 7.844375 12.234375 8.34375 C17.17975446 12.27986834 21.97527603 16.37417787 26.74755859 20.51708984 C30.7417353 23.96817426 34.82717496 27.26792346 39 30.5 C43.78502185 34.20625577 48.42979213 38.03192419 53 42 C58.19347459 46.50692649 63.50161021 50.82213121 68.93017578 55.04223633 C74.36532919 59.26759982 79.69339905 63.61393187 85 68 C83.52748479 72.67893887 80.77852831 75.85381017 77.5625 79.4375 C73.39150851 84.18639995 69.36237202 88.99677746 65.5 94 C61.32030246 99.39824188 56.956049 104.59560424 52.48046875 109.75 C49.03057862 113.74367126 45.73137034 117.82808671 42.5 122 C38.31932828 127.39752429 33.95609601 132.5955501 29.48046875 137.75 C26.03057862 141.74367126 22.73137034 145.82808671 19.5 150 C15.31932828 155.39752429 10.95609601 160.5955501 6.48046875 165.75 C3.03057255 169.74367828 -0.2685087 173.82817385 -3.5 178 C-7.73039886 183.45885043 -12.13544941 188.7319214 -16.65356445 193.9543457 C-21.20669377 199.21948091 -25.61573508 204.59353852 -30 210 C-31.499145 211.83403254 -32.99915322 213.66735981 -34.5 215.5 C-36.78773657 218.29479162 -39.07395135 221.0907529 -41.35546875 223.890625 C-45.50880952 228.98316343 -49.69608667 234.03394616 -54 239 C-57.33312026 237.50505362 -59.8882925 235.58779967 -62.6875 233.25 C-64.13189453 232.05117188 -64.13189453 232.05117188 -65.60546875 230.828125 C-66.40863525 230.15813477 -66.40863525 230.15813477 -67.22802734 229.47460938 C-70.64000837 226.63520935 -74.07220386 223.82026681 -77.5 221 C-78.97919733 219.78128721 -80.45836456 218.56253789 -81.9375 217.34375 C-85.11992672 214.722928 -88.30747879 212.10852343 -91.5 209.5 C-96.17669893 205.67879477 -100.83913338 201.84048099 -105.5 198 C-107.68303249 196.20222256 -109.86616039 194.40456103 -112.04931641 192.60693359 C-113.71468258 191.2350387 -115.37894056 189.86179874 -117.04296875 188.48828125 C-124.2707946 182.54160622 -131.62394331 176.7608618 -139 171 C-137.47151508 165.92117354 -134.34894828 162.66613615 -130.875 158.8125 C-129.68868462 157.47130637 -128.50378618 156.12885807 -127.3203125 154.78515625 C-126.74700195 154.13562988 -126.17369141 153.48610352 -125.58300781 152.81689453 C-122.90787059 149.74651033 -120.38873202 146.55967897 -117.8671875 143.36328125 C-111.43374465 135.22053455 -104.75303364 127.26812877 -98.15380859 119.25952148 C-94.92898012 115.34527392 -91.70890886 111.42732129 -88.5 107.5 C-81.74134329 99.22970288 -74.93987962 90.99451918 -68.14746094 82.75195312 C-61.88874652 75.15658693 -55.6333987 67.55878647 -49.40625 59.9375 C-45.66454358 55.36970255 -41.90737457 50.81465751 -38.15234375 46.2578125 C-34.92805276 42.34409428 -31.70843416 38.42674032 -28.5 34.5 C-24.07558555 29.085045 -19.6284175 23.68895373 -15.1809082 18.29296875 C-10.96432697 13.1756746 -6.76249035 8.04675341 -2.57421875 2.90625 C-1 1 -1 1 0 0 Z " fill="#E60012" transform="translate(255,138)"/>
<path d="M0 0 C12.87 0 25.74 0 39 0 C40.05501709 3.1755249 41.11003418 6.3510498 42.19702148 9.62280273 C45.6747774 20.08914069 49.15581445 30.55438516 52.63848782 41.01908779 C54.75089654 47.36677203 56.86225645 53.71480036 58.97094727 60.0637207 C61.00427318 66.18535474 63.04048899 72.30602034 65.07875252 78.42601204 C65.85769741 80.76655547 66.63558233 83.10745193 67.41241264 85.44869804 C68.49670505 88.71599414 69.58468577 91.98203926 70.67358398 95.24780273 C70.99726456 96.226035 71.32094513 97.20426727 71.6544342 98.21214294 C71.95030426 99.09700378 72.24617432 99.98186462 72.55101013 100.89353943 C72.9367805 102.0536159 72.9367805 102.0536159 73.3303442 103.23712826 C73.86145894 104.9980994 73.86145894 104.9980994 75 106 C75.22978043 105.31874557 75.45956085 104.63749115 75.69630432 103.93559265 C95.2607816 45.94236252 95.2607816 45.94236252 104.75 18.6875 C105.06728058 17.77318207 105.38456116 16.85886414 105.7114563 15.9168396 C106.59082996 13.38481168 107.47424711 10.85423998 108.359375 8.32421875 C108.74382027 7.21626953 108.74382027 7.21626953 109.1360321 6.0859375 C110.88456417 1.11543583 110.88456417 1.11543583 112 0 C123.55 0 135.1 0 147 0 C147 50.82 147 101.64 147 154 C137.43 154 127.86 154 118 154 C117.67 125.29 117.34 96.58 117 67 C114.091875 75.435625 111.18375 83.87125 108.1875 92.5625 C96.93024198 125.16611342 96.93024198 125.16611342 92.06387329 138.92697144 C91.60586613 140.2221458 91.14880909 141.51765656 90.69271851 142.81350708 C90.07686827 144.56165417 89.4565609 146.30822927 88.8359375 148.0546875 C88.50126465 148.99812012 88.1665918 149.94155273 87.82177734 150.91357422 C87 153 87 153 86 154 C84.14630389 154.08737645 82.28932459 154.10698153 80.43359375 154.09765625 C79.30888672 154.09443359 78.18417969 154.09121094 77.02539062 154.08789062 C75.84138672 154.07951172 74.65738281 154.07113281 73.4375 154.0625 C72.24962891 154.05798828 71.06175781 154.05347656 69.83789062 154.04882812 C66.89187774 154.03699675 63.94596319 154.02051287 61 154 C58.25777362 147.3230495 55.76273675 140.60211656 53.4609375 133.76171875 C53.13517731 132.80143265 52.80941711 131.84114655 52.4737854 130.85176086 C51.43829693 127.79786717 50.40645616 124.74275769 49.375 121.6875 C43.31247394 103.76959666 37.16652121 85.8829115 31 68 C30.67 96.38 30.34 124.76 30 154 C20.1 154 10.2 154 0 154 C0 103.18 0 52.36 0 0 Z " fill="#231815" transform="translate(724,45)"/>
<path d="M0 0 C70.29 0 140.58 0 213 0 C213 54 213 54 201 68 C198.10665369 71.59315655 198.10665369 71.59315655 195.234375 75.203125 C192.31809735 78.85357046 189.34799775 82.45819103 186.375 86.0625 C185.7780835 86.78622803 185.18116699 87.50995605 184.56616211 88.25561523 C183.33384595 89.74917783 182.10134011 91.24258393 180.86865234 92.73583984 C176.09585938 98.51881371 171.33022477 104.30769027 166.56591797 110.09765625 C165.56022467 111.31941524 164.55407847 112.54080164 163.54736328 113.76171875 C162.2803047 115.29843222 161.01508267 116.83665947 159.75 118.375 C159.06421875 119.20773438 158.3784375 120.04046875 157.671875 120.8984375 C155.87415704 123.09785813 155.87415704 123.09785813 154 126 C149.93039841 124.63146141 147.41541717 122.81892472 144.3125 119.875 C140.18713462 116.05476519 135.95060763 112.49061129 131.5390625 109.0078125 C123.33993327 102.52419338 115.32627777 95.80094938 107.25952148 89.15380859 C103.34527392 85.92898012 99.42732129 82.70890886 95.5 79.5 C87.22970288 72.74134329 78.99451918 65.93987962 70.75195312 59.14746094 C63.15658693 52.88874652 55.55878647 46.6333987 47.9375 40.40625 C43.36970255 36.66454358 38.81465751 32.90737457 34.2578125 29.15234375 C30.34409428 25.92805276 26.42674032 22.70843416 22.5 19.5 C21.66855469 18.819375 20.83710938 18.13875 19.98046875 17.4375 C18.28317971 16.04941565 16.58523221 14.66213328 14.88525391 13.27734375 C12.52540384 11.35432014 10.16880914 9.42735995 7.8125 7.5 C7.04421875 6.87544922 6.2759375 6.25089844 5.484375 5.60742188 C4.77410156 5.02541016 4.06382812 4.44339844 3.33203125 3.84375 C2.68983643 3.31974609 2.0476416 2.79574219 1.38598633 2.25585938 C0.92861084 1.84142578 0.47123535 1.42699219 0 1 C0 0.67 0 0.34 0 0 Z " fill="#E60012" transform="translate(254,0)"/>
<path d="M0 0 C29 0 29 0 37.15625 7.859375 C39.08872986 10.59475708 39.08872986 10.59475708 40.39038086 13.05908203 C40.89761688 13.98577698 41.40485291 14.91247192 41.92745972 15.86724854 C42.44639801 16.81855652 42.9653363 17.7698645 43.5 18.75 C44.66183858 20.68862358 45.83469135 22.62068386 47.01782227 24.54638672 C49.48394228 28.58330322 51.89528774 32.64632697 54.27392578 36.73535156 C59.80511511 46.1530398 65.93696723 55.17625323 72.01464844 64.24621582 C75.06676257 68.81566781 78.07802331 73.41174379 81.08984375 78.0078125 C85.03424413 84.02276375 89.00993798 90.01490696 93 96 C93.33 64.32 93.66 32.64 94 0 C103.9 0 113.8 0 124 0 C124 50.82 124 101.64 124 154 C95 154 95 154 86.59765625 145.75390625 C84.60119629 142.91784668 84.60119629 142.91784668 83.25585938 140.38476562 C82.47311646 138.96031128 82.47311646 138.96031128 81.67456055 137.50708008 C80.87659058 136.04951294 80.87659058 136.04951294 80.0625 134.5625 C78.87714202 132.58799531 77.68101154 130.61992077 76.47460938 128.65820312 C74.05491346 124.69897736 71.68932978 120.71490869 69.36376953 116.69970703 C65.01918635 109.25271926 60.22213198 102.13441701 55.36764526 95.0138855 C53.23981525 91.88061247 51.15413362 88.72005218 49.0625 85.5625 C43.10618873 76.66480044 37.04625138 67.83682894 31 59 C30.67 90.35 30.34 121.7 30 154 C20.1 154 10.2 154 0 154 C0 103.18 0 52.36 0 0 Z " fill="#231815" transform="translate(910,45)"/>
<path d="M0 0 C37.95 0 75.9 0 115 0 C115 9.24 115 18.48 115 28 C87.28 28 59.56 28 31 28 C31 38.56 31 49.12 31 60 C57.07 60 83.14 60 110 60 C110 69.57 110 79.14 110 89 C83.93 89 57.86 89 31 89 C31 100.88 31 112.76 31 125 C59.71 125 88.42 125 118 125 C118 134.57 118 144.14 118 154 C79.06 154 40.12 154 0 154 C0 103.18 0 52.36 0 0 Z " fill="#231815" transform="translate(572,45)"/>
<path d="M0 0 C18.871875 -0.0928125 18.871875 -0.0928125 38.125 -0.1875 C44.04203857 -0.22846802 44.04203857 -0.22846802 50.07861328 -0.27026367 C54.96655273 -0.28381348 54.96655273 -0.28381348 57.26852417 -0.28633118 C58.84626824 -0.29088085 60.42400315 -0.30131053 62.00167847 -0.31672668 C78.20867839 -0.46691275 95.31180023 0.59398971 107.875 12.25 C116.71948438 22.00271994 119.38937817 31.69738072 119.42553711 44.61083984 C119.43734525 46.59894563 119.48697933 48.58671 119.53710938 50.57421875 C119.60461286 62.83530712 116.31920632 72.40346914 108.28125 81.74609375 C96.09030607 93.79091335 79.47067857 96.19478164 63.03125 96.09765625 C62.21366211 96.09664917 61.39607422 96.09564209 60.55371094 96.09460449 C57.53579277 96.08942147 54.51789479 96.07546071 51.5 96.0625 C44.735 96.041875 37.97 96.02125 31 96 C31 115.14 31 134.28 31 154 C20.77 154 10.54 154 0 154 C0 103.18 0 52.36 0 0 Z M31 28 C31 40.87 31 53.74 31 67 C36.79915313 67.09229421 42.5957146 67.1717905 48.39501953 67.21972656 C50.36385782 67.23972787 52.33263756 67.26693802 54.30126953 67.30175781 C57.14630658 67.35078531 59.99055215 67.37308382 62.8359375 67.390625 C64.13656631 67.42159271 64.13656631 67.42159271 65.46347046 67.45318604 C72.30230841 67.45564543 79.39267043 66.15650268 84.69491577 61.51690674 C89.3404562 56.15182742 89.40445365 51.1186723 89.34375 44.3046875 C88.68934689 38.013494 85.83073825 34.55214765 81.125 30.5625 C74.99057661 27.49528831 68.27910318 27.86104043 61.56640625 27.90234375 C60.68846909 27.9037587 59.81053192 27.90517365 58.9059906 27.90663147 C56.12479118 27.91219179 53.34367474 27.92473679 50.5625 27.9375 C48.66731888 27.94252013 46.77213648 27.94708214 44.87695312 27.95117188 C40.25124504 27.96129377 35.6257145 27.9808767 31 28 Z " fill="#231815" transform="translate(1204,45)"/>
<path d="M0 0 C12.89127348 10.03846255 19.29937295 26.88290726 21.35058594 42.70410156 C24.59941914 71.61582489 25.84760601 106.16086052 7.93359375 130.84765625 C-0.44594253 140.78617602 -10.09063197 146.34914764 -23 148 C-37.80392747 149.16786539 -50.48208674 146.19825238 -62.125 136.875 C-76.50195289 123.61276115 -80.71392443 102.72967519 -82 84 C-83.07966681 55.96841815 -83.01086847 26.936684 -64.25 4.25 C-47.75501989 -13.46567123 -18.94512184 -13.70111212 0 0 Z M-43.125 23 C-52.70817611 34.99151356 -52.35594877 52.25158612 -52.31567383 66.85498047 C-52.31252224 69.23321831 -52.3360398 71.61019666 -52.36132812 73.98828125 C-52.4194064 88.01667704 -52.38203268 106.0860659 -42.21484375 116.8984375 C-38.24179206 120.26328843 -34.4562851 121.99270497 -29.23046875 122.2265625 C-23.57953191 121.65256191 -19.49089464 118.83443365 -15.6875 114.75 C-2.50131334 97.91885117 -5.49609346 66.15203476 -7.8125 46.4375 C-9.00930429 37.44962891 -10.56580986 28.77662603 -17 22 C-25.82130545 15.29580786 -35.19845951 14.73658154 -43.125 23 Z " fill="#231815" transform="translate(787,274)"/>
<path d="M0 0 C8.4261079 6.69835707 14.60268497 16.08651002 16.75390625 26.75390625 C18.45399062 42.2705493 15.25567486 55.92807071 5.8125 68.4375 C-0.25103128 75.8850982 -6.59179374 83.07300274 -13.94921875 89.265625 C-16.29095977 91.24606883 -18.5480615 93.30669397 -20.8125 95.375 C-25.14671051 99.28977078 -29.61077978 103.00742622 -34.1640625 106.6640625 C-37.84408904 109.69526894 -41.41195236 112.86045832 -45 116 C-24.54 116.33 -4.08 116.66 17 117 C17 126.24 17 135.48 17 145 C-17.98 145 -52.96 145 -89 145 C-89 123.37161453 -79.96315027 109.84658719 -65.1875 94.9375 C-60.22438286 89.99884474 -55.08391372 85.43049485 -49.58984375 81.08203125 C-46.04283992 78.23051837 -42.69553927 75.18143492 -39.3359375 72.11328125 C-37.2382901 70.21557683 -35.09896218 68.3865007 -32.9375 66.5625 C-24.30954892 58.96293097 -15.52281676 50.00999914 -13.53125 38.2265625 C-13.34812614 33.14487526 -14.03599978 29.24840032 -17 25 C-22.03278066 20.18603589 -26.3131428 17.71788795 -33.3125 17.6875 C-40.10241728 17.84285477 -44.7954066 18.94237949 -49.8125 23.625 C-54.63369163 30.21558519 -55.51942051 38.06215253 -56 46 C-66.11126272 45.50100262 -75.99505172 44.61017136 -86 43 C-85.49212031 27.48427561 -81.86698819 13.0730455 -70.1875 2.125 C-51.04257156 -13.23503856 -20.0816701 -13.74961196 0 0 Z " fill="#231815" transform="translate(922,274)"/>
<path d="M0 0 C9.66016015 7.78505107 15.13594463 17.79043735 17 30 C18.3549789 44.49074656 14.1279815 57.68529904 5.1875 69.0625 C3.80391764 70.71864549 2.40808488 72.36463612 1 74 C0.00419922 75.17949219 0.00419922 75.17949219 -1.01171875 76.3828125 C-4.71089159 80.67065528 -8.55699142 84.53895571 -12.87890625 88.1953125 C-15.23964331 90.20389542 -17.52361435 92.28499067 -19.8125 94.375 C-24.11286824 98.25984186 -28.5422397 101.94566142 -33.06640625 105.56640625 C-37.13309882 108.93997412 -41.05080991 112.48960881 -45 116 C-24.54 116.33 -4.08 116.66 17 117 C17 126.24 17 135.48 17 145 C-17.98 145 -52.96 145 -89 145 C-89 125.8879062 -82.71843951 112.813586 -69.43945312 99.44970703 C-68.02207948 98.02223676 -66.62797824 96.57177961 -65.234375 95.12109375 C-60.07877736 89.82555846 -54.73124571 84.9957523 -48.9609375 80.3828125 C-25.92304904 63.16255993 -25.92304904 63.16255993 -13.72265625 38.55859375 C-13.52697146 33.3064139 -13.91419013 29.42299415 -17 25 C-22.03278066 20.18603589 -26.3131428 17.71788795 -33.3125 17.6875 C-39.26334403 17.83147203 -44.10816314 18.56544692 -48.75390625 22.4765625 C-55.09514999 29.16924866 -55.31346894 37.18349583 -56 46 C-66.11126272 45.50100262 -75.99505172 44.61017136 -86 43 C-85.49212031 27.48427561 -81.86698819 13.0730455 -70.1875 2.125 C-50.99398849 -13.27401692 -20.14491805 -13.6886115 0 0 Z " fill="#231815" transform="translate(661,274)"/>
<path d="M0 0 C6.5738481 4.82314076 10.78741176 10.2428388 14.21484375 17.625 C14.53582031 18.30046875 14.85679688 18.9759375 15.1875 19.671875 C19.06124856 29.25715051 18.49633694 40.65182867 14.5703125 50.10546875 C12.28659283 54.35042319 9.38933525 58.01357007 6.21484375 61.625 C6.87871094 62.181875 7.54257813 62.73875 8.2265625 63.3125 C17.56348177 71.38177913 23.20401493 78.97385932 24.39941406 91.56982422 C25.35110229 106.17036484 22.48001308 118.94128359 13.21484375 130.625 C3.22301191 141.58657636 -10.05720215 148.08685812 -24.8984375 148.90625 C-40.30134179 149.40205905 -53.66393567 146.1586049 -65.53515625 135.9375 C-74.68791651 127.17202156 -79.95852475 116.50457974 -81.02734375 103.73046875 C-81.0337587 101.69372208 -80.92528938 99.65693033 -80.78515625 97.625 C-71.52905553 95.53491274 -62.21056553 94.59012905 -52.78515625 93.625 C-52.42164063 94.84316406 -52.058125 96.06132812 -51.68359375 97.31640625 C-51.17668647 98.940387 -50.66882273 100.56406941 -50.16015625 102.1875 C-49.92425781 102.98736328 -49.68835938 103.78722656 -49.4453125 104.61132812 C-47.47128643 110.81179462 -44.65990886 116.48810563 -38.75585938 119.74414062 C-32.54545392 122.40755914 -27.07193708 122.26434328 -20.72265625 120.0625 C-14.27248986 117.26873492 -10.64554646 113.10369179 -7.91015625 106.6875 C-5.83956802 100.29086137 -6.21993595 94.63415425 -8.8046875 88.4453125 C-11.54778845 83.3525434 -16.26475874 79.96032319 -21.59765625 77.9375 C-30.249743 76.70148761 -38.37412671 78.78508729 -46.78515625 80.625 C-46.97472564 73.99007139 -46.24076993 67.68515881 -45.28515625 61.125 C-45.14207031 60.11179687 -44.99898437 59.09859375 -44.8515625 58.0546875 C-44.50100043 55.57738218 -44.14542778 53.10090863 -43.78515625 50.625 C-42.81835938 50.67140625 -41.8515625 50.7178125 -40.85546875 50.765625 C-32.88001516 50.98672668 -25.78540547 50.96180778 -18.78515625 46.625 C-13.91113453 41.6320997 -13.49081158 38.08672376 -13.5703125 31.3203125 C-13.95098776 26.54456832 -15.82616251 24.48809436 -19.28515625 21.375 C-24.14982485 17.96973198 -29.04758004 18.04613474 -34.78515625 18.625 C-39.83424548 19.91784638 -42.88583442 22.17793504 -45.59765625 26.625 C-48.26277665 32.0182673 -49.56496085 37.7621099 -50.78515625 43.625 C-60.25508522 43.0318511 -69.47338563 41.36072278 -78.78515625 39.625 C-81.32288755 33.06644769 -77.10406573 24.01971891 -74.6484375 17.69921875 C-68.91942125 5.4608219 -59.43883401 -2.2243344 -46.78515625 -6.8125 C-30.82197033 -11.20237613 -13.92117345 -9.02507193 0 0 Z " fill="#231815" transform="translate(1046.78515625,273.375)"/>
<path d="M0 0 C3.83947365 1.91973682 6.68616475 4.15010384 9.875 6.9375 C14.47213261 10.89666852 19.13979899 14.72417389 23.9375 18.4375 C29.35402644 22.64008109 34.57383345 27.0251103 39.74975586 31.51928711 C43.74347762 34.96929672 47.82799554 38.26855904 52 41.5 C57.39752429 45.68067172 62.5955501 50.04390399 67.75 54.51953125 C71.74367828 57.96942745 75.82817385 61.2685087 80 64.5 C85.45885043 68.73039886 90.7319214 73.13544941 95.9543457 77.65356445 C101.21948091 82.20669377 106.59353852 86.61573508 112 91 C113.83403254 92.499145 115.66735981 93.99915322 117.5 95.5 C120.29479162 97.78773657 123.0907529 100.07395135 125.890625 102.35546875 C136.61180124 111.09937888 136.61180124 111.09937888 141 115 C141 115.33 141 115.66 141 116 C94.47 116 47.94 116 0 116 C0 77.72 0 39.44 0 0 Z " fill="#E60012" transform="translate(0,349)"/>
<path d="M0 0 C9.9 0 19.8 0 30 0 C30 41.25 30 82.5 30 125 C53.1 125 76.2 125 100 125 C100 134.57 100 144.14 100 154 C67 154 34 154 0 154 C0 103.18 0 52.36 0 0 Z " fill="#231815" transform="translate(1073,45)"/>
</svg>
