<?xml version="1.0" encoding="UTF-8"?>
<svg version="1.1" xmlns="http://www.w3.org/2000/svg" width="420" height="505">
<path d="M0 0 C54.45 0 108.9 0 165 0 C165 12.21 165 24.42 165 37 C122.76 37 80.52 37 37 37 C37 151.18 37 265.36 37 383 C108.94 383 180.88 383 255 383 C255 340.76 255 298.52 255 255 C288.66 255 322.32 255 357 255 C357 267.54 357 280.08 357 293 C335.88 293 314.76 293 293 293 C293 335.24 293 377.48 293 421 C196.31 421 99.62 421 0 421 C0 282.07 0 143.14 0 0 Z " fill="#252161" transform="translate(0,0)"/>
<path d="M0 0 C54.78 0 109.56 0 166 0 C166 12.54 166 25.08 166 38 C123.76 38 81.52 38 38 38 C38 110.27 38 182.54 38 257 C67.7 257 97.4 257 128 257 C128 214.43 128 171.86 128 128 C170.24 128 212.48 128 256 128 C256 119.75 256 111.5 256 103 C253.14516968 103.00785522 253.14516968 103.00785522 250.23266602 103.01586914 C243.95820476 103.03196671 237.68374838 103.04347225 231.40927219 103.05181217 C227.60348423 103.0570402 223.79771852 103.06413638 219.99194336 103.07543945 C216.32207456 103.0862712 212.65222722 103.09227744 208.98234367 103.09487724 C207.57925008 103.09673097 206.17615771 103.1003506 204.7730732 103.10573006 C202.8143032 103.11294419 200.8555118 103.11340809 198.89672852 103.11352539 C197.77976089 103.115746 196.66279327 103.11796661 195.51197815 103.12025452 C193 103 193 103 192 102 C192 89.46 192 76.92 192 64 C225.66 64 259.32 64 294 64 C294 97.66 294 131.32 294 166 C251.43 166 208.86 166 165 166 C165 208.24 165 250.48 165 294 C110.55 294 56.1 294 0 294 C0 196.98 0 99.96 0 0 Z " fill="#2D3091" transform="translate(63,63)"/>
<path d="M0 0 C54.45 0 108.9 0 165 0 C165 118.14 165 236.28 165 358 C152.79 358 140.58 358 128 358 C128 252.4 128 146.8 128 38 C85.76 38 43.52 38 0 38 C0 25.46 0 12.92 0 0 Z " fill="#652C90" transform="translate(255,63)"/>
<path d="M0 0 C10.56 0 21.12 0 32 0 C32 52.8 32 105.6 32 160 C21.44 160 10.88 160 0 160 C0 107.2 0 54.4 0 0 Z " fill="#0E74BB" transform="translate(130,130)"/>
<path d="M0 0 C2.64 0 5.28 0 8 0 C7.67 6.27 7.34 12.54 7 19 C13.27 19 19.54 19 26 19 C26 12.73 26 6.46 26 0 C28.31 0 30.62 0 33 0 C33 15.18 33 30.36 33 46 C30.69 46 28.38 46 26 46 C26 39.07 26 32.14 26 25 C19.73 25 13.46 25 7 25 C7.33 31.93 7.66 38.86 8 46 C5.36 46 2.72 46 0 46 C0 30.82 0 15.64 0 0 Z " fill="#252161" transform="translate(387,459)"/>
<path d="M0 0 C3.3 0 6.6 0 10 0 C10.27674561 0.75506836 10.55349121 1.51013672 10.83862305 2.28808594 C12.11889157 5.7763847 13.40317453 9.26319299 14.6875 12.75 C15.12255859 13.93722656 15.55761719 15.12445313 16.00585938 16.34765625 C18.50820928 23.13180489 21.13140958 29.82853678 24.01367188 36.4609375 C25.26860844 39.69146726 25.76512734 42.555201 26 46 C23.36 46 20.72 46 18 46 C17.54625 44.80375 17.0925 43.6075 16.625 42.375 C16.36976563 41.70210938 16.11453125 41.02921875 15.8515625 40.3359375 C14.84573417 37.57683042 13.92867446 34.78602338 13 32 C7.06 31.67 1.12 31.34 -5 31 C-5.474375 32.918125 -5.94875 34.83625 -6.4375 36.8125 C-7.20682713 39.92325754 -7.98651324 42.95953973 -9 46 C-11.64 46 -14.28 46 -17 46 C-16.3969654 40.1252758 -14.15515418 35.13095823 -11.875 29.75 C-11.0598771 27.79482097 -10.24609616 25.83908197 -9.43359375 23.8828125 C-8.82233643 22.41376465 -8.82233643 22.41376465 -8.19873047 20.91503906 C-6.38630208 16.50762664 -4.65440195 12.07034002 -2.9375 7.625 C-2.6389209 6.8525293 -2.3403418 6.08005859 -2.03271484 5.28417969 C-1.35347543 3.52342893 -0.67645307 1.7618231 0 0 Z M4 8 C1.69 13.94 -0.62 19.88 -3 26 C1.62 26 6.24 26 11 26 C10.14491137 21.72455684 9.02456846 18.21621223 7.4375 14.1875 C6.75494141 12.44533203 6.75494141 12.44533203 6.05859375 10.66796875 C5.70925781 9.78753906 5.35992187 8.90710938 5 8 C4.67 8 4.34 8 4 8 Z " fill="#252161" transform="translate(161,459)"/>
<path d="M0 0 C0.04254356 1.99954746 0.04080783 4.00041636 0 6 C-0.33 6.33 -0.66 6.66 -1 7 C-3.04208321 6.99408092 -5.08409923 6.94473465 -7.125 6.875 C-12.68921635 6.85062227 -16.29346888 6.9958312 -21 10 C-25.05389005 14.48061532 -26.29073279 19.06504102 -26 25 C-25.25829783 27.86725132 -24.22144948 30.27522808 -23 33 C-22.67 33.99 -22.34 34.98 -22 36 C-19.15355078 37.81715285 -16.29176753 38.49273977 -13 39.125 C-12.154375 39.29257812 -11.30875 39.46015625 -10.4375 39.6328125 C-7.75160482 40.0993069 -7.75160482 40.0993069 -4 40 C-4.24556641 38.94232422 -4.24556641 38.94232422 -4.49609375 37.86328125 C-5.01699824 34.90341312 -5.09866732 32.18938727 -5.0625 29.1875 C-5.05347656 28.21167969 -5.04445313 27.23585938 -5.03515625 26.23046875 C-5.02355469 25.49441406 -5.01195313 24.75835937 -5 24 C-2.69 24 -0.38 24 2 24 C2 30.93 2 37.86 2 45 C-1.456602 46.728301 -5.31559235 46.26934206 -9.125 46.3125 C-9.95515625 46.34150391 -10.7853125 46.37050781 -11.640625 46.40039062 C-18.1933218 46.46715008 -23.61218231 45.13329813 -28.52734375 40.58740234 C-34.05821232 34.32910432 -34.44300853 28.5219106 -34.31640625 20.453125 C-33.76166763 14.39894056 -31.52192706 10.86013308 -27.75 6.25 C-18.81666772 -1.05909005 -11.02257972 -0.45092372 0 0 Z " fill="#252161" transform="translate(124,459)"/>
<path d="M0 0 C0.73154297 0.01353516 1.46308594 0.02707031 2.21679688 0.04101562 C3.99902422 0.07596126 5.78086573 0.12975195 7.5625 0.1875 C8.49673645 3.19781744 8.60699911 4.05400268 7.5625 7.1875 C6.27666016 7.13529297 6.27666016 7.13529297 4.96484375 7.08203125 C-4.20263525 6.76816641 -4.20263525 6.76816641 -12.4375 10.1875 C-16.21340085 14.95705897 -17.82385489 18.86467928 -17.7109375 24.99609375 C-17.01601246 30.56542153 -14.6904278 34.21021631 -10.3125 37.625 C-5.88957222 39.81237387 -1.30349906 39.92086991 3.5625 40.1875 C3.5625 34.9075 3.5625 29.6275 3.5625 24.1875 C5.8725 24.1875 8.1825 24.1875 10.5625 24.1875 C10.5625 31.1175 10.5625 38.0475 10.5625 45.1875 C6.66679113 46.48606962 2.93719608 46.45074136 -1.125 46.5 C-1.90294922 46.52900391 -2.68089844 46.55800781 -3.48242188 46.58789062 C-9.85670072 46.65700291 -15.19468487 45.18238082 -19.96704102 40.77490234 C-25.43175766 34.5813585 -25.93775043 28.77151167 -25.8203125 20.77734375 C-25.12658367 14.27186626 -22.59774175 9.40459022 -18.0625 4.75 C-11.79521192 1.01947138 -7.20409791 -0.25705381 0 0 Z " fill="#252161" transform="translate(25.4375,458.8125)"/>
<path d="M0 0 C8.91 0 17.82 0 27 0 C26.67 2.31 26.34 4.62 26 7 C19.73 6.67 13.46 6.34 7 6 C7 10.29 7 14.58 7 19 C12.28 18.67 17.56 18.34 23 18 C23 20.31 23 22.62 23 25 C17.72 25 12.44 25 7 25 C7 29.95 7 34.9 7 40 C9.3821875 39.7525 9.3821875 39.7525 11.8125 39.5 C17.55564285 38.97043748 23.23692963 38.89967576 29 39 C29.04254356 40.99954746 29.04080783 43.00041636 29 45 C28 46 28 46 25.31616211 46.11352539 C24.14835205 46.10828857 22.98054199 46.10305176 21.77734375 46.09765625 C20.64288818 46.09515869 19.50843262 46.09266113 18.33959961 46.09008789 C16.1605603 46.07643188 16.1605603 46.07643188 13.9375 46.0625 C7.0384375 46.0315625 7.0384375 46.0315625 0 46 C0 30.82 0 15.64 0 0 Z " fill="#252161" transform="translate(285,459)"/>
<path d="M0 0 C0.69738281 0.00451172 1.39476562 0.00902344 2.11328125 0.01367188 C3.82555803 0.0253998 5.53779033 0.04333347 7.25 0.0625 C6.92 2.3725 6.59 4.6825 6.25 7.0625 C5.45335937 7.02769531 4.65671875 6.99289062 3.8359375 6.95703125 C-4.4432684 6.6068371 -4.4432684 6.6068371 -11.75 10.0625 C-15.39816467 14.30225894 -17.0040693 18.47297548 -16.75 24.0625 C-15.61773734 30.05447407 -13.60481952 34.17864438 -8.75 38.0625 C-5.13132441 39.2687252 -1.82493749 39.17066918 1.9375 39.125 C2.63939453 39.12048828 3.34128906 39.11597656 4.06445312 39.11132812 C5.79300538 39.09956927 7.52151365 39.08163454 9.25 39.0625 C9.29254356 41.06204746 9.29080783 43.06291636 9.25 45.0625 C7.11880244 47.19369756 2.62026171 46.3401691 -0.3125 46.375 C-1.09947266 46.40400391 -1.88644531 46.43300781 -2.69726562 46.46289062 C-8.55708885 46.5256917 -12.87631088 45.37655153 -17.75 42.0625 C-19.80859375 40.02734375 -19.80859375 40.02734375 -21.1875 38 C-21.89712891 36.99259766 -21.89712891 36.99259766 -22.62109375 35.96484375 C-25.98271391 30.30010667 -25.26387365 23.41200729 -24.75 17.0625 C-23.84245319 14.02480446 -22.5725288 11.64285006 -20.75 9.0625 C-20.110625 8.134375 -19.47125 7.20625 -18.8125 6.25 C-13.25339052 0.35397479 -7.73098619 -0.09499321 0 0 Z " fill="#252161" transform="translate(356.75,458.9375)"/>
<path d="M0 0 C11.55 0 23.1 0 35 0 C35 1.98 35 3.96 35 6 C30.38 6 25.76 6 21 6 C21 19.2 21 32.4 21 46 C18.69 46 16.38 46 14 46 C14 32.8 14 19.6 14 6 C9.38 6 4.76 6 0 6 C0 4.02 0 2.04 0 0 Z " fill="#252161" transform="translate(230,459)"/>
<path d="M0 0 C2.31 0 4.62 0 7 0 C7 15.18 7 30.36 7 46 C4.69 46 2.38 46 0 46 C0 30.82 0 15.64 0 0 Z " fill="#252161" transform="translate(60,459)"/>
</svg>
