<?xml version="1.0" encoding="UTF-8"?>
<svg version="1.1" xmlns="http://www.w3.org/2000/svg" width="250" height="68">
<path d="M0 0 C5.36181018 4.19070817 8.41666831 8.79588139 9.47265625 15.5703125 C9.72758007 18.25390244 9.91269485 20.91983116 10.01171875 23.61328125 C9.02171875 23.61328125 8.03171875 23.61328125 7.01171875 23.61328125 C7.01171875 22.62328125 7.01171875 21.63328125 7.01171875 20.61328125 C6.35171875 20.61328125 5.69171875 20.61328125 5.01171875 20.61328125 C4.51671875 22.09828125 4.51671875 22.09828125 4.01171875 23.61328125 C3.35171875 23.61328125 2.69171875 23.61328125 2.01171875 23.61328125 C1.76421875 24.47953125 1.51671875 25.34578125 1.26171875 26.23828125 C-1.43983729 33.53248256 -6.11867775 37.79792692 -11.98828125 42.61328125 C-11.34890625 42.71640625 -10.70953125 42.81953125 -10.05078125 42.92578125 C-9.37015625 43.15265625 -8.68953125 43.37953125 -7.98828125 43.61328125 C-7.65828125 44.60328125 -7.32828125 45.59328125 -6.98828125 46.61328125 C-9.70483528 47.97155826 -11.89617531 47.74562575 -14.92578125 47.73828125 C-16.51712891 47.74214844 -16.51712891 47.74214844 -18.140625 47.74609375 C-20.98828125 47.61328125 -20.98828125 47.61328125 -23.98828125 46.61328125 C-23.65828125 45.29328125 -23.32828125 43.97328125 -22.98828125 42.61328125 C-21.66828125 42.61328125 -20.34828125 42.61328125 -18.98828125 42.61328125 C-19.49617188 42.22398438 -20.0040625 41.8346875 -20.52734375 41.43359375 C-25.43692721 37.44340794 -28.5813119 33.52041519 -31.56640625 27.9453125 C-33.09713043 25.43475663 -34.84120514 23.60896097 -36.98828125 21.61328125 C-37.31828125 22.27328125 -37.64828125 22.93328125 -37.98828125 23.61328125 C-38.64828125 23.61328125 -39.30828125 23.61328125 -39.98828125 23.61328125 C-40.7306292 15.85986936 -39.58018464 10.01111307 -34.98828125 3.61328125 C-31.39330243 0.10372767 -27.96256685 -2.4007245 -22.98828125 -3.38671875 C-22.98828125 -4.04671875 -22.98828125 -4.70671875 -22.98828125 -5.38671875 C-13.32465123 -7.72941694 -7.85892745 -5.4811773 0 0 Z " fill="#476A6E" transform="translate(48.98828125,18.38671875)"/>
<path d="M0 0 C2.31830344 1.90919107 2.82111836 2.81247746 3.125 5.75 C1.805 6.08 0.485 6.41 -0.875 6.75 C-0.875 6.09 -0.875 5.43 -0.875 4.75 C-1.865 4.75 -2.855 4.75 -3.875 4.75 C-3.875 5.41 -3.875 6.07 -3.875 6.75 C-3.215 7.08 -2.555 7.41 -1.875 7.75 C-4.00964912 10.20484649 -5.58220291 11.43134222 -8.875 11.75 C-10.875 9.75 -10.875 9.75 -11.875 6.75 C-11.545 6.09 -11.215 5.43 -10.875 4.75 C-13.63723278 7.51223278 -13.45356291 9.95706617 -13.875 13.75 C-11.895 13.75 -9.915 13.75 -7.875 13.75 C-7.875 19.03 -7.875 24.31 -7.875 29.75 C-18.625 35.75 -18.625 35.75 -20.875 35.75 C-23.875 30 -23.875 30 -23.875 27.75 C-24.865 28.08 -25.855 28.41 -26.875 28.75 C-27.535 28.09 -28.195 27.43 -28.875 26.75 C-29.205 27.41 -29.535 28.07 -29.875 28.75 C-30.535 28.75 -31.195 28.75 -31.875 28.75 C-32.61734795 20.99658811 -31.46690339 15.14783182 -26.875 8.75 C-23.28002118 5.24044642 -19.8492856 2.73599425 -14.875 1.75 C-14.875 1.09 -14.875 0.43 -14.875 -0.25 C-9.71820688 -1.50013166 -4.96462118 -2.15853095 0 0 Z " fill="#C78C03" transform="translate(40.875,13.25)"/>
<path d="M0 0 C-0.33 0.66 -0.66 1.32 -1 2 C-1.66 2 -2.32 2 -3 2 C-3 2.66 -3 3.32 -3 4 C-2.01 4.33 -1.02 4.66 0 5 C-0.66 7.64 -1.32 10.28 -2 13 C-4.375 12.75 -4.375 12.75 -7 12 C-7.6837045 10.67532254 -8.34964186 9.34136367 -9 8 C-11.53770003 6.71745356 -11.53770003 6.71745356 -14 6 C-13.67 5.01 -13.34 4.02 -13 3 C-25.66821886 -1.34338932 -37.27044976 -0.91678469 -50 3 C-49.67 3.99 -49.34 4.98 -49 6 C-49.825 6.45375 -50.65 6.9075 -51.5 7.375 C-52.325 7.91125 -53.15 8.4475 -54 9 C-54 9.66 -54 10.32 -54 11 C-57 13 -57 13 -60 13 C-60.33 11.02 -60.66 9.04 -61 7 C-61.66 7 -62.32 7 -63 7 C-63 6.34 -63 5.68 -63 5 C-62.01 4.34 -61.02 3.68 -60 3 C-60.99 2.34 -61.98 1.68 -63 1 C-63 0.34 -63 -0.32 -63 -1 C-60.83657484 -1.96624888 -58.66968741 -2.9229943 -56.5 -3.875 C-55.2934375 -4.40867187 -54.086875 -4.94234375 -52.84375 -5.4921875 C-35.27593991 -12.69384259 -15.87622772 -10.009818 0 0 Z " fill="#AB6805" transform="translate(65,11)"/>
<path d="M0 0 C1.32 0 2.64 0 4 0 C4.83698386 2.45714547 5.66972424 4.91558857 6.5 7.375 C6.73847656 8.07367188 6.97695312 8.77234375 7.22265625 9.4921875 C9 14.7734375 9 14.7734375 9 17 C10.32 16.67 11.64 16.34 13 16 C13 12.04 13 8.08 13 4 C12.34 3.67 11.68 3.34 11 3 C11 2.01 11 1.02 11 0 C12.98 0 14.96 0 17 0 C21.40774487 8.261959 21.40774487 8.261959 22 13 C22.66 13 23.32 13 24 13 C24.103125 12.34 24.20625 11.68 24.3125 11 C25.19213564 7.16158991 26.56969896 3.66903309 28 0 C30.31 0 32.62 0 35 0 C35 0.99 35 1.98 35 3 C34.01 3 33.02 3 32 3 C32 7.62 32 12.24 32 17 C32.99 17 33.98 17 35 17 C35 17.99 35 18.98 35 20 C32.03 20 29.06 20 26 20 C26 19.01 26 18.02 26 17 C26.66 17 27.32 17 28 17 C28 14.69 28 12.38 28 10 C26.68 13.3 25.36 16.6 24 20 C23.01 20 22.02 20 21 20 C19.68 16.7 18.36 13.4 17 10 C16.67 12.31 16.34 14.62 16 17 C16.99 17.33 17.98 17.66 19 18 C19 18.66 19 19.32 19 20 C13.72 20 8.44 20 3 20 C3 19.01 3 18.02 3 17 C3.66 17 4.32 17 5 17 C4.67 16.34 4.34 15.68 4 15 C0.97065509 14.34227572 0.97065509 14.34227572 -2 14 C-2 14.99 -2 15.98 -2 17 C-1.34 17 -0.68 17 0 17 C0 17.99 0 18.98 0 20 C-2.64 20 -5.28 20 -8 20 C-8 19.01 -8 18.02 -8 17 C-7.01 17 -6.02 17 -5 17 C-4.80664062 16.27554688 -4.61328125 15.55109375 -4.4140625 14.8046875 C-3.07139714 9.81954385 -1.71250514 4.87405309 0 0 Z M1 6 C0.67 7.65 0.34 9.3 0 11 C0.99 11 1.98 11 3 11 C2.67 9.35 2.34 7.7 2 6 C1.67 6 1.34 6 1 6 Z " fill="#D5B200" transform="translate(195,23)"/>
<path d="M0 0 C5.4611399 0.96891192 5.4611399 0.96891192 8 2 C9.5 4.625 9.5 4.625 10 7 C10.66 7 11.32 7 12 7 C11.63604661 13.23740806 11.05300371 18.48110868 8 24 C7.01 24.33 6.02 24.66 5 25 C4.34 25.66 3.68 26.32 3 27 C0.03 25.35 -2.94 23.7 -6 22 C-5.34 21.34 -4.68 20.68 -4 20 C-4 20.66 -4 21.32 -4 22 C-3.34 22 -2.68 22 -2 22 C-2 21.34 -2 20.68 -2 20 C-1.34 20 -0.68 20 0 20 C0.33 18.35 0.66 16.7 1 15 C0.01 14.34 -0.98 13.68 -2 13 C-1.67 11.02 -1.34 9.04 -1 7 C-1.66 6.67 -2.32 6.34 -3 6 C-2.34 6 -1.68 6 -1 6 C-0.67 4.02 -0.34 2.04 0 0 Z " fill="#7F987A" transform="translate(41,21)"/>
<path d="M0 0 C1.01111093 -3.04913228 1.01111093 -3.04913228 0 -6 C2.475 -5.01 2.475 -5.01 5 -4 C4.67 -3.34 4.34 -2.68 4 -2 C3.34 -2 2.68 -2 2 -2 C2 -1.34 2 -0.68 2 0 C2.99 0.33 3.98 0.66 5 1 C4.34 3.64 3.68 6.28 3 9 C0.625 8.75 0.625 8.75 -2 8 C-2.6837045 6.67532254 -3.34964186 5.34136367 -4 4 C-6.53770003 2.71745356 -6.53770003 2.71745356 -9 2 C-8.67 1.01 -8.34 0.02 -8 -1 C-20.66821886 -5.34338932 -32.27044976 -4.91678469 -45 -1 C-44.67 -0.01 -44.34 0.98 -44 2 C-44.825 2.45375 -45.65 2.9075 -46.5 3.375 C-47.325 3.91125 -48.15 4.4475 -49 5 C-49 5.66 -49 6.32 -49 7 C-52 9 -52 9 -55 9 C-55.33 7.02 -55.66 5.04 -56 3 C-56.66 3 -57.32 3 -58 3 C-58 2.34 -58 1.68 -58 1 C-55.6875 -0.6875 -55.6875 -0.6875 -53 -2 C-52.01 -1.67 -51.02 -1.34 -50 -1 C-47.61897078 -1.72294169 -47.61897078 -1.72294169 -45.125 -2.875 C-30.04193852 -9.47095655 -14.62961841 -5.92659724 0 0 Z " fill="#394B22" transform="translate(60,15)"/>
<path d="M0 0 C5.93484093 1.9200956 10.25924867 5.22649765 13.3125 10.625 C15.58146835 15.53952895 15.80345637 20.65401336 16 26 C15.01 26 14.02 26 13 26 C13 25.01 13 24.02 13 23 C12.34 23 11.68 23 11 23 C10.67 23.99 10.34 24.98 10 26 C9.34 26 8.68 26 8 26 C7.67 26.66 7.34 27.32 7 28 C7.847126 22.63486869 8.91681831 17.3212615 10 12 C9.34 12 8.68 12 8 12 C7.34 10.35 6.68 8.7 6 7 C3.69 6.67 1.38 6.34 -1 6 C-1.66 7.65 -2.32 9.3 -3 11 C-7.29 11 -11.58 11 -16 11 C-16 8.03 -16 5.06 -16 2 C-15.01 2 -14.02 2 -13 2 C-12.855625 2.598125 -12.71125 3.19625 -12.5625 3.8125 C-12.1127561 5.56150404 -11.57107659 7.28677023 -11 9 C-7.67098753 6.78065836 -7.24976756 5.65316671 -6 2 C-5.01 2 -4.02 2 -3 2 C-3 2.66 -3 3.32 -3 4 C-2.01 3.67 -1.02 3.34 0 3 C0 2.01 0 1.02 0 0 Z " fill="#593B00" transform="translate(43,16)"/>
<path d="M0 0 C2.7578125 -0.3125 2.7578125 -0.3125 6 0 C8.1171875 2.1875 8.1171875 2.1875 9.875 5 C10.47054687 5.928125 11.06609375 6.85625 11.6796875 7.8125 C12.11539063 8.534375 12.55109375 9.25625 13 10 C13.33 7.69 13.66 5.38 14 3 C13.01 2.67 12.02 2.34 11 2 C11 1.34 11 0.68 11 0 C13.64 0 16.28 0 19 0 C19 0.99 19 1.98 19 3 C18.34 3 17.68 3 17 3 C17 8.61 17 14.22 17 20 C12.79547321 17.89773661 11.77628482 16.66442723 9.25 12.875 C8.63640625 11.96492188 8.0228125 11.05484375 7.390625 10.1171875 C6.70226562 9.06917969 6.70226562 9.06917969 6 8 C5.67 10.97 5.34 13.94 5 17 C5.99 17 6.98 17 8 17 C8 17.99 8 18.98 8 20 C5.36 20 2.72 20 0 20 C0 19.01 0 18.02 0 17 C0.66 17 1.32 17 2 17 C2 12.38 2 7.76 2 3 C1.34 3 0.68 3 0 3 C0 2.01 0 1.02 0 0 Z " fill="#D8B601" transform="translate(74,23)"/>
<path d="M0 0 C2.06132142 -0.10864945 4.12431321 -0.18588321 6.1875 -0.25 C7.33605469 -0.29640625 8.48460937 -0.3428125 9.66796875 -0.390625 C13.68720957 0.08056384 15.24055185 1.07912161 18 4 C19.53117048 8.11502066 19.44573767 11.89738576 17.8125 15.9375 C15.10556337 19.01780719 13.10051564 19.92872308 8.984375 20.1953125 C7.91703125 20.17210938 6.8496875 20.14890625 5.75 20.125 C4.67234375 20.10695313 3.5946875 20.08890625 2.484375 20.0703125 C1.66453125 20.04710938 0.8446875 20.02390625 0 20 C0.495 18.515 0.495 18.515 1 17 C1.66 17 2.32 17 3 17 C3 12.38 3 7.76 3 3 C2.01 2.67 1.02 2.34 0 2 C0 1.34 0 0.68 0 0 Z M7 3 C7 7.62 7 12.24 7 17 C8.65 17 10.3 17 12 17 C14.63326457 14.36673543 14.71180635 12.67446899 15 9 C14.01200217 5.70372434 14.01200217 5.70372434 12 3 C10.35 3 8.7 3 7 3 Z " fill="#D7B501" transform="translate(170,23)"/>
<path d="M0 0 C1.7492214 -0.08142927 3.49954542 -0.13938541 5.25 -0.1875 C6.22453125 -0.22230469 7.1990625 -0.25710937 8.203125 -0.29296875 C11.41038832 0.0429876 12.72441225 0.75112102 15 3 C15.561068 6.7404533 15.14762184 7.77856724 13 11 C13.80404463 14.1628485 13.80404463 14.1628485 15 17 C15.66 17 16.32 17 17 17 C17 17.99 17 18.98 17 20 C15.35 20 13.7 20 12 20 C10.23537317 16.91190305 10 15.76687864 10 12 C8.68 11.67 7.36 11.34 6 11 C6 12.98 6 14.96 6 17 C6.99 17 7.98 17 9 17 C9 17.99 9 18.98 9 20 C6.03 20 3.06 20 0 20 C0 19.01 0 18.02 0 17 C0.66 17 1.32 17 2 17 C2 12.38 2 7.76 2 3 C1.34 3 0.68 3 0 3 C0 2.01 0 1.02 0 0 Z M6 3 C6 4.98 6 6.96 6 9 C7.65 8.67 9.3 8.34 11 8 C11 6.35 11 4.7 11 3 C9.35 3 7.7 3 6 3 Z " fill="#D7B401" transform="translate(130,23)"/>
<path d="M0 0 C2.47923801 -0.02685095 4.9581884 -0.04676547 7.4375 -0.0625 C8.14455078 -0.07087891 8.85160156 -0.07925781 9.58007812 -0.08789062 C11.38693559 -0.09653588 13.19387603 -0.05220011 15 0 C16 1 16 1 16.0625 3.5625 C16.041875 4.366875 16.02125 5.17125 16 6 C14.68 6 13.36 6 12 6 C12 8.64 12 11.28 12 14 C10 14 10 14 8.375 12.5 C7.92125 12.005 7.4675 11.51 7 11 C7 12.98 7 14.96 7 17 C9.47266765 16.65555119 9.47266765 16.65555119 12 16 C12.33 15.34 12.66 14.68 13 14 C13.99 14 14.98 14 16 14 C16 15.98 16 17.96 16 20 C10.72 20 5.44 20 0 20 C0 19.01 0 18.02 0 17 C0.99 17 1.98 17 3 17 C3 12.38 3 7.76 3 3 C2.01 3 1.02 3 0 3 C0 2.01 0 1.02 0 0 Z M7 3 C7 4.98 7 6.96 7 9 C7.99 8.67 8.98 8.34 10 8 C10 7.34 10 6.68 10 6 C10.66 6 11.32 6 12 6 C12 5.01 12 4.02 12 3 C10.35 3 8.7 3 7 3 Z " fill="#D7B401" transform="translate(231,23)"/>
<path d="M0 0 C4.95 0 9.9 0 15 0 C15.33 1.98 15.66 3.96 16 6 C15.01 6 14.02 6 13 6 C13 8.64 13 11.28 13 14 C13.99 14 14.98 14 16 14 C16 15.98 16 17.96 16 20 C11.05 20 6.1 20 1 20 C1 19.01 1 18.02 1 17 C1.66 17 2.32 17 3 17 C3 12.38 3 7.76 3 3 C2.01 2.67 1.02 2.34 0 2 C0 1.34 0 0.68 0 0 Z M7 3 C7 4.98 7 6.96 7 9 C7.99 9 8.98 9 10 9 C10 8.01 10 7.02 10 6 C10.99 5.67 11.98 5.34 13 5 C12.67 4.34 12.34 3.68 12 3 C10.35 3 8.7 3 7 3 Z M7 11 C7 12.98 7 14.96 7 17 C8.98 17 10.96 17 13 17 C13 16.01 13 15.02 13 14 C12.01 14 11.02 14 10 14 C10 13.01 10 12.02 10 11 C9.01 11 8.02 11 7 11 Z " fill="#D7B401" transform="translate(147,23)"/>
<path d="M0 0 C2.75935615 0.82335627 4.45988427 2.38931864 6.0859375 4.734375 C7.63764677 8.0940391 7.80497664 10.994451 6.9375 14.578125 C5.5921856 17.4909158 4.5372992 18.41162567 1.9375 20.578125 C-0.94363838 21.43781952 -3.18136162 21.43781952 -6.0625 20.578125 C-9.14085765 18.01282696 -10.60624194 16.46299438 -11.5390625 12.609375 C-11.81239027 8.86910026 -11.20869836 6.17332264 -9.0625 3.078125 C-5.74569103 0.31411753 -4.20901584 -0.35075132 0 0 Z M-5.0625 3.578125 C-7.29400482 7.90986964 -7.04167594 10.86027729 -6.0625 15.578125 C-5.7325 16.238125 -5.4025 16.898125 -5.0625 17.578125 C-3.0825 17.578125 -1.1025 17.578125 0.9375 17.578125 C2.8134207 14.43721563 3.12007272 12.49928758 2.625 8.890625 C2.52574219 8.10300781 2.42648438 7.31539062 2.32421875 6.50390625 C2.122581 4.57852233 2.122581 4.57852233 0.9375 3.578125 C-1.06208364 3.53731717 -3.06295254 3.53558144 -5.0625 3.578125 Z " fill="#D7B502" transform="translate(105.0625,22.421875)"/>
<path d="M0 0 C0 0.66 0 1.32 0 2 C-0.99 2.495 -0.99 2.495 -2 3 C-1.67 4.32 -1.34 5.64 -1 7 C-4.75 10 -4.75 10 -7 10 C-7.144375 10.61875 -7.28875 11.2375 -7.4375 11.875 C-8 14 -8 14 -9 16 C-9.27175818 18.59248672 -9.44572568 21.18448511 -9.62109375 23.78515625 C-9.80865234 24.88150391 -9.80865234 24.88150391 -10 26 C-10.66 26.33 -11.32 26.66 -12 27 C-12.66 26.34 -13.32 25.68 -14 25 C-14.33 25.66 -14.66 26.32 -15 27 C-15.66 27 -16.32 27 -17 27 C-17.74132892 19.25723124 -16.60304811 13.3827469 -12 7 C-4.57403651 0 -4.57403651 0 0 0 Z " fill="#6C490B" transform="translate(26,15)"/>
<path d="M0 0 C2.86344088 -0.01676488 5.72291428 -0.00271779 8.5859375 0.04296875 C8.5859375 0.37296875 8.5859375 0.70296875 8.5859375 1.04296875 C7.64621094 1.13384766 7.64621094 1.13384766 6.6875 1.2265625 C5.87023438 1.31035156 5.05296875 1.39414063 4.2109375 1.48046875 C3.39882813 1.56167969 2.58671875 1.64289062 1.75 1.7265625 C-0.45679055 1.93386989 -0.45679055 1.93386989 -2.4140625 3.04296875 C-4.08025696 3.08264005 -5.74797263 3.08681322 -7.4140625 3.04296875 C-7.4140625 3.70296875 -7.4140625 4.36296875 -7.4140625 5.04296875 C-6.70894531 4.86894531 -6.00382812 4.69492188 -5.27734375 4.515625 C-2.21312446 4.0097989 0.31754451 4.14639602 3.3984375 4.48046875 C4.37425781 4.58230469 5.35007813 4.68414063 6.35546875 4.7890625 C7.09152344 4.87285156 7.82757813 4.95664063 8.5859375 5.04296875 C8.5859375 5.37296875 8.5859375 5.70296875 8.5859375 6.04296875 C7.18794922 6.08164063 7.18794922 6.08164063 5.76171875 6.12109375 C-3.23209592 6.52122302 -10.8564156 8.07928151 -19.4140625 11.04296875 C-22.84851989 12.17950709 -23.11309214 12.17609026 -26.6640625 10.60546875 C-27.5715625 10.08984375 -28.4790625 9.57421875 -29.4140625 9.04296875 C-29.4140625 8.38296875 -29.4140625 7.72296875 -29.4140625 7.04296875 C-19.24618949 2.1244858 -11.34233139 0.14275245 0 0 Z " fill="#C45D05" transform="translate(31.4140625,2.95703125)"/>
<path d="M0 0 C0.99 0.33 1.98 0.66 3 1 C2.67 1.99 2.34 2.98 2 4 C3.32 4 4.64 4 6 4 C5.67 2.68 5.34 1.36 5 0 C5.99 0.33 6.98 0.66 8 1 C8 2.32 8 3.64 8 5 C5.69 5.66 3.38 6.32 1 7 C1 7.66 1 8.32 1 9 C1.66 9.33 2.32 9.66 3 10 C3 11.65 3 13.3 3 15 C3.66 14.67 4.32 14.34 5 14 C5 13.01 5 12.02 5 11 C5.99 11.33 6.98 11.66 8 12 C8 12.99 8 13.98 8 15 C8.99 15 9.98 15 11 15 C11 13.35 11 11.7 11 10 C11.66 9.67 12.32 9.34 13 9 C12.87625 7.700625 12.7525 6.40125 12.625 5.0625 C12.55539063 4.33160156 12.48578125 3.60070312 12.4140625 2.84765625 C12.27742188 2.23792969 12.14078125 1.62820312 12 1 C11.34 0.67 10.68 0.34 10 0 C11.65 0 13.3 0 15 0 C15 4.95 15 9.9 15 15 C4.25 21 4.25 21 2 21 C-1.57603197 14.96544605 -3.07691974 10.05006757 -2 3 C-1.34 2.01 -0.68 1.02 0 0 Z " fill="#ECAAB1" transform="translate(18,28)"/>
<path d="M0 0 C5.28 0 10.56 0 16 0 C16 1.98 16 3.96 16 6 C15.01 6 14.02 6 13 6 C13 5.01 13 4.02 13 3 C12.01 3 11.02 3 10 3 C10 7.62 10 12.24 10 17 C10.99 17.33 11.98 17.66 13 18 C13 18.66 13 19.32 13 20 C9.7 20 6.4 20 3 20 C3 19.01 3 18.02 3 17 C3.99 17 4.98 17 6 17 C6 12.38 6 7.76 6 3 C5.01 3 4.02 3 3 3 C2.67 3.99 2.34 4.98 2 6 C1.01 6 0.02 6 -1 6 C-0.67 4.02 -0.34 2.04 0 0 Z " fill="#DAB801" transform="translate(113,23)"/>
<path d="M0 0 C4.62 0.66 9.24 1.32 14 2 C13.01 2.66 12.02 3.32 11 4 C11.66 6.64 12.32 9.28 13 12 C12.01 12.33 11.02 12.66 10 13 C10 14.65 10 16.3 10 18 C9.01 18 8.02 18 7 18 C6.34 17.01 5.68 16.02 5 15 C4.67 15.99 4.34 16.98 4 18 C3.34 18 2.68 18 2 18 C2 16.35 2 14.7 2 13 C1.01 12.67 0.02 12.34 -1 12 C-0.34 10.68 0.32 9.36 1 8 C2.98 8 4.96 8 7 8 C6.34 6.68 5.68 5.36 5 4 C5 4.99 5 5.98 5 7 C3.68 7 2.36 7 1 7 C0.67 4.69 0.34 2.38 0 0 Z " fill="#BD7682" transform="translate(19,25)"/>
<path d="M0 0 C2.31 0.33 4.62 0.66 7 1 C8.125 4.75 8.125 4.75 7 7 C7.99 7.66 8.98 8.32 10 9 C9.34 10.65 8.68 12.3 8 14 C7.34 14 6.68 14 6 14 C6 14.66 6 15.32 6 16 C3.03 15.505 3.03 15.505 0 15 C0 10.05 0 5.1 0 0 Z " fill="#6C8471" transform="translate(33,27)"/>
<path d="M0 0 C1.32 0.33 2.64 0.66 4 1 C4 1.99 4 2.98 4 4 C4.66 4.33 5.32 4.66 6 5 C5.34 5.66 4.68 6.32 4 7 C1.375 6.625 1.375 6.625 -1 6 C-1.66 7.65 -2.32 9.3 -3 11 C-7.29 11 -11.58 11 -16 11 C-16 8.03 -16 5.06 -16 2 C-15.01 2 -14.02 2 -13 2 C-12.855625 2.598125 -12.71125 3.19625 -12.5625 3.8125 C-12.1127561 5.56150404 -11.57107659 7.28677023 -11 9 C-7.67098753 6.78065836 -7.24976756 5.65316671 -6 2 C-5.01 2 -4.02 2 -3 2 C-3 2.66 -3 3.32 -3 4 C-2.01 3.67 -1.02 3.34 0 3 C0 2.01 0 1.02 0 0 Z " fill="#4D3C10" transform="translate(43,16)"/>
<path d="M0 0 C3.96 0 7.92 0 12 0 C12 3.96 12 7.92 12 12 C10.35 12 8.7 12 7 12 C7.33 10.35 7.66 8.7 8 7 C6.68 7 5.36 7 4 7 C4 7.99 4 8.98 4 10 C4.66 10 5.32 10 6 10 C6 10.66 6 11.32 6 12 C4.02 12 2.04 12 0 12 C0 11.34 0 10.68 0 10 C0.66 10 1.32 10 2 10 C2 7.69 2 5.38 2 3 C1.34 3 0.68 3 0 3 C0 2.01 0 1.02 0 0 Z M6 1 C6 1.66 6 2.32 6 3 C5.34 3 4.68 3 4 3 C4 3.66 4 4.32 4 5 C5.32 5 6.64 5 8 5 C7.34 3.68 6.68 2.36 6 1 Z " fill="#0088CC" transform="translate(195,49)"/>
<path d="M0 0 C3.3 0 6.6 0 10 0 C10 0.99 10 1.98 10 3 C9.01 3.495 9.01 3.495 8 4 C8.34444881 6.47266765 8.34444881 6.47266765 9 9 C9.66 9.33 10.32 9.66 11 10 C11 10.66 11 11.32 11 12 C7.37 12 3.74 12 0 12 C0 8.04 0 4.08 0 0 Z M4 3 C5 5 5 5 5 5 Z M4 7 C4 7.99 4 8.98 4 10 C4.66 9.67 5.32 9.34 6 9 C5.34 8.34 4.68 7.68 4 7 Z " fill="#0088CC" transform="translate(223,49)"/>
<path d="M0 0 C2.15377564 2.62198774 3.40072174 4.64404172 4 8 C5.051875 7.34 6.10375 6.68 7.1875 6 C10.26623937 4.2228415 12.38596328 3.56193494 16 4 C16 4.66 16 5.32 16 6 C15.01 6 14.02 6 13 6 C13.99 8.31 14.98 10.62 16 13 C15.01 13.495 15.01 13.495 14 14 C13.34 13.67 12.68 13.34 12 13 C11.67 13.99 11.34 14.98 11 16 C2.14089661 8.88746569 2.14089661 8.88746569 0 3 C0 2.01 0 1.02 0 0 Z " fill="#3A7F8C" transform="translate(16,41)"/>
<path d="M0 0 C6 0 6 0 8.9375 2.1875 C11 5 11 5 11 7.6875 C10 10 10 10 7 12 C4.66800612 12.07905064 2.33167378 12.08798769 0 12 C0 8.04 0 4.08 0 0 Z M4 3 C4 5.31 4 7.62 4 10 C4.99 9.67 5.98 9.34 7 9 C8.33333333 6 8.33333333 6 7 3 C6.01 3 5.02 3 4 3 Z " fill="#0088CC" transform="translate(182,49)"/>
<path d="M0 0 C6.75 -0.125 6.75 -0.125 9 1 C9 2.32 9 3.64 9 5 C8.34 5 7.68 5 7 5 C7 5.99 7 6.98 7 8 C7.66 8 8.32 8 9 8 C9 9.32 9 10.64 9 12 C6.03 12 3.06 12 0 12 C0 8.04 0 4.08 0 0 Z M4 3 C4.33 3.66 4.66 4.32 5 5 C5.33 4.34 5.66 3.68 6 3 C5.34 3 4.68 3 4 3 Z M4 7 C4 7.99 4 8.98 4 10 C4.99 10 5.98 10 7 10 C7 9.34 7 8.68 7 8 C6.01 7.67 5.02 7.34 4 7 Z " fill="#0088CC" transform="translate(149,49)"/>
<path d="M0 0 C2.475 0.99 2.475 0.99 5 2 C4.67 2.66 4.34 3.32 4 4 C3.34 4 2.68 4 2 4 C2 4.66 2 5.32 2 6 C2.99 6.33 3.98 6.66 5 7 C4.34 9.64 3.68 12.28 3 15 C0.625 14.75 0.625 14.75 -2 14 C-3.7941758 11.43689172 -4 10.16880694 -4 7 C-4.66 7 -5.32 7 -6 7 C-6 6.34 -6 5.68 -6 5 C-3.03 5.495 -3.03 5.495 0 6 C1.01111093 2.95086772 1.01111093 2.95086772 0 0 Z " fill="#314E34" transform="translate(60,9)"/>
<path d="M0 0 C2.64 0 5.28 0 8 0 C8.98120464 3.05263664 8.98120464 4.94736336 8 8 C8.66 8 9.32 8 10 8 C10 9.32 10 10.64 10 12 C7.03 12 4.06 12 1 12 C1.03255208 9.75390625 1.06510417 7.5078125 1.09765625 5.26171875 C1.09657855 2.83138666 1.09657855 2.83138666 0 0 Z M5 3 C5.33 3.66 5.66 4.32 6 5 C6.33 4.34 6.66 3.68 7 3 C6.34 3 5.68 3 5 3 Z M5 7 C5 7.99 5 8.98 5 10 C5.66 9.67 6.32 9.34 7 9 C6.34 8.34 5.68 7.68 5 7 Z " fill="#0088CC" transform="translate(123,49)"/>
<path d="M0 0 C2.00124361 0.32578384 4.00102872 0.66055205 6 1 C6.9075 1.103125 7.815 1.20625 8.75 1.3125 C11 2 11 2 12.3125 4.0625 C12.6528125 5.0215625 12.6528125 5.0215625 13 6 C12.01 7.485 12.01 7.485 11 9 C6.95295419 8.27595226 3.10929598 7.16553713 -0.8125 5.9375 C-1.97394531 5.57527344 -3.13539062 5.21304687 -4.33203125 4.83984375 C-5.21246094 4.56269531 -6.09289063 4.28554687 -7 4 C-7 3.67 -7 3.34 -7 3 C-4.69 3 -2.38 3 0 3 C0 2.01 0 1.02 0 0 Z " fill="#DBD20B" transform="translate(49,6)"/>
<path d="M0 0 C3.72433382 1.2125738 7.37802806 2.50859979 11 4 C9.25 9.75 9.25 9.75 7 12 C6.01 12 5.02 12 4 12 C3.67 11.34 3.34 10.68 3 10 C2.34 10 1.68 10 1 10 C1.33 9.01 1.66 8.02 2 7 C1.01 7.33 0.02 7.66 -1 8 C-0.67 5.36 -0.34 2.72 0 0 Z " fill="#36A1BB" transform="translate(35,45)"/>
<path d="M0 0 C2.4375 0.8125 2.4375 0.8125 4.4375 2.8125 C4.78240322 6.86511287 4.73913882 8.36004176 2.4375 11.8125 C-0.5625 12.125 -0.5625 12.125 -3.5625 11.8125 C-5.5625 9.8125 -5.5625 9.8125 -5.875 6.375 C-5.5625 2.8125 -5.5625 2.8125 -4.375 0.8125 C-2.5625 -0.1875 -2.5625 -0.1875 0 0 Z M-2.5625 2.8125 C-2.5625 4.7925 -2.5625 6.7725 -2.5625 8.8125 C-1.2425 8.8125 0.0775 8.8125 1.4375 8.8125 C1.4375 6.8325 1.4375 4.8525 1.4375 2.8125 C0.1175 2.8125 -1.2025 2.8125 -2.5625 2.8125 Z " fill="#0088CC" transform="translate(92.5625,49.1875)"/>
<path d="M0 0 C3.96 0 7.92 0 12 0 C13.4783226 2.95664519 13.06032783 5.74229737 13 9 C12.67 8.01 12.34 7.02 12 6 C8.37 6.66 4.74 7.32 1 8 C1.33 5.69 1.66 3.38 2 1 C1.34 0.67 0.68 0.34 0 0 Z " fill="#6AC7A5" transform="translate(38,27)"/>
<path d="M0 0 C0.86882813 0.05542969 1.73765625 0.11085937 2.6328125 0.16796875 C4.875 0.8125 4.875 0.8125 6.1796875 2.86328125 C6.52386719 3.82814453 6.52386719 3.82814453 6.875 4.8125 C4.15844597 6.17077701 1.96710594 5.9448445 -1.0625 5.9375 C-2.12339844 5.94007812 -3.18429688 5.94265625 -4.27734375 5.9453125 C-7.125 5.8125 -7.125 5.8125 -10.125 4.8125 C-9.795 3.4925 -9.465 2.1725 -9.125 0.8125 C-5.9545553 -0.15337966 -3.29851489 -0.2609273 0 0 Z " fill="#000506" transform="translate(35.125,60.1875)"/>
<path d="M0 0 C0 1.32 0 2.64 0 4 C-0.66 4 -1.32 4 -2 4 C-2.66 3.34 -3.32 2.68 -4 2 C-4.66 2 -5.32 2 -6 2 C-5.67 3.98 -5.34 5.96 -5 8 C-4.01 8.33 -3.02 8.66 -2 9 C-2 8.34 -2 7.68 -2 7 C-2.66 7 -3.32 7 -4 7 C-4 6.34 -4 5.68 -4 5 C-2.02 5 -0.04 5 2 5 C1.34 6.98 0.68 8.96 0 11 C-5.4 11.36 -5.4 11.36 -7.875 9.875 C-9.54663625 7.08893958 -9.46376624 5.18011138 -9 2 C-6.09797328 -1.3319566 -4.08536588 -1.24830624 0 0 Z " fill="#0088CC" transform="translate(145,50)"/>
<path d="M0 0 C0 0.33 0 0.66 0 1 C-0.93972656 1.09087891 -0.93972656 1.09087891 -1.8984375 1.18359375 C-2.71570313 1.26738281 -3.53296875 1.35117188 -4.375 1.4375 C-5.18710937 1.51871094 -5.99921875 1.59992187 -6.8359375 1.68359375 C-9.04272805 1.89090114 -9.04272805 1.89090114 -11 3 C-12.66619446 3.0396713 -14.33391013 3.04384447 -16 3 C-16 3.66 -16 4.32 -16 5 C-15.29488281 4.82597656 -14.58976562 4.65195313 -13.86328125 4.47265625 C-10.79906196 3.96683015 -8.26839299 4.10342727 -5.1875 4.4375 C-4.21167969 4.53933594 -3.23585938 4.64117188 -2.23046875 4.74609375 C-1.49441406 4.82988281 -0.75835937 4.91367188 0 5 C0 5.33 0 5.66 0 6 C-0.95519531 6.04898437 -1.91039063 6.09796875 -2.89453125 6.1484375 C-10.73815629 6.60200704 -18.29791643 7.35069728 -26 9 C-25.67 8.01 -25.34 7.02 -25 6 C-22.66666667 6 -20.33333333 6 -18 6 C-18 5.01 -18 4.02 -18 3 C-18.66 3 -19.32 3 -20 3 C-20.33 3.66 -20.66 4.32 -21 5 C-20.67 3.68 -20.34 2.36 -20 1 C-13.30324864 -0.03026944 -6.7685324 -0.10152799 0 0 Z " fill="#D2CC0B" transform="translate(40,3)"/>
<path d="M0 0 C0.99 0.33 1.98 0.66 3 1 C1.68 2.32 0.36 3.64 -1 5 C-0.01 4.67 0.98 4.34 2 4 C2 4.99 2 5.98 2 7 C2.66 7.33 3.32 7.66 4 8 C2.14757574 10.01350463 0.68657104 10.93746602 -2.05859375 11.1875 C-6.59729098 10.94257873 -9.30921422 10.1985133 -12.5625 6.9375 C-13.366875 5.968125 -14.17125 4.99875 -15 4 C-14.67 3.34 -14.34 2.68 -14 2 C-12.68 3.32 -11.36 4.64 -10 6 C-9.34 5.34 -8.68 4.68 -8 4 C-7.67 4.66 -7.34 5.32 -7 6 C-6.01 6 -5.02 6 -4 6 C-4 7.32 -4 8.64 -4 10 C-3.34 10 -2.68 10 -2 10 C-2.04125 8.72125 -2.0825 7.4425 -2.125 6.125 C-2.1953125 3.9453125 -2.1953125 3.9453125 -2 2 C-1.34 1.34 -0.68 0.68 0 0 Z " fill="#2A616F" transform="translate(37,50)"/>
<path d="M0 0 C0.66 0 1.32 0 2 0 C2.50403768 1.29009643 3.00309926 2.58213789 3.5 3.875 C3.7784375 4.59429687 4.056875 5.31359375 4.34375 6.0546875 C5 8 5 8 5 10 C5.66 10 6.32 10 7 10 C7 10.66 7 11.32 7 12 C5.02 12 3.04 12 1 12 C0.67 11.34 0.34 10.68 0 10 C0 10.66 0 11.32 0 12 C-1.65 12 -3.3 12 -5 12 C-5 11.34 -5 10.68 -5 10 C-4.34 10 -3.68 10 -3 10 C-2.01 6.7 -1.02 3.4 0 0 Z " fill="#0088CC" transform="translate(214,49)"/>
<path d="M0 0 C0.99 0.33 1.98 0.66 3 1 C3.73046875 3.06640625 3.73046875 3.06640625 4.1875 5.5625 C4.34605469 6.38878906 4.50460938 7.21507812 4.66796875 8.06640625 C4.77753906 8.70449219 4.88710937 9.34257813 5 10 C5.66 10 6.32 10 7 10 C7 10.66 7 11.32 7 12 C5.02 12 3.04 12 1 12 C0.67 11.34 0.34 10.68 0 10 C0 10.66 0 11.32 0 12 C-1.32 12 -2.64 12 -4 12 C-2.66666667 8 -1.33333333 4 0 0 Z " fill="#0088CC" transform="translate(240,49)"/>
<path d="M0 0 C0.928125 0.20625 1.85625 0.4125 2.8125 0.625 C2.8125 1.945 2.8125 3.265 2.8125 4.625 C1.8225 4.625 0.8325 4.625 -0.1875 4.625 C-0.5175 3.965 -0.8475 3.305 -1.1875 2.625 C-2.1775 3.12 -2.1775 3.12 -3.1875 3.625 C-3.1875 5.605 -3.1875 7.585 -3.1875 9.625 C-2.1975 9.625 -1.2075 9.625 -0.1875 9.625 C-0.1875 8.965 -0.1875 8.305 -0.1875 7.625 C0.8025 7.625 1.7925 7.625 2.8125 7.625 C2.4825 8.945 2.1525 10.265 1.8125 11.625 C-1 11.875 -1 11.875 -4.1875 11.625 C-6.125 10 -6.125 10 -7.1875 7.625 C-7.0625 4.5 -7.0625 4.5 -6.1875 1.625 C-3.1875 -0.375 -3.1875 -0.375 0 0 Z " fill="#0088CC" transform="translate(81.1875,49.375)"/>
<path d="M0 0 C1.0209375 0.7425 1.0209375 0.7425 2.0625 1.5 C-1.46429099 3.85119399 -2.96629485 3.71443452 -7.125 3.625 C-8.21167969 3.60695313 -9.29835938 3.58890625 -10.41796875 3.5703125 C-11.66513672 3.53550781 -11.66513672 3.53550781 -12.9375 3.5 C-12.9375 2.84 -12.9375 2.18 -12.9375 1.5 C-13.5975 1.5 -14.2575 1.5 -14.9375 1.5 C-14.9375 0.84 -14.9375 0.18 -14.9375 -0.5 C-9.69623658 -1.77060931 -4.9227305 -2.51373472 0 0 Z " fill="#5A3B00" transform="translate(40.9375,13.5)"/>
<path d="M0 0 C-0.33 0.99 -0.66 1.98 -1 3 C-0.34 3 0.32 3 1 3 C1 3.66 1 4.32 1 5 C-1.475 4.505 -1.475 4.505 -4 4 C-3.67 3.01 -3.34 2.02 -3 1 C-14.75827942 -3.03141009 -25.68023592 -3.17990111 -37.57421875 0.44140625 C-40 1 -40 1 -43 0 C-28.29549103 -5.72836523 -14.70450897 -5.72836523 0 0 Z " fill="#171B03" transform="translate(55,13)"/>
<path d="M0 0 C1.65 0 3.3 0 5 0 C4.67 3.3 4.34 6.6 4 10 C4.66 10 5.32 10 6 10 C6 9.34 6 8.68 6 8 C6.99 8 7.98 8 9 8 C9 9.32 9 10.64 9 12 C6.03 12 3.06 12 0 12 C0 8.04 0 4.08 0 0 Z " fill="#0088CC" transform="translate(112,49)"/>
<path d="M0 0 C1.98 0 3.96 0 6 0 C6 0.99 6 1.98 6 3 C5.34 3 4.68 3 4 3 C4 5.31 4 7.62 4 10 C4.99 10 5.98 10 7 10 C7 9.34 7 8.68 7 8 C7.66 8 8.32 8 9 8 C9 9.32 9 10.64 9 12 C6.03 12 3.06 12 0 12 C0 8.04 0 4.08 0 0 Z " fill="#0088CC" transform="translate(100,49)"/>
<path d="M0 0 C5.4611399 0.96891192 5.4611399 0.96891192 8 2 C9.5 4.625 9.5 4.625 10 7 C10.66 7 11.32 7 12 7 C12 8.65 12 10.3 12 12 C9 8.25 9 8.25 9 6 C5.7 6 2.4 6 -1 6 C-0.67 4.02 -0.34 2.04 0 0 Z " fill="#B38D2C" transform="translate(41,21)"/>
<path d="M0 0 C0.33 0.66 0.66 1.32 1 2 C0.67 2.66 0.34 3.32 0 4 C0.99 4 1.98 4 3 4 C2.67 5.98 2.34 7.96 2 10 C1.34 10 0.68 10 0 10 C-0.33 11.32 -0.66 12.64 -1 14 C-1.66 14 -2.32 14 -3 14 C-3.02708567 12.39592672 -3.04643483 10.7917215 -3.0625 9.1875 C-3.07410156 8.29417969 -3.08570313 7.40085937 -3.09765625 6.48046875 C-3 4 -3 4 -2 1 C-1.34 0.67 -0.68 0.34 0 0 Z " fill="#A06E00" transform="translate(12,28)"/>
<path d="M0 0 C4.62 0.66 9.24 1.32 14 2 C12.02 2.99 12.02 2.99 10 4 C10 4.99 10 5.98 10 7 C8.0625 6.625 8.0625 6.625 6 6 C5.67 5.34 5.34 4.68 5 4 C5 4.99 5 5.98 5 7 C3.68 7 2.36 7 1 7 C0.67 4.69 0.34 2.38 0 0 Z " fill="#985E5E" transform="translate(19,25)"/>
<path d="M0 0 C2.31 0 4.62 0 7 0 C7 0.66 7 1.32 7 2 C7.66 2.33 8.32 2.66 9 3 C6.86535088 5.45484649 5.29279709 6.68134222 2 7 C0 5 0 5 -1 2 C-0.67 1.34 -0.34 0.68 0 0 Z " fill="#BCBC93" transform="translate(30,18)"/>
<path d="M0 0 C0.66 0.99 1.32 1.98 2 3 C2.99 3.66 3.98 4.32 5 5 C3.68 5 2.36 5 1 5 C1.165 5.515625 1.33 6.03125 1.5 6.5625 C2.15049 9.73363876 2.0620734 12.77218334 2 16 C1.34 16 0.68 16 0 16 C0 14.68 0 13.36 0 12 C-1.32 12.33 -2.64 12.66 -4 13 C-3 10 -3 10 -2 8 C-1.34 8 -0.68 8 0 8 C0 7.01 0 6.02 0 5 C-0.99 4.67 -1.98 4.34 -3 4 C-2.01 4 -1.02 4 0 4 C0 2.68 0 1.36 0 0 Z " fill="#63232A" transform="translate(33,44)"/>
<path d="M0 0 C0.33 0.99 0.66 1.98 1 3 C1.99 2.01 2.98 1.02 4 0 C4 2.31 4 4.62 4 7 C3.01 7 2.02 7 1 7 C0.67 7.99 0.34 8.98 0 10 C-0.66 10 -1.32 10 -2 10 C-2.33 10.66 -2.66 11.32 -3 12 C-2.40075776 7.80530429 -1.42500059 3.99000166 0 0 Z " fill="#C28600" transform="translate(53,32)"/>
<path d="M0 0 C1.65 0 3.3 0 5 0 C5 4.95 5 9.9 5 15 C4.01 14.67 3.02 14.34 2 14 C1.3125 11.9375 1.3125 11.9375 1 10 C1.66 9.67 2.32 9.34 3 9 C2.87625 7.700625 2.7525 6.40125 2.625 5.0625 C2.55539063 4.33160156 2.48578125 3.60070312 2.4140625 2.84765625 C2.27742188 2.23792969 2.14078125 1.62820312 2 1 C1.34 0.67 0.68 0.34 0 0 Z " fill="#F6B0BA" transform="translate(28,28)"/>
<path d="M0 0 C0.8971875 0.5259375 0.8971875 0.5259375 1.8125 1.0625 C4.10813214 2.33304698 4.10813214 2.33304698 7 1 C7 2.32 7 3.64 7 5 C6.01 5 5.02 5 4 5 C4.33 6.32 4.66 7.64 5 9 C4.01 9.33 3.02 9.66 2 10 C2 8.35 2 6.7 2 5 C1.01 4.67 0.02 4.34 -1 4 C-0.67 2.68 -0.34 1.36 0 0 Z " fill="#87394A" transform="translate(19,33)"/>
<path d="M0 0 C0.99 0 1.98 0 3 0 C3.144375 0.598125 3.28875 1.19625 3.4375 1.8125 C3.8872439 3.56150404 4.42892341 5.28677023 5 7 C8.04134491 5.33075929 8.04134491 5.33075929 9 3 C9.99 3 10.98 3 12 3 C11.67 4.65 11.34 6.3 11 8 C8.03 8 5.06 8 2 8 C0 1.125 0 1.125 0 0 Z " fill="#5C5A53" transform="translate(27,18)"/>
<path d="M0 0 C3.96 0.99 3.96 0.99 8 2 C7.34 3.32 6.68 4.64 6 6 C3.6568787 5.74438677 1.32156597 5.40729228 -1 5 C-1.33 4.34 -1.66 3.68 -2 3 C-1.34 2.01 -0.68 1.02 0 0 Z " fill="#E07306" transform="translate(52,6)"/>
<path d="M0 0 C3.96 0 7.92 0 12 0 C12 0.99 12 1.98 12 3 C10.34385343 3.38218767 8.67542976 3.71395102 7 4 C6.67 3.67 6.34 3.34 6 3 C5.67 3.66 5.34 4.32 5 5 C4.34 5 3.68 5 3 5 C2.87625 4.360625 2.7525 3.72125 2.625 3.0625 C2.315625 2.0415625 2.315625 2.0415625 2 1 C1.34 0.67 0.68 0.34 0 0 Z " fill="#44B0C6" transform="translate(38,27)"/>
<path d="M0 0 C2.31 0.33 4.62 0.66 7 1 C6.38722388 3.96175123 5.74627478 5.38058783 4 8 C4 7.01 4 6.02 4 5 C3.01 5.33 2.02 5.66 1 6 C0.67 4.02 0.34 2.04 0 0 Z " fill="#4AA44C" transform="translate(33,27)"/>
<path d="M0 0 C2.31 0 4.62 0 7 0 C7 0.66 7 1.32 7 2 C6.34 2 5.68 2 5 2 C4.34 3.32 3.68 4.64 3 6 C2.01 6 1.02 6 0 6 C0 4.02 0 2.04 0 0 Z " fill="#A68916" transform="translate(33,36)"/>
<path d="M0 0 C1.65 0.33 3.3 0.66 5 1 C4.6875 2.9375 4.6875 2.9375 4 5 C3.01 5.33 2.02 5.66 1 6 C0.34 6.66 -0.32 7.32 -1 8 C-1.99 7.01 -2.98 6.02 -4 5 C-2.66666667 4.33333333 -1.33333333 3.66666667 0 3 C0 2.01 0 1.02 0 0 Z " fill="#9ED298" transform="translate(45,40)"/>
<path d="M0 0 C0.33 0.66 0.66 1.32 1 2 C1.66 2 2.32 2 3 2 C3 1.34 3 0.68 3 0 C4.98 0 6.96 0 9 0 C8.67 1.65 8.34 3.3 8 5 C5.36 4.34 2.72 3.68 0 3 C0 2.01 0 1.02 0 0 Z " fill="#75A599" transform="translate(36,41)"/>
<path d="M0 0 C1.98 0.66 3.96 1.32 6 2 C6 2.99 6 3.98 6 5 C4.824375 5.4640625 4.824375 5.4640625 3.625 5.9375 C1.07669872 6.92875038 1.07669872 6.92875038 -1 8 C-0.67 5.36 -0.34 2.72 0 0 Z " fill="#6EA8A7" transform="translate(35,45)"/>
<path d="M0 0 C2.475 0.99 2.475 0.99 5 2 C4.67 2.66 4.34 3.32 4 4 C3.34 4 2.68 4 2 4 C2 4.66 2 5.32 2 6 C2.99 6.33 3.98 6.66 5 7 C4.67 8.65 4.34 10.3 4 12 C3.67 12 3.34 12 3 12 C3 10.35 3 8.7 3 7 C2.01 6.67 1.02 6.34 0 6 C0.185625 5.38125 0.37125 4.7625 0.5625 4.125 C1.23686176 1.95839822 1.23686176 1.95839822 0 0 Z " fill="#1E2101" transform="translate(60,9)"/>
<path d="M0 0 C1.65 0 3.3 0 5 0 C4.35455571 3.48539917 2.89865603 6.02819057 1 9 C-0.4783226 6.04335481 -0.06032783 3.25770263 0 0 Z " fill="#426D4D" transform="translate(45,44)"/>
<path d="M0 0 C1.43088528 2.86177057 0.59991697 4.93375773 0 8 C0.99 8.66 1.98 9.32 3 10 C1.68 10.33 0.36 10.66 -1 11 C-1.33 9.02 -1.66 7.04 -2 5 C-2.66 5 -3.32 5 -4 5 C-4 4.34 -4 3.68 -4 3 C-2 1.375 -2 1.375 0 0 Z " fill="#181E0A" transform="translate(6,13)"/>
<path d="M0 0 C-0.33 0.66 -0.66 1.32 -1 2 C-3.32249342 2.40197001 -5.65885633 2.72686657 -8 3 C-9.66934283 3.31966139 -11.3373217 3.64731066 -13 4 C-8.93522219 0.68795882 -5.26054188 -1.94834884 0 0 Z " fill="#4F4F04" transform="translate(20,5)"/>
<path d="M0 0 C1.65 1.32 3.3 2.64 5 4 C5.66 3.34 6.32 2.68 7 2 C7.99 3.32 8.98 4.64 10 6 C8.02 6.99 8.02 6.99 6 8 C4.99403703 7.0479279 3.99538437 6.08812654 3 5.125 C2.443125 4.59132813 1.88625 4.05765625 1.3125 3.5078125 C0 2 0 2 0 0 Z " fill="#0F2F37" transform="translate(22,52)"/>
<path d="M0 0 C1.32 0.33 2.64 0.66 4 1 C3.34 2.65 2.68 4.3 2 6 C1.34 6 0.68 6 0 6 C0 6.66 0 7.32 0 8 C-0.66 8 -1.32 8 -2 8 C-1.67 6.35 -1.34 4.7 -1 3 C-0.34 3 0.32 3 1 3 C0.67 2.01 0.34 1.02 0 0 Z " fill="#4C5756" transform="translate(39,35)"/>
<path d="M0 0 C1.32 0.33 2.64 0.66 4 1 C4 1.99 4 2.98 4 4 C1.69 4 -0.62 4 -3 4 C-2.01 2.68 -1.02 1.36 0 0 Z " fill="#F2F290" transform="translate(23,22)"/>
<path d="M0 0 C2.5 1.3125 2.5 1.3125 5 3 C5 3.99 5 4.98 5 6 C4.34 6.66 3.68 7.32 3 8 C0 2.25 0 2.25 0 0 Z " fill="#4C3200" transform="translate(47,18)"/>
<path d="M0 0 C1.32 0 2.64 0 4 0 C4 2.64 4 5.28 4 8 C2.68 7.34 1.36 6.68 0 6 C0 5.01 0 4.02 0 3 C0.99 3 1.98 3 3 3 C3 2.34 3 1.68 3 1 C2.01 0.67 1.02 0.34 0 0 Z " fill="#94847A" transform="translate(29,44)"/>
<path d="M0 0 C2.83967231 0 5.23735711 0.40267181 8 1 C7.34 1.66 6.68 2.32 6 3 C5.34 2.67 4.68 2.34 4 2 C3.67 2.99 3.34 3.98 3 5 C1.5 3.625 1.5 3.625 0 2 C0 1.34 0 0.68 0 0 Z " fill="#3CB2CF" transform="translate(24,52)"/>
<path d="M0 0 C4.875 2.75 4.875 2.75 6 5 C4.02 5 2.04 5 0 5 C0 3.35 0 1.7 0 0 Z " fill="#F9F991" transform="translate(41,21)"/>
<path d="M0 0 C0 0.66 0 1.32 0 2 C-0.99 2.495 -0.99 2.495 -2 3 C-1.67 4.32 -1.34 5.64 -1 7 C-1.99 6.67 -2.98 6.34 -4 6 C-4 5.34 -4 4.68 -4 4 C-4.99 3.67 -5.98 3.34 -7 3 C-2.25 0 -2.25 0 0 0 Z " fill="#543701" transform="translate(26,15)"/>
<path d="M0 0 C-0.639375 0.12375 -1.27875 0.2475 -1.9375 0.375 C-2.618125 0.58125 -3.29875 0.7875 -4 1 C-4.33 1.66 -4.66 2.32 -5 3 C-5.99 1.68 -6.98 0.36 -8 -1 C-4.59745511 -2.2151946 -3.06748874 -1.86240388 0 0 Z " fill="#2A8094" transform="translate(31,51)"/>
<path d="M0 0 C1.65 0 3.3 0 5 0 C5 1.98 5 3.96 5 6 C4.34 6 3.68 6 3 6 C2.87625 5.195625 2.7525 4.39125 2.625 3.5625 C2.315625 2.2940625 2.315625 2.2940625 2 1 C1.34 0.67 0.68 0.34 0 0 Z " fill="#FBB8BF" transform="translate(28,28)"/>
<path d="M0 0 C0.99 0 1.98 0 3 0 C3.33 1.32 3.66 2.64 4 4 C3.01 4.66 2.02 5.32 1 6 C1 4.68 1 3.36 1 2 C-0.98 2.99 -0.98 2.99 -3 4 C-1.6875 2 -1.6875 2 0 0 Z " fill="#BF8506" transform="translate(19,19)"/>
<path d="M0 0 C0.99 0 1.98 0 3 0 C3 2.64 3 5.28 3 8 C2.67 7.01 2.34 6.02 2 5 C1.01 4.67 0.02 4.34 -1 4 C-0.67 2.68 -0.34 1.36 0 0 Z " fill="#4D5004" transform="translate(60,16)"/>
<path d="M0 0 C0.66 0.99 1.32 1.98 2 3 C2.99 3.66 3.98 4.32 5 5 C3.68 5 2.36 5 1 5 C0.67 6.32 0.34 7.64 0 9 C0 7.68 0 6.36 0 5 C-0.99 4.67 -1.98 4.34 -3 4 C-2.01 4 -1.02 4 0 4 C0 2.68 0 1.36 0 0 Z " fill="#FB0605" transform="translate(33,44)"/>
<path d="M0 0 C1.0625 1.8125 1.0625 1.8125 2 4 C1.67 4.99 1.34 5.98 1 7 C0.34 7 -0.32 7 -1 7 C-1.33 7.66 -1.66 8.32 -2 9 C-1.51421457 5.87709365 -1.0013988 3.00419641 0 0 Z " fill="#2F2913" transform="translate(52,35)"/>
<path d="M0 0 C0.99 0 1.98 0 3 0 C2.34 1.98 1.68 3.96 1 6 C0.34 5.67 -0.32 5.34 -1 5 C-0.67 3.35 -0.34 1.7 0 0 Z " fill="#F6B5BA" transform="translate(18,38)"/>
<path d="M0 0 C0.33 0.66 0.66 1.32 1 2 C1.99 2 2.98 2 4 2 C3.34 3.65 2.68 5.3 2 7 C1.34 7 0.68 7 0 7 C-1.125 2.25 -1.125 2.25 0 0 Z " fill="#644200" transform="translate(12,25)"/>
<path d="M0 0 C1.32 0.66 2.64 1.32 4 2 C3.34 3.32 2.68 4.64 2 6 C1.01 5.01 0.02 4.02 -1 3 C-0.67 2.01 -0.34 1.02 0 0 Z " fill="#DBA213" transform="translate(24,17)"/>
<path d="M0 0 C2.97 0.33 5.94 0.66 9 1 C7.68 1.99 6.36 2.98 5 4 C1.125 2.25 1.125 2.25 0 0 Z " fill="#DFD009" transform="translate(5,11)"/>
<path d="M0 0 C1.65 0 3.3 0 5 0 C5 0.99 5 1.98 5 3 C3.35 3 1.7 3 0 3 C0 2.01 0 1.02 0 0 Z " fill="#0088CC" transform="translate(167,55)"/>
</svg>
