<svg width="58" height="66" viewBox="0 0 58 66" fill="none" xmlns="http://www.w3.org/2000/svg">
<path d="M28.2061 28.7338V0.539062L14.1094 14.6418L28.2061 28.7338Z" fill="#49C7ED"/>
<path d="M0 0.539062V28.7338L14.1073 14.6418L0 0.539062Z" fill="#0099D8"/>
<path d="M57.9989 0.539062H29.7949L43.9022 14.6418L57.9989 0.539062Z" fill="#49C7ED"/>
<path d="M29.7949 0.539062V28.7338L43.9022 14.6418L29.7949 0.539062Z" fill="#0099D8"/>
<path d="M57.999 58.519V30.3242L43.9023 44.4269L57.999 58.519Z" fill="#0099D8"/>
<path d="M43.9022 44.4141L29.7949 58.5167H57.9989L43.9022 44.4141Z" fill="#49C7ED"/>
<path d="M29.7949 30.3242V58.519L43.9022 44.4163L29.7949 30.3242Z" fill="#0099D8"/>
<path d="M28.204 30.3242H0L14.1073 44.4163L28.204 30.3242Z" fill="#0099D8"/>
<path d="M0 30.3242V58.519L14.1073 44.4163L0 30.3242Z" fill="#49C7ED"/>
<path d="M50.7331 25.7213H32.8179L29.7949 28.7327H57.9989L43.9022 14.6406L41.7702 16.7613L50.7331 25.7213Z" fill="#11034C"/>
<path d="M20.9382 25.7213H3.02298L0 28.7327H28.204L14.1073 14.6406L11.9753 16.7613L20.9382 25.7213Z" fill="#11034C"/>
<path d="M20.9382 55.5065H3.02298L0 58.5179H28.2146L14.1073 44.4258L11.9753 46.5465L20.9382 55.5065Z" fill="#11034C"/>
<path d="M54.9865 55.5078H32.8179L29.7949 58.5192H57.9989L54.9865 55.5078Z" fill="#11034C"/>
<path d="M23.4797 42.2886L21.3496 44.418L23.4797 46.5474L25.6098 44.418L23.4797 42.2886Z" fill="#11034C"/>
<path d="M44.1793 30.3358L42.0488 32.4648L44.1785 34.5946L46.309 32.4656L44.1793 30.3358Z" fill="#11034C"/>
<path d="M44.3061 60.9846L42.0488 63.2227L44.3053 65.4615L46.5626 63.2234L44.3061 60.9846Z" fill="#11034C"/>
</svg>
