<?xml version="1.0" encoding="UTF-8"?>
<svg version="1.1" xmlns="http://www.w3.org/2000/svg" width="183" height="166">
<path d="M0 0 C60.39 0 120.78 0 183 0 C183 54.78 183 109.56 183 166 C122.61 166 62.22 166 0 166 C0 111.22 0 56.44 0 0 Z " fill="#F1F9FB" transform="translate(0,0)"/>
<path d="M0 0 C16.58382326 13.22110847 27.77910645 30.72429823 31.6875 51.6875 C33.20821109 67.83292198 31.25955324 83.00249172 25 98 C23.74406187 94.23218562 24.50391404 93.16883691 25.875 89.5 C31.65812441 71.36476667 29.44876746 52.09757538 21.5625 34.984375 C19.65605953 31.3430737 17.58365587 28.1915749 15 25 C15.45375 26.03125 15.9075 27.0625 16.375 28.125 C17.35501678 30.35231086 18.16763625 32.53048527 18.90234375 34.85546875 C20.43633305 39.24999326 22.65714139 43.20006418 24.85546875 47.29296875 C26 50 26 50 25 53 C23.35 49.7 21.7 46.4 20 43 C19.85304687 44.01578125 19.70609375 45.0315625 19.5546875 46.078125 C18.0936819 55.31465193 15.73033743 62.81396696 11 71 C9.43999139 74.12001722 10.93685867 76.87398245 11.875 80.0625 C13.4727107 85.72162384 14.58801747 91.129249 15 97 C12.66776264 93.50164396 11.84754451 90.08595267 10.875 86.0625 C10.60236328 84.98838867 10.60236328 84.98838867 10.32421875 83.89257812 C9.47914891 80.46464446 9 77.55227969 9 74 C8.34 73.67 7.68 73.34 7 73 C6.16311983 71.02672465 5.40514625 69.019695 4.6875 67 C1.13990524 56.71323168 1.13990524 56.71323168 -6 49 C-6.345514 47.66977109 -6.67674299 46.33581204 -7 45 C-11.80273768 37.33032197 -17.80214833 30.55845394 -24 24 C-24.58523437 23.37351563 -25.17046875 22.74703125 -25.7734375 22.1015625 C-30.3574275 17.34540386 -35.33450834 12.41637688 -41 9 C-42.94713824 8.9896943 -42.94713824 8.9896943 -45 10 C-46.12148437 10.44472656 -47.24296875 10.88945313 -48.3984375 11.34765625 C-61.07482134 16.7412138 -72.68999137 23.0904344 -83.8125 31.25 C-84.51310547 31.75748779 -85.21371094 32.26497559 -85.93554688 32.7878418 C-86.58201172 33.27551025 -87.22847656 33.76317871 -87.89453125 34.265625 C-88.47050049 34.69649414 -89.04646973 35.12736328 -89.63989258 35.57128906 C-91.30581274 37.32123786 -91.55785048 38.65476157 -92 41 C-92.495 41.99 -92.495 41.99 -93 43 C-93.66 42.34 -94.32 41.68 -95 41 C-96.46072532 42.60198888 -97.91849716 44.20667116 -99.375 45.8125 C-100.18710938 46.70582031 -100.99921875 47.59914062 -101.8359375 48.51953125 C-105.35656143 52.45559066 -105.35656143 52.45559066 -105.9375 57.5625 C-105.03351366 63.50455655 -102.26306183 69.73693817 -98 74 C-98.33 74.99 -98.66 75.98 -99 77 C-99.54269531 76.25234375 -100.08539063 75.5046875 -100.64453125 74.734375 C-101.35996094 73.74953125 -102.07539062 72.7646875 -102.8125 71.75 C-103.52019531 70.77546875 -104.22789063 69.8009375 -104.95703125 68.796875 C-106.62154821 66.51810991 -108.30001823 64.25234178 -110 62 C-112.25678003 68.670985 -113.56615452 74.96871122 -114 82 C-117.00602911 77.49095634 -116.5806827 73.29366556 -116 68 C-115.38769836 66.16841943 -114.71811416 64.3552389 -114 62.5625 C-111.56716131 56.06927897 -111.82470067 50.13731667 -112.0078125 43.31958008 C-112.13727751 36.79840284 -111.36346984 31.13376695 -109 25 C-120.46038088 44.61060321 -124.69915008 64.05024458 -119.75390625 86.5546875 C-119.06692857 89.6941399 -118.49986328 92.8261108 -118 96 C-120.67892029 93.32107971 -121.15637375 90.37843412 -122.0625 86.8125 C-122.32256836 85.84086914 -122.32256836 85.84086914 -122.58789062 84.84960938 C-127.94963178 64.28599673 -125.38788912 43.13953703 -115.09765625 24.56640625 C-104.52629896 6.69946185 -88.88237488 -5.80194915 -69 -12 C-67.98679688 -12.31839844 -66.97359375 -12.63679687 -65.9296875 -12.96484375 C-43.30540014 -19.11706224 -19.04032722 -13.21828491 0 0 Z " fill="#1C7DBD" transform="translate(139,26)"/>
<path d="M0 0 C16.58382326 13.22110847 27.77910645 30.72429823 31.6875 51.6875 C33.20821109 67.83292198 31.25955324 83.00249172 25 98 C23.74406187 94.23218562 24.50391404 93.16883691 25.875 89.5 C32.03204762 70.19218518 29.14904423 49.81776365 20 32 C18.40999206 29.27131449 16.72897394 26.64431309 15 24 C15 23.34 15 22.68 15 22 C14.01 22.33 13.02 22.66 12 23 C9.36 19.04 6.72 15.08 4 11 C4.45375 12.36125 4.9075 13.7225 5.375 15.125 C5.64699219 15.94484375 5.91898438 16.7646875 6.19921875 17.609375 C6.84492571 19.5370465 7.51275378 21.45730022 8.1875 23.375 C9 26 9 26 9 29 C8.01 29.495 8.01 29.495 7 30 C6.33598504 31.72817867 5.74240143 33.48376056 5.1875 35.25 C3.5193861 40.09067768 1.96496041 42.80600411 -2 46 C-1.71125 45.29875 -1.4225 44.5975 -1.125 43.875 C-0.75375 42.92625 -0.3825 41.9775 0 41 C0.556875 39.700625 0.556875 39.700625 1.125 38.375 C2.98276 31.21315006 2.98276 31.21315006 2 24 C-1.58712513 20.77455195 -5.60949544 18.93035326 -10 17 C-10.92425781 16.566875 -11.84851563 16.13375 -12.80078125 15.6875 C-14.85188033 14.74536837 -16.90941748 13.84995905 -19 13 C-16.70456573 12.21178181 -15.41991018 11.86441956 -13.07714844 12.62084961 C-12.10310059 13.13143921 -12.10310059 13.13143921 -11.109375 13.65234375 C-10.40039062 14.01650391 -9.69140625 14.38066406 -8.9609375 14.75585938 C-8.23132813 15.14580078 -7.50171875 15.53574219 -6.75 15.9375 C-6.00492187 16.32357422 -5.25984375 16.70964844 -4.4921875 17.10742188 C-2.65585606 18.06090166 -0.82715793 19.02905677 1 20 C-1.65521086 10.56989546 -8.27510518 4.71013094 -16.5625 -0.125 C-18.36515781 -1.10172096 -20.17429547 -2.06706807 -22 -3 C-20.07423885 -0.56070254 -18.19909405 1.80090595 -16 4 C-15.875 7.125 -15.875 7.125 -16 10 C-16.556875 9.278125 -17.11375 8.55625 -17.6875 7.8125 C-23.12407573 1.20044843 -28.55652252 -3.15265596 -37 -5 C-49.00779343 -5.71952397 -59.27045069 -5.88362887 -69 2.0625 C-72.03566976 4.81357572 -73.93024255 6.87969537 -74.1953125 11.13671875 C-74.17210937 12.30847656 -74.14890625 13.48023438 -74.125 14.6875 C-74.10695312 15.86699219 -74.08890625 17.04648437 -74.0703125 18.26171875 C-74.04710937 19.16535156 -74.02390625 20.06898437 -74 21 C-76.70072754 18.53411834 -77.80586535 16.67083103 -78.23828125 12.94921875 C-78.42498805 7.25957466 -77.62038233 4.41234097 -74 0 C-82.05499584 2.68499861 -88.1889392 9.45592206 -92.1875 16.75 C-94.36745141 21.30406853 -95.22741647 26.03920048 -96 31 C-96.66 30.67 -97.32 30.34 -98 30 C-98.054348 27.9377952 -98.09294961 25.87517184 -98.125 23.8125 C-98.14820312 22.66394531 -98.17140625 21.51539063 -98.1953125 20.33203125 C-98.00484152 17.08259628 -97.39360127 14.91339479 -96 12 C-98.37270606 14.79640358 -100.29073553 17.49007851 -101.9375 20.75 C-102.9584375 22.35875 -102.9584375 22.35875 -104 24 C-104.78375 24.09539063 -105.5675 24.19078125 -106.375 24.2890625 C-109.3008987 24.7891205 -109.3008987 24.7891205 -111.09765625 27.8515625 C-111.77553313 29.09716757 -112.4292459 30.35612715 -113.0625 31.625 C-113.40611572 32.29217041 -113.74973145 32.95934082 -114.10375977 33.64672852 C-122.38543418 50.41638239 -123.7309141 68.45641989 -119.75390625 86.5546875 C-119.06692857 89.6941399 -118.49986328 92.8261108 -118 96 C-120.67892029 93.32107971 -121.15637375 90.37843412 -122.0625 86.8125 C-122.32256836 85.84086914 -122.32256836 85.84086914 -122.58789062 84.84960938 C-127.94963178 64.28599673 -125.38788912 43.13953703 -115.09765625 24.56640625 C-104.52629896 6.69946185 -88.88237488 -5.80194915 -69 -12 C-67.98679688 -12.31839844 -66.97359375 -12.63679687 -65.9296875 -12.96484375 C-43.30540014 -19.11706224 -19.04032722 -13.21828491 0 0 Z " fill="#0D73B9" transform="translate(139,26)"/>
<path d="M0 0 C0.66 0.33 1.32 0.66 2 1 C1.0409375 2.175625 1.0409375 2.175625 0.0625 3.375 C-3.49300251 7.90018502 -3.41596644 11.38928984 -3 17 C-2.13346586 19.93080674 -2.13346586 19.93080674 -1 22 C3.82398888 21.3805773 7.62403592 19.3418579 11.875 17.125 C22.30865779 11.74052254 22.30865779 11.74052254 27 10 C27.99 10.33 28.98 10.66 30 11 C29.1028125 11.40089844 28.205625 11.80179688 27.28125 12.21484375 C14.1446974 18.16236228 1.69874074 24.74786052 -9.9375 33.3125 C-10.63029053 33.81612061 -11.32308105 34.31974121 -12.03686523 34.83862305 C-12.67309814 35.32113525 -13.30933105 35.80364746 -13.96484375 36.30078125 C-14.5280835 36.72528564 -15.09132324 37.14979004 -15.67163086 37.5871582 C-17.30784286 39.32741898 -17.55815753 40.68141211 -18 43 C-18.33 43.66 -18.66 44.32 -19 45 C-19.66 44.34 -20.32 43.68 -21 43 C-22.46072532 44.60198888 -23.91849716 46.20667116 -25.375 47.8125 C-26.18710937 48.70582031 -26.99921875 49.59914062 -27.8359375 50.51953125 C-31.35656143 54.45559066 -31.35656143 54.45559066 -31.9375 59.5625 C-31.03351366 65.50455655 -28.26306183 71.73693817 -24 76 C-24.33 76.99 -24.66 77.98 -25 79 C-25.54269531 78.25234375 -26.08539063 77.5046875 -26.64453125 76.734375 C-27.35996094 75.74953125 -28.07539062 74.7646875 -28.8125 73.75 C-29.52019531 72.77546875 -30.22789063 71.8009375 -30.95703125 70.796875 C-32.62154821 68.51810991 -34.30001823 66.25234178 -36 64 C-38.25678003 70.670985 -39.56615452 76.96871122 -40 84 C-43.00602911 79.49095634 -42.5806827 75.29366556 -42 70 C-41.38769836 68.16841943 -40.71811416 66.3552389 -40 64.5625 C-37.58383381 58.11100069 -37.87434679 52.29786443 -38.078125 45.53051758 C-38.22028227 37.73778166 -36.70523447 31.29447153 -34 24 C-33.01 24.33 -32.02 24.66 -31 25 C-30.54109375 24.32453125 -30.0821875 23.6490625 -29.609375 22.953125 C-28.99578125 22.06109375 -28.3821875 21.1690625 -27.75 20.25 C-27.14671875 19.36828125 -26.5434375 18.4865625 -25.921875 17.578125 C-24.10858668 15.14566506 -22.19950731 13.08271931 -20 11 C-20.309375 11.763125 -20.61875 12.52625 -20.9375 13.3125 C-22.67907369 17.71765698 -23.10939091 20.95151848 -23.0625 25.6875 C-23.05347656 26.86699219 -23.04445313 28.04648437 -23.03515625 29.26171875 C-23.02355469 30.16535156 -23.01195313 31.06898437 -23 32 C-22.76216797 30.96552734 -22.76216797 30.96552734 -22.51953125 29.91015625 C-19.2284905 16.65508053 -13.27602166 8.02814721 -1.69921875 0.75 C-1.13847656 0.5025 -0.57773438 0.255 0 0 Z " fill="#1477BB" transform="translate(65,24)"/>
<path d="M0 0 C11.67467429 1.80802478 22.22826987 5.17212996 33 10 C34.03640625 10.46277344 35.0728125 10.92554688 36.140625 11.40234375 C38.62499617 12.74999792 40.27248136 13.76496176 42 16 C43.67755371 22.73092539 41.84148291 28.87988296 39 35 C38.34 35.99 37.68 36.98 37 38 C36.34 38 35.68 38 35 38 C33.36295535 35.84221354 31.82718414 33.6787583 30.3125 31.4375 C26.60089823 26.06263584 22.73132665 21.52561679 18 17 C18 16.34 18 15.68 18 15 C17.45472656 14.77183594 16.90945312 14.54367188 16.34765625 14.30859375 C13.29636677 12.6077918 10.998234 10.43509844 8.4375 8.0625 C7.48746094 7.18722656 6.53742188 6.31195313 5.55859375 5.41015625 C3.67280628 3.63377324 1.81304842 1.84967566 0 0 Z " fill="#F1FAFC" transform="translate(100,34)"/>
<path d="M0 0 C3.67744334 2.4009754 6.15536264 4.77834738 7.953125 8.796875 C7.953125 9.786875 7.953125 10.776875 7.953125 11.796875 C0.79717154 11.09531093 -6.06542681 9.48902479 -13.046875 7.796875 C-10.82497676 5.57497676 -8.96204792 4.87088608 -6.046875 3.796875 C-15.95527195 7.82740935 -15.95527195 7.82740935 -22.046875 5.796875 C-23.96594417 5.71421014 -25.88776974 5.68946837 -27.80859375 5.69921875 C-29.48598633 5.70405273 -29.48598633 5.70405273 -31.19726562 5.70898438 C-32.36451172 5.71736328 -33.53175781 5.72574219 -34.734375 5.734375 C-35.91322266 5.73888672 -37.09207031 5.74339844 -38.30664062 5.74804688 C-41.22010289 5.75984227 -44.13346363 5.7763023 -47.046875 5.796875 C-41.89736073 -0.74972488 -41.89736073 -0.74972488 -37.984375 -2.515625 C-37.33339844 -2.82113281 -36.68242188 -3.12664063 -36.01171875 -3.44140625 C-24.41430893 -7.93742 -10.4645053 -6.15089243 0 0 Z " fill="#EAF9FC" transform="translate(114.046875,25.203125)"/>
<path d="M0 0 C8.16750189 4.77695909 8.16750189 4.77695909 10 9 C11.52808412 21.33892222 8.75910349 31.27615212 3 42 C2.34 42 1.68 42 1 42 C0.52949219 40.90300781 0.05898437 39.80601563 -0.42578125 38.67578125 C-1.05450348 37.22127461 -1.68342 35.76685194 -2.3125 34.3125 C-2.62123047 33.59126953 -2.92996094 32.87003906 -3.24804688 32.12695312 C-4.93919851 28.22840356 -6.80464213 24.64537819 -9 21 C-8.90687295 18.11306144 -7.86584151 16.81032766 -6.1875 14.4375 C-3.12099925 10.09048246 -1.67369042 5.00326605 0 0 Z " fill="#F4FBFD" transform="translate(146,54)"/>
<path d="M0 0 C0.66 0.33 1.32 0.66 2 1 C1.360625 1.78375 0.72125 2.5675 0.0625 3.375 C-2.46486414 6.59164527 -3.16728185 8.18256293 -3.25 12.1875 C-3.27578125 12.92355469 -3.3015625 13.65960938 -3.328125 14.41796875 C-2.8747331 17.9857312 -1.51242594 20.74032409 0 24 C-0.95261719 24.60328125 -1.90523437 25.2065625 -2.88671875 25.828125 C-4.153742 26.63526573 -5.4206637 27.44256588 -6.6875 28.25 C-7.31333984 28.64574219 -7.93917969 29.04148437 -8.58398438 29.44921875 C-11.46808108 31.29141664 -14.16812581 33.13635583 -16.83203125 35.296875 C-19 37 -19 37 -21 37 C-21.68386082 26.45334644 -21.0156776 19.06372963 -14.16796875 10.78515625 C-10.11799643 6.4955406 -5.47808883 2.35326351 0 0 Z " fill="#F0FBFD" transform="translate(65,24)"/>
<path d="M0 0 C1.75211782 0.25677589 3.50167936 0.53102953 5.25 0.8125 C6.22453125 0.96332031 7.1990625 1.11414063 8.203125 1.26953125 C11.18165543 2.04744353 12.80065319 2.8618879 15 5 C15.6875 8.375 15.6875 8.375 15 12 C12.89706516 14.09249844 10.58780043 15.56746762 8 17 C8.3609375 17.91523437 8.721875 18.83046875 9.09375 19.7734375 C9.5578125 20.96195313 10.021875 22.15046875 10.5 23.375 C10.9640625 24.55835937 11.428125 25.74171875 11.90625 26.9609375 C13 30 13 30 13 32 C11.1640625 31.8671875 11.1640625 31.8671875 9 31 C7.5859375 28.3828125 7.5859375 28.3828125 6.375 25.125 C5.09925361 21.75280412 4.00628371 19.00942557 2 16 C1.51801537 17.24891614 1.03954323 18.49918808 0.5625 19.75 C0.29566406 20.44609375 0.02882813 21.1421875 -0.24609375 21.859375 C-0.96146693 23.89059003 -1.51365652 25.9035291 -2 28 C-3.65 27.67 -5.3 27.34 -7 27 C-6.61908203 25.71029297 -6.61908203 25.71029297 -6.23046875 24.39453125 C-3.87697009 16.31154147 -1.80353174 8.2251978 0 0 Z " fill="#EA633F" transform="translate(41,101)"/>
<path d="M0 0 C0 1.98 0 3.96 0 6 C0.99 6 1.98 6 3 6 C3 4.02 3 2.04 3 0 C4.32 0 5.64 0 7 0 C7 0.99 7 1.98 7 3 C7.66 3 8.32 3 9 3 C9.66 3.66 10.32 4.32 11 5 C11.66 3.68 12.32 2.36 13 1 C13.99 1.33 14.98 1.66 16 2 C16 2.99 16 3.98 16 5 C16.66 5 17.32 5 18 5 C18.66 3.68 19.32 2.36 20 1 C20 2.65 20 4.3 20 6 C20.66 6.33 21.32 6.66 22 7 C22 8.32 22 9.64 22 11 C21.0203125 10.84015625 20.040625 10.6803125 19.03125 10.515625 C6.47794838 8.73850098 -5.76270191 9.96774914 -18 13 C-19.74565111 9.78360346 -20.204437 7.67986596 -20 4 C-18.02 4.99 -18.02 4.99 -16 6 C-15.67 5.01 -15.34 4.02 -15 3 C-14.01 4.485 -14.01 4.485 -13 6 C-12.67 4.68 -12.34 3.36 -12 2 C-9 3 -9 3 -7 6 C-6.67 4.68 -6.34 3.36 -6 2 C-6.66 1.67 -7.32 1.34 -8 1 C-5.10765685 0.17361624 -3.11257569 0 0 0 Z " fill="#F0F8F6" transform="translate(86,2)"/>
<path d="M0 0 C1.32 0.33 2.64 0.66 4 1 C4 9.91 4 18.82 4 28 C2.68 28 1.36 28 0 28 C-1.72338867 26.27172852 -1.72338867 26.27172852 -3.41796875 23.87890625 C-4.33932617 22.59983398 -4.33932617 22.59983398 -5.27929688 21.29492188 C-5.90900391 20.39322266 -6.53871094 19.49152344 -7.1875 18.5625 C-8.45157659 16.79279278 -9.71588694 15.0232525 -10.98046875 13.25390625 C-11.53629639 12.46314697 -12.09212402 11.6723877 -12.66479492 10.85766602 C-13.86795362 9.07821775 -13.86795362 9.07821775 -15 8 C-15 14.6 -15 21.2 -15 28 C-16.32 28 -17.64 28 -19 28 C-19.33 19.09 -19.66 10.18 -20 1 C-14 1 -14 1 -12.03369141 2.74414062 C-11.47858887 3.54013672 -10.92348633 4.33613281 -10.3515625 5.15625 C-9.73925781 6.01347656 -9.12695312 6.87070313 -8.49609375 7.75390625 C-7.87863281 8.66011719 -7.26117188 9.56632812 -6.625 10.5 C-5.98433594 11.40621094 -5.34367187 12.31242187 -4.68359375 13.24609375 C-3.10460714 15.48495536 -1.54992921 17.74092509 0 20 C0 13.4 0 6.8 0 0 Z " fill="#EB6C4A" transform="translate(104,108)"/>
<path d="M0 0 C0.33 0.66 0.66 1.32 1 2 C0.53078125 2.87527344 0.0615625 3.75054687 -0.421875 4.65234375 C-2.2729299 8.57896268 -2.33713029 11.2451943 -2.25 15.5625 C-2.23453125 16.84253906 -2.2190625 18.12257813 -2.203125 19.44140625 C-2.12246887 22.89783871 -2.12246887 22.89783871 -1.28515625 25.75 C-1 28 -1 28 -2.29296875 29.80859375 C-2.91816406 30.34613281 -3.54335938 30.88367188 -4.1875 31.4375 C-6.61597846 33.64344856 -8.58585631 35.64323692 -10.3125 38.4375 C-11.1478125 39.7059375 -11.1478125 39.7059375 -12 41 C-12.66 41 -13.32 41 -14 41 C-14.77788173 24.75091492 -10.37269559 12.56122038 0 0 Z " fill="#E7F5FA" transform="translate(44,35)"/>
<path d="M0 0 C0.66 0.33 1.32 0.66 2 1 C1.67 1.66 1.34 2.32 1 3 C2.32 3 3.64 3 5 3 C5.30859375 5.76171875 5.30859375 5.76171875 5 9 C2.91015625 11.01953125 2.91015625 11.01953125 0.0625 12.8125 C-5.65887204 16.6440406 -10.30178998 20.98857598 -15 26 C-15.66 25.67 -16.32 25.34 -17 25 C-17 24.01 -17 23.02 -17 22 C-17.66 23.32 -18.32 24.64 -19 26 C-21.475 25.01 -21.475 25.01 -24 24 C-23.01 23.34 -22.02 22.68 -21 22 C-21.33 21.01 -21.66 20.02 -22 19 C-21.01 19 -20.02 19 -19 19 C-18.67 18.01 -18.34 17.02 -18 16 C-16.68 16.33 -15.36 16.66 -14 17 C-14.66 15.68 -15.32 14.36 -16 13 C-15.071875 12.87625 -15.071875 12.87625 -14.125 12.75 C-11.84957521 12.20076457 -11.84957521 12.20076457 -10.875 10.125 C-10.441875 9.073125 -10.441875 9.073125 -10 8 C-8.06857324 5.10285986 -7.34343509 4.41593426 -4.4375 2.875 C-1.25453754 1.34859298 -1.25453754 1.34859298 0 0 Z " fill="#E9E8E7" transform="translate(47,14)"/>
<path d="M0 0 C1.22759033 0.00616333 1.22759033 0.00616333 2.47998047 0.01245117 C3.83736328 0.01535156 3.83736328 0.01535156 5.22216797 0.01831055 C6.17091797 0.03055664 7.11966797 0.04280273 8.09716797 0.05541992 C9.02271484 0.05606445 9.94826172 0.05670898 10.90185547 0.05737305 C16.34364782 0.09196071 21.58835356 0.45118251 26.97216797 1.24291992 C24.34122539 2.99688164 21.90993148 4.25727067 19.04248047 5.55541992 C18.08212891 5.99112305 17.12177734 6.42682617 16.13232422 6.87573242 C15.13072266 7.3269043 14.12912109 7.77807617 13.09716797 8.24291992 C11.60636719 8.91967773 11.60636719 8.91967773 10.08544922 9.61010742 C5.74366816 11.57466163 1.40792008 13.49848946 -3.02783203 15.24291992 C-4.32873034 12.6411233 -4.19623281 10.64600112 -4.21533203 7.74291992 C-4.22951172 6.76323242 -4.24369141 5.78354492 -4.25830078 4.77416992 C-3.96968619 1.60430114 -3.26135139 0.39068681 0 0 Z " fill="#EFFBFD" transform="translate(68.02783203125,31.757080078125)"/>
<path d="M0 0 C1.65 0 3.3 0 5 0 C6.17300089 4.10238344 7.33731306 8.20718259 8.5 12.3125 C8.83386719 13.47974609 9.16773437 14.64699219 9.51171875 15.84960938 C9.82753906 16.96787109 10.14335938 18.08613281 10.46875 19.23828125 C10.90864258 20.7857605 10.90864258 20.7857605 11.35742188 22.36450195 C12 25 12 25 12 28 C10.68 28 9.36 28 8 28 C7.49440092 26.56445975 6.9957251 25.1264798 6.5 23.6875 C6.2215625 22.88699219 5.943125 22.08648437 5.65625 21.26171875 C5 19 5 19 5 16 C1.7 16 -1.6 16 -5 16 C-6.65 19.3 -8.3 22.6 -10 26 C-11.65 26 -13.3 26 -15 26 C-14.5875 25.37996094 -14.175 24.75992188 -13.75 24.12109375 C-8.66566385 16.32435505 -4.2885466 8.25405982 0 0 Z " fill="#EA5E37" transform="translate(70,108)"/>
<path d="M0 0 C2.75 1.5625 2.75 1.5625 5 4 C5.88006139 7.96842498 5.59058676 11.01568873 3.5 14.5 C3.005 14.995 2.51 15.49 2 16 C1.34 15.67 0.68 15.34 0 15 C0.495 14.401875 0.99 13.80375 1.5 13.1875 C3.28276418 11.02970006 3.28276418 11.02970006 3 8 C2.34 7.67 1.68 7.34 1 7 C1.33 8.32 1.66 9.64 2 11 C0.68 10.67 -0.64 10.34 -2 10 C-1.67 11.65 -1.34 13.3 -1 15 C-2.65 15.33 -4.3 15.66 -6 16 C-6.33 15.01 -6.66 14.02 -7 13 C-8.32 13.99 -9.64 14.98 -11 16 C-11.66 15.67 -12.32 15.34 -13 15 C-12.34 14.34 -11.68 13.68 -11 13 C-11.99 12.01 -12.98 11.02 -14 10 C-14.33 11.65 -14.66 13.3 -15 15 C-15.33 15 -15.66 15 -16 15 C-16.33 11.7 -16.66 8.4 -17 5 C-14.9237343 3.96486753 -12.83868521 2.94733789 -10.75 1.9375 C-9.58984375 1.36902344 -8.4296875 0.80054688 -7.234375 0.21484375 C-4.03533678 -0.98672737 -3.03199342 -1.35356849 0 0 Z " fill="#D7F0F8" transform="translate(99,35)"/>
<path d="M0 0 C2.79297711 0.44099639 5.31340243 1.10446748 8 2 C6.125 6.75 6.125 6.75 5 9 C6.65 8.34 8.3 7.68 10 7 C10 7.99 10 8.98 10 10 C11.65 9.34 13.3 8.68 15 8 C15.33 9.32 15.66 10.64 16 12 C17.0828125 11.8453125 17.0828125 11.8453125 18.1875 11.6875 C22.12041589 12.12449065 23.46321923 14.10082197 26 17 C25.67 17.66 25.34 18.32 25 19 C24.34 18.67 23.68 18.34 23 18 C23 18.66 23 19.32 23 20 C22.34 20 21.68 20 21 20 C21.33 20.99 21.66 21.98 22 23 C21.01 23.33 20.02 23.66 19 24 C18.3709375 23.40832031 17.741875 22.81664063 17.09375 22.20703125 C13.03522015 18.46022583 9.13567317 14.89501522 4.375 12.0625 C3.26125 11.381875 2.1475 10.70125 1 10 C1 9.34 1 8.68 1 8 C0.01 7.34 -0.98 6.68 -2 6 C-1.125 1.125 -1.125 1.125 0 0 Z " fill="#EACAC1" transform="translate(130,12)"/>
<path d="M0 0 C2.5 1.5625 2.5 1.5625 4 4 C4.5625 7.4375 4.5625 7.4375 4 11 C1.75 14 1.75 14 -1 16 C-3.3125 15.8125 -3.3125 15.8125 -5 15 C-4.34 14.62875 -3.68 14.2575 -3 13.875 C-0.68906548 12.1087505 -0.68906548 12.1087505 -0.625 9 C-0.7950271 5.82297795 -0.7950271 5.82297795 -3 3 C-6.58357241 2.74984127 -6.58357241 2.74984127 -10 3 C-9.02249564 6.77126626 -8.04271189 10.54193664 -7.0625 14.3125 C-6.78470703 15.38435547 -6.50691406 16.45621094 -6.22070312 17.56054688 C-5.81948242 19.10258789 -5.81948242 19.10258789 -5.41015625 20.67578125 C-5.16402588 21.62364502 -4.91789551 22.57150879 -4.66430664 23.5480957 C-4.16741928 25.38206843 -3.60086213 27.19741361 -3 29 C-4.65 29 -6.3 29 -8 29 C-8.79298919 26.167031 -9.58442272 23.33364215 -10.375 20.5 C-10.59671875 19.70851563 -10.8184375 18.91703125 -11.046875 18.1015625 C-12.44481389 13.08542885 -13.75888215 8.05726524 -15 3 C-9.68366576 0.34183288 -5.96222311 -0.68418954 0 0 Z " fill="#EA613B" transform="translate(140,103)"/>
<path d="M0 0 C10.02201154 2.37363431 17.95949417 9.99040772 24 18 C25.28125 20.08203125 25.28125 20.08203125 26 22 C25.67 22.99 25.34 23.98 25 25 C10.0033295 18.73146005 10.0033295 18.73146005 7.6328125 14.640625 C7.25 12.3125 7.25 12.3125 7.13671875 10.04296875 C6.92287391 6.8475158 5.16154177 5.22704304 3 3 C2.4225 2.401875 1.845 1.80375 1.25 1.1875 C0.8375 0.795625 0.425 0.40375 0 0 Z " fill="#E6F5FA" transform="translate(115,22)"/>
<path d="M0 0 C3.42079411 3.04070588 5.52458844 6.35328908 7.75390625 10.29296875 C8.97657912 12.31430404 8.97657912 12.31430404 12 13 C12.87890625 14.85546875 12.87890625 14.85546875 13.5625 17.1875 C13.79066406 17.94417969 14.01882812 18.70085938 14.25390625 19.48046875 C14.50011719 20.31191406 14.74632812 21.14335938 15 22 C16.67526774 27.4813585 19.15072928 32.2572126 21.85546875 37.29296875 C23 40 23 40 22 43 C20.35 39.7 18.7 36.4 17 33 C16.34 36.3 15.68 39.6 15 43 C14.67 43 14.34 43 14 43 C14.00902344 41.9378125 14.01804688 40.875625 14.02734375 39.78125 C14.16337598 30.38980362 14.16337598 30.38980362 9.625 22.5625 C8.99335938 21.97339844 8.36171875 21.38429688 7.7109375 20.77734375 C4.76312213 17.71511546 4.04730799 14.02456088 3 10 C2.44204096 8.14446181 1.87956916 6.29027436 1.3125 4.4375 C0.87360096 2.95874785 0.43557916 1.47973345 0 0 Z " fill="#1F7EBE" transform="translate(142,36)"/>
<path d="M0 0 C0 0.66 0 1.32 0 2 C1.79526111 3.28949167 1.79526111 3.28949167 4 4.5 C6.25 5.78125 6.25 5.78125 8 7 C8 7.66 8 8.32 8 9 C-0.25 9 -8.5 9 -17 9 C-11.3188086 2.18257033 -11.3188086 2.18257033 -7.9375 0.5625 C-7.28652344 0.23378906 -6.63554688 -0.09492188 -5.96484375 -0.43359375 C-3.61326482 -1.1114843 -2.28748718 -0.77947781 0 0 Z " fill="#DBF0F7" transform="translate(84,22)"/>
<path d="M0 0 C0.33 0.66 0.66 1.32 1 2 C0.34 2 -0.32 2 -1 2 C-1.33 2.66 -1.66 3.32 -2 4 C-2.66 3.67 -3.32 3.34 -4 3 C-3.34 4.98 -2.68 6.96 -2 9 C-1.34 8.01 -0.68 7.02 0 6 C0.99 6.33 1.98 6.66 3 7 C2.34 7 1.68 7 1 7 C0.855625 7.78375 0.71125 8.5675 0.5625 9.375 C0 12 0 12 -1 14 C-0.34 14 0.32 14 1 14 C1.33 13.01 1.66 12.02 2 11 C3.32 11.33 4.64 11.66 6 12 C6 13.32 6 14.64 6 16 C5.34 16.66 4.68 17.32 4 18 C4.99 18.66 5.98 19.32 7 20 C6.01 22.475 6.01 22.475 5 25 C4.21625 24.95875 3.4325 24.9175 2.625 24.875 C-0.16116119 24.71271266 -0.16116119 24.71271266 -2 27 C-3.10672094 20.6497857 -4.12822924 14.32765921 -4.78125 7.9140625 C-5.04839635 5.57653191 -5.48194474 3.29424473 -6 1 C-4.02 0.67 -2.04 0.34 0 0 Z " fill="#F2C8BD" transform="translate(172,55)"/>
<path d="M0 0 C-3.63 1.32 -7.26 2.64 -11 4 C-8.58490559 4.67286212 -6.16819644 5.33846012 -3.75 6 C-3.06808594 6.19078125 -2.38617188 6.3815625 -1.68359375 6.578125 C1.70600912 7.49957044 4.45778976 8 8 8 C8.66 7.01 9.32 6.02 10 5 C10 6.65 10 8.3 10 10 C4.53227411 11.38876744 0.43543641 10.45311428 -4.875 9.0625 C-6.050625 8.76956055 -6.050625 8.76956055 -7.25 8.47070312 C-9.1692991 7.99087835 -11.08504166 7.49686558 -13 7 C-8.545 10.465 -8.545 10.465 -4 14 C-4.66 14.33 -5.32 14.66 -6 15 C-6.59425781 14.44570313 -7.18851563 13.89140625 -7.80078125 13.3203125 C-19.46910113 3.12187429 -33.21410063 4.50652155 -48 4 C-48 3.67 -48 3.34 -48 3 C-44.03092526 2.83270936 -40.06164279 2.67211774 -36.09204102 2.51782227 C-34.74072921 2.46434198 -33.38948948 2.40900806 -32.03833008 2.35180664 C-30.09997011 2.27006429 -28.16131296 2.19546677 -26.22265625 2.12109375 C-25.05484619 2.0739624 -23.88703613 2.02683105 -22.68383789 1.97827148 C-20 2 -20 2 -19 3 C-13.99213131 2.58267761 -9.7035921 1.31011028 -5.015625 -0.4765625 C-3 -1 -3 -1 0 0 Z " fill="#4193C9" transform="translate(114,28)"/>
<path d="M0 0 C1.65 0 3.3 0 5 0 C5.99 7.92 6.98 15.84 8 24 C14.40371521 23.2981424 14.40371521 23.2981424 18 22 C17.67 23.32 17.34 24.64 17 26 C10.565 26.495 10.565 26.495 4 27 C3.79503906 25.30230469 3.59007813 23.60460937 3.37890625 21.85546875 C3.10693322 19.63279262 2.83478892 17.41013745 2.5625 15.1875 C2.42779297 14.06794922 2.29308594 12.94839844 2.15429688 11.79492188 C2.02216797 10.72177734 1.89003906 9.64863281 1.75390625 8.54296875 C1.63345947 7.55321045 1.5130127 6.56345215 1.38891602 5.54370117 C1.05596634 2.88587629 1.05596634 2.88587629 0 0 Z " fill="#E95931" transform="translate(110,108)"/>
<path d="M0 0 C3.82203453 3.35176183 5.85475782 7.0119657 8.0625 11.5 C8.41320557 12.21051514 8.76391113 12.92103027 9.12524414 13.65307617 C13.45164297 22.69530057 16.36466735 32.87613982 16 43 C15.34 43.99 14.68 44.98 14 46 C13.69255859 44.35451172 13.69255859 44.35451172 13.37890625 42.67578125 C13.10678707 41.22135113 12.83465075 39.76692422 12.5625 38.3125 C12.42779297 37.59126953 12.29308594 36.87003906 12.15429688 36.12695312 C11.88993415 34.71486932 11.622737 33.30331286 11.35253906 31.89233398 C11.06854456 30.36792858 10.81965172 28.83700641 10.58203125 27.3046875 C9.86524702 24.46641437 8.61807316 22.32695405 7.125 19.8125 C4.23174668 14.67818956 2.41287707 9.7023312 1 4 C0.81050781 3.24589844 0.62101563 2.49179687 0.42578125 1.71484375 C0.28527344 1.14894531 0.14476562 0.58304688 0 0 Z " fill="#DCEDF6" transform="translate(153,49)"/>
<path d="M0 0 C0.66 0.33 1.32 0.66 2 1 C2.4140625 3.28515625 2.4140625 3.28515625 2.625 6.0625 C2.69976562 6.98160156 2.77453125 7.90070313 2.8515625 8.84765625 C2.90054688 9.55792969 2.94953125 10.26820312 3 11 C2.40832031 11.02835938 1.81664063 11.05671875 1.20703125 11.0859375 C-1.49751039 11.41242377 -3.52926346 11.82660672 -6 13 C-8.2606111 16.11737239 -9.67673947 19.39594369 -11 23 C-12.65 23 -14.3 23 -16 23 C-15.56429687 22.33355469 -15.12859375 21.66710937 -14.6796875 20.98046875 C-10.91927566 15.16078376 -7.47984795 9.30554116 -4.359375 3.1171875 C-3 1 -3 1 0 0 Z " fill="#EB6743" transform="translate(71,111)"/>
<path d="M0 0 C1.32 0 2.64 0 4 0 C4.36650943 6.475 4.36650943 6.475 2.84375 8.65625 C0.39216944 10.44299515 -1.70244639 10.73096239 -4.6875 11.1875 C-5.68136719 11.34605469 -6.67523438 11.50460937 -7.69921875 11.66796875 C-8.45847656 11.77753906 -9.21773438 11.88710937 -10 12 C-11.74565111 8.78360346 -12.204437 6.67986596 -12 3 C-10.02 3.99 -10.02 3.99 -8 5 C-7.67 4.01 -7.34 3.02 -7 2 C-6.01 3.485 -6.01 3.485 -5 5 C-4.67 3.68 -4.34 2.36 -4 1 C-1 2 -1 2 1 5 C1.33 3.68 1.66 2.36 2 1 C1.34 0.67 0.68 0.34 0 0 Z " fill="#E8CAC0" transform="translate(78,3)"/>
<path d="M0 0 C-1.34578125 0.60134766 -1.34578125 0.60134766 -2.71875 1.21484375 C-16.25459478 7.34532122 -29.11277667 13.99722668 -40.64453125 23.4453125 C-41.42183594 23.95835938 -42.19914062 24.47140625 -43 25 C-43.99 24.67 -44.98 24.34 -46 24 C-38.08102513 14.98875273 -26.53710983 10.02198687 -15.90087891 4.91357422 C-14.14145598 4.06798462 -12.38876835 3.20841929 -10.63671875 2.34765625 C-9.66347656 1.88230469 -8.69023438 1.41695312 -7.6875 0.9375 C-6.84574219 0.53402344 -6.00398438 0.13054688 -5.13671875 -0.28515625 C-3 -1 -3 -1 0 0 Z " fill="#2180BF" transform="translate(95,35)"/>
<path d="M0 0 C1.34553453 2.69106907 1.20594114 4.87165422 1.25 7.875 C1.28867188 9.44894531 1.28867188 9.44894531 1.328125 11.0546875 C0.96034142 14.35598293 0.37261471 15.70357016 -2 18 C-5.5 18.5 -5.5 18.5 -9 18 C-10.9375 16.5 -10.9375 16.5 -12 14 C-12.54579793 8.36008802 -12.10933766 4.90318631 -9 0 C-5.88173308 -1.55913346 -3.32926126 -0.66585225 0 0 Z M-6 0 C-9.50519182 3.89465758 -9.32312277 7.82570311 -9.30078125 12.79296875 C-9.19884937 15.20458139 -9.19884937 15.20458139 -7 17 C-4.9519572 16.9049261 -4.9519572 16.9049261 -3 16 C-0.75765991 12.63648987 -0.72901785 11.37689944 -0.75 7.4375 C-0.74484375 6.46683594 -0.7396875 5.49617188 -0.734375 4.49609375 C-0.75405504 1.82707063 -0.75405504 1.82707063 -3 0 C-3.99 0 -4.98 0 -6 0 Z " fill="#EB6541" transform="translate(88,64)"/>
<path d="M0 0 C0.33 0 0.66 0 1 0 C1 1.65 1 3.3 1 5 C1.598125 4.690625 2.19625 4.38125 2.8125 4.0625 C5 3 5 3 8 2 C8 3.98 8 5.96 8 8 C8.66 8 9.32 8 10 8 C10.33 6.35 10.66 4.7 11 3 C11.66 3 12.32 3 13 3 C13.66 5.31 14.32 7.62 15 10 C14.01 10.495 14.01 10.495 13 11 C13 10.34 13 9.68 13 9 C12.01 9.66 11.02 10.32 10 11 C6.42611961 11.15131348 3.08016769 10.58918238 -0.0625 8.875 C-1.57898353 5.84203294 -0.66724785 3.21492148 0 0 Z " fill="#E7CBC2" transform="translate(112,5)"/>
<path d="M0 0 C4.75 0.875 4.75 0.875 7 2 C7.125 5.375 7.125 5.375 7 9 C5 11 5 11 1.375 11.125 C0.26125 11.08375 -0.8525 11.0425 -2 11 C-1 3.57142857 -1 3.57142857 0 0 Z " fill="#F9F7F7" transform="translate(45,104)"/>
<path d="M0 0 C0.66 0.33 1.32 0.66 2 1 C0.98058282 6.30096934 -0.55148232 9.94617352 -3.375 14.5625 C-6.0992633 19.748447 -6.12394905 23.19932474 -4.4375 28.6875 C-4.02168374 29.95556243 -3.59865022 31.22128397 -3.16796875 32.484375 C-1.75905745 36.72524515 -1.31133208 40.5635179 -1 45 C-3.33223736 41.50164396 -4.15245549 38.08595267 -5.125 34.0625 C-5.30675781 33.34642578 -5.48851562 32.63035156 -5.67578125 31.89257812 C-6.52085109 28.46464446 -7 25.55227969 -7 22 C-7.66 21.67 -8.32 21.34 -9 21 C-9.73075648 18.6859378 -10.40138258 16.35171131 -11 14 C-10.34 13.67 -9.68 13.34 -9 13 C-8.67 14.65 -8.34 16.3 -8 18 C-7.34 18 -6.68 18 -6 18 C-5.731875 17.154375 -5.46375 16.30875 -5.1875 15.4375 C-4 12 -4 12 -2.4375 8.4375 C-1.23024227 5.55057934 -0.46571771 3.07373688 0 0 Z " fill="#4695C9" transform="translate(155,78)"/>
<path d="M0 0 C0.33 0.99 0.66 1.98 1 3 C1.66 3.33 2.32 3.66 3 4 C1.68 4.33 0.36 4.66 -1 5 C0.06645115 6.29633621 0.06645115 6.29633621 2.5625 6.0625 C3.366875 6.041875 4.17125 6.02125 5 6 C5.12375 6.78375 5.2475 7.5675 5.375 8.375 C5.79117993 11.14057822 5.79117993 11.14057822 8 13 C6.68 13.33 5.36 13.66 4 14 C3.67 15.32 3.34 16.64 3 18 C3 16.35 3 14.7 3 13 C1.68 12.34 0.36 11.68 -1 11 C-1 10.01 -1 9.02 -1 8 C-1.66 8 -2.32 8 -3 8 C-3 7.01 -3 6.02 -3 5 C-3.66 4.67 -4.32 4.34 -5 4 C-3.35 2.68 -1.7 1.36 0 0 Z " fill="#EF9880" transform="translate(162,38)"/>
<path d="M0 0 C0 0.66 0 1.32 0 2 C-1.98 2.33 -3.96 2.66 -6 3 C-6 4.32 -6 5.64 -6 7 C-5.2575 7.0825 -4.515 7.165 -3.75 7.25 C-0.38671849 8.16725859 0.91683686 9.22244915 3 12 C3.50188668 14.93962197 3.4519739 16.31014509 1.8125 18.8125 C-0.55982525 20.36678206 -2.22041345 20.22537188 -5 20 C-5.33 19.34 -5.66 18.68 -6 18 C-4.35 17.67 -2.7 17.34 -1 17 C-1 15.35 -1 13.7 -1 12 C-1.969375 11.649375 -2.93875 11.29875 -3.9375 10.9375 C-7 9 -7 9 -7.875 5.3125 C-7.91625 4.219375 -7.9575 3.12625 -8 2 C-2.25 0 -2.25 0 0 0 Z " fill="#EB6C49" transform="translate(116,60)"/>
<path d="M0 0 C0.99 0.33 1.98 0.66 3 1 C3 1.99 3 2.98 3 4 C3.66 4 4.32 4 5 4 C5.66 2.68 6.32 1.36 7 0 C7 1.65 7 3.3 7 5 C7.66 5.33 8.32 5.66 9 6 C9 7.32 9 8.64 9 10 C5.37 9.34 1.74 8.68 -2 8 C-2 7.34 -2 6.68 -2 6 C-2.66 6 -3.32 6 -4 6 C-2.89131683 3.78263366 -1.50559539 1.96382007 0 0 Z " fill="#E8CAC0" transform="translate(99,3)"/>
<path d="M0 0 C2.939682 2.75515651 5.0831135 5.46843106 7.125 8.9375 C7.87136719 10.18853516 7.87136719 10.18853516 8.6328125 11.46484375 C9.97573828 13.95501184 11.13820903 16.30357156 12 19 C11.67 19.99 11.34 20.98 11 22 C4.56312973 16.83286852 2.58825491 11.97792657 1 4 C0.67351127 2.66497416 0.34285885 1.33091574 0 0 Z " fill="#E1F1F8" transform="translate(142,36)"/>
<path d="M0 0 C0.8146875 0.00257812 1.629375 0.00515625 2.46875 0.0078125 C3.2834375 0.00523438 4.098125 0.00265625 4.9375 0 C6.96875 0.1328125 6.96875 0.1328125 7.96875 1.1328125 C7.78125 4.5703125 7.78125 4.5703125 6.96875 8.1328125 C4.90625 9.5703125 4.90625 9.5703125 2.96875 10.1328125 C3.46375 9.3696875 3.95875 8.6065625 4.46875 7.8203125 C6.21243308 5.20917499 6.21243308 5.20917499 5.96875 2.1328125 C5.30875 1.8028125 4.64875 1.4728125 3.96875 1.1328125 C4.29875 2.4528125 4.62875 3.7728125 4.96875 5.1328125 C3.64875 4.8028125 2.32875 4.4728125 0.96875 4.1328125 C1.29875 5.7828125 1.62875 7.4328125 1.96875 9.1328125 C0.31875 9.4628125 -1.33125 9.7928125 -3.03125 10.1328125 C-3.03125 8.8128125 -3.03125 7.4928125 -3.03125 6.1328125 C-3.051875 5.2459375 -3.0725 4.3590625 -3.09375 3.4453125 C-3.01416325 0.50060277 -2.930182 0.19158882 0 0 Z " fill="#5FB9E3" transform="translate(96.03125,40.8671875)"/>
<path d="M0 0 C3.48539917 0.64544429 6.02819057 2.10134397 9 4 C8.67 4.66 8.34 5.32 8 6 C7.34 5.67 6.68 5.34 6 5 C6 5.66 6 6.32 6 7 C5.34 7 4.68 7 4 7 C4.33 7.99 4.66 8.98 5 10 C4.01 10.33 3.02 10.66 2 11 C0.02 8.69 -1.96 6.38 -4 4 C-3.01 4 -2.02 4 -1 4 C-0.67 2.68 -0.34 1.36 0 0 Z " fill="#EFF6F5" transform="translate(147,25)"/>
<path d="M0 0 C2.31 0.33 4.62 0.66 7 1 C7.875 3.4375 7.875 3.4375 8 7 C6.29484528 10.22667738 4.21776683 13.10726066 2 16 C4.31 16 6.62 16 9 16 C9 16.99 9 17.98 9 19 C5.7 19 2.4 19 -1 19 C0.0063656 16.29055416 1.01615395 13.97576908 2.625 11.5625 C4.26620816 8.5038848 4.23868338 6.42112846 4 3 C2.02 3 0.04 3 -2 3 C-1.34 2.01 -0.68 1.02 0 0 Z " fill="#EC6F4C" transform="translate(95,63)"/>
<path d="M0 0 C1.32 0 2.64 0 4 0 C5.00419637 2.4566947 6.00350501 4.91518353 7 7.375 C7.42925781 8.42300781 7.42925781 8.42300781 7.8671875 9.4921875 C10 14.7734375 10 14.7734375 10 17 C8.16796875 16.86328125 8.16796875 16.86328125 6 16 C4.55078125 13.41796875 4.55078125 13.41796875 3.3125 10.1875 C2.89613281 9.12917969 2.47976562 8.07085937 2.05078125 6.98046875 C1.23026015 4.65311708 0.53005202 2.40562069 0 0 Z " fill="#EA5C35" transform="translate(44,116)"/>
<path d="M0 0 C0.99 0.33 1.98 0.66 3 1 C2.67 1.66 2.34 2.32 2 3 C3.98 3 5.96 3 8 3 C8 6.76687864 7.76462683 7.91190305 6 11 C5.34 10.34 4.68 9.68 4 9 C2.989375 8.690625 1.97875 8.38125 0.9375 8.0625 C-0.031875 7.711875 -1.00125 7.36125 -2 7 C-2.33 6.01 -2.66 5.02 -3 4 C-1.5625 1.8125 -1.5625 1.8125 0 0 Z " fill="#9CC9E8" transform="translate(52,149)"/>
<path d="M0 0 C-0.33 2.97 -0.66 5.94 -1 9 C-1.33 8.34 -1.66 7.68 -2 7 C-2.66 7 -3.32 7 -4 7 C-4 7.66 -4 8.32 -4 9 C-6.31 8.67 -8.62 8.34 -11 8 C-9.68 7.34 -8.36 6.68 -7 6 C-7 6.66 -7 7.32 -7 8 C-6.34 8 -5.68 8 -5 8 C-5 6.68 -5 5.36 -5 4 C-6.32 3.67 -7.64 3.34 -9 3 C-9 2.34 -9 1.68 -9 1 C-5.19495213 -0.79682816 -4.29399165 -1.07349791 0 0 Z " fill="#EEC4B8" transform="translate(18,61)"/>
<path d="M0 0 C2.0625 0.4375 2.0625 0.4375 4 1 C4.625 3.3125 4.625 3.3125 5 6 C2.59563974 9.60654039 1.05320393 9.85452932 -3 11 C-3.66 9.68 -4.32 8.36 -5 7 C-3.35 6.67 -1.7 6.34 0 6 C-0.66 5.67 -1.32 5.34 -2 5 C-1.125 1.125 -1.125 1.125 0 0 Z " fill="#F2C7BA" transform="translate(21,39)"/>
<path d="M0 0 C0.33 0.66 0.66 1.32 1 2 C0.67 2.66 0.34 3.32 0 4 C0.66 4 1.32 4 2 4 C2.28875 4.639375 2.5775 5.27875 2.875 5.9375 C3.82823451 8.15206079 3.82823451 8.15206079 6 9 C6.8515625 11.1796875 6.8515625 11.1796875 7.625 13.875 C7.88539063 14.75929688 8.14578125 15.64359375 8.4140625 16.5546875 C9 19 9 19 9 22 C8.34 22 7.68 22 7 22 C5.705826 19.43873936 4.41459216 16.87606642 3.125 14.3125 C2.76019531 13.59126953 2.39539063 12.87003906 2.01953125 12.12695312 C0.1820758 8.46874636 -1.56138502 4.8388305 -3 1 C-2.01 0.67 -1.02 0.34 0 0 Z " fill="#E8F2F6" transform="translate(159,42)"/>
<path d="M0 0 C0.66 0.33 1.32 0.66 2 1 C1.67 1.66 1.34 2.32 1 3 C2.32 3 3.64 3 5 3 C4.6189482 5.76262553 4.16402868 6.84143894 2.125 8.8125 C1.42375 9.204375 0.7225 9.59625 0 10 C-0.99 9.67 -1.98 9.34 -3 9 C-4.1875 6.4375 -4.1875 6.4375 -5 4 C-3.35 2.68 -1.7 1.36 0 0 Z " fill="#EFC5B7" transform="translate(47,14)"/>
<path d="M0 0 C0.66 0 1.32 0 2 0 C4 6.75 4 6.75 4 9 C2.02 9.66 0.04 10.32 -2 11 C-2 10.34 -2 9.68 -2 9 C-2.99 8.67 -3.98 8.34 -5 8 C-5.33 6.35 -5.66 4.7 -6 3 C-5.01 3.99 -4.02 4.98 -3 6 C-3.33 4.68 -3.66 3.36 -4 2 C-2.68 2.33 -1.36 2.66 0 3 C0 2.01 0 1.02 0 0 Z " fill="#EAD5CE" transform="translate(60,8)"/>
<path d="M0 0 C0.33 0.66 0.66 1.32 1 2 C1.99 1.67 2.98 1.34 4 1 C4 1.66 4 2.32 4 3 C4.66 3 5.32 3 6 3 C6.33 2.01 6.66 1.02 7 0 C6.74438677 2.3431213 6.40729228 4.67843403 6 7 C5.01 7.495 5.01 7.495 4 8 C4.66 8.66 5.32 9.32 6 10 C3.69 10 1.38 10 -1 10 C-0.67 6.7 -0.34 3.4 0 0 Z " fill="#F2BCAD" transform="translate(5,77)"/>
<path d="M0 0 C0.66 0.33 1.32 0.66 2 1 C2.4140625 3.28515625 2.4140625 3.28515625 2.625 6.0625 C2.69976562 6.98160156 2.77453125 7.90070313 2.8515625 8.84765625 C2.90054688 9.55792969 2.94953125 10.26820312 3 11 C0.36 10.67 -2.28 10.34 -5 10 C-3.35 6.7 -1.7 3.4 0 0 Z " fill="#F9E9E4" transform="translate(71,111)"/>
<path d="M0 0 C2.64 0.66 5.28 1.32 8 2 C7.34 3.98 6.68 5.96 6 8 C5.21625 7.95875 4.4325 7.9175 3.625 7.875 C0.83883881 7.71271266 0.83883881 7.71271266 -1 10 C-1.125 2.25 -1.125 2.25 0 0 Z " fill="#F1CDC3" transform="translate(171,72)"/>
<path d="M0 0 C0.66 0 1.32 0 2 0 C2.33 0.99 2.66 1.98 3 3 C6.00847418 4.22520264 6.00847418 4.22520264 9 5 C8.01 5.495 8.01 5.495 7 6 C7.33 6.99 7.66 7.98 8 9 C6.34385343 9.38218767 4.67542976 9.71395102 3 10 C2.67 9.67 2.34 9.34 2 9 C1.34 8.67 0.68 8.34 0 8 C-0.6875 4.5 -0.6875 4.5 -1 1 C-0.67 0.67 -0.34 0.34 0 0 Z " fill="#90C0E0" transform="translate(40,141)"/>
<path d="M0 0 C2.14807336 3.22211003 3.92802253 6.55861722 5.6875 10 C6.02072266 10.6290625 6.35394531 11.258125 6.69726562 11.90625 C7.54322288 13.56650706 8.27922039 15.28169446 9 17 C8.67 17.99 8.34 18.98 8 20 C7.45730469 18.94039062 6.91460937 17.88078125 6.35546875 16.7890625 C5.63321405 15.40083268 4.91053565 14.01282324 4.1875 12.625 C3.83107422 11.92632812 3.47464844 11.22765625 3.10742188 10.5078125 C2.75615234 9.8375 2.40488281 9.1671875 2.04296875 8.4765625 C1.72352295 7.85861816 1.40407715 7.24067383 1.07495117 6.60400391 C-0.06677549 4.67931917 -0.06677549 4.67931917 -3 3 C-2.01 2.01 -1.02 1.02 0 0 Z " fill="#2E87C2" transform="translate(136,72)"/>
<path d="M0 0 C5.43533241 0.49160331 9.2029005 1.87793327 13.9375 4.5625 C15.08089844 5.20316406 16.22429687 5.84382813 17.40234375 6.50390625 C18.25957031 6.99761719 19.11679688 7.49132813 20 8 C19.34 8.66 18.68 9.32 18 10 C12 7 6 4 0 1 C0 0.67 0 0.34 0 0 Z " fill="#1679BC" transform="translate(120,38)"/>
<path d="M0 0 C0 1.65 0 3.3 0 5 C-1.65 5.66 -3.3 6.32 -5 7 C-5.66 4.69 -6.32 2.38 -7 0 C-4.3333581 -1.33332095 -2.83319697 -0.67102033 0 0 Z " fill="#91C5E4" transform="translate(121,156)"/>
<path d="M0 0 C2.29034199 3.43551299 3.99226562 7.00833198 5.78125 10.72265625 C6.91802531 13.11122506 6.91802531 13.11122506 9 15 C8.67 15.99 8.34 16.98 8 18 C6.67683464 16.27898082 5.36685476 14.54781907 4.0625 12.8125 C3.33160156 11.84957031 2.60070313 10.88664062 1.84765625 9.89453125 C0.0572739 7.08972507 -0.73311002 5.28785737 -1 2 C-0.67 1.34 -0.34 0.68 0 0 Z " fill="#2381BF" transform="translate(32,85)"/>
<path d="M0 0 C3.375 -0.125 3.375 -0.125 7 0 C7.66 0.66 8.32 1.32 9 2 C8.90150282 5.64439552 8.00289134 6.99657604 5.625 9.8125 C3 12 3 12 0 12 C0.845625 11.0925 1.69125 10.185 2.5625 9.25 C4.63674425 6.83408187 4.63674425 6.83408187 5.0625 3.75 C3.71424753 1.52934887 2.39012264 0.92520876 0 0 Z " fill="#EB6E4B" transform="translate(65,61)"/>
<path d="M0 0 C2.625 0.375 2.625 0.375 5 1 C4.67 2.65 4.34 4.3 4 6 C2.35 6.33 0.7 6.66 -1 7 C-1.625 4.625 -1.625 4.625 -2 2 C-1.34 1.34 -0.68 0.68 0 0 Z " fill="#A0C9E4" transform="translate(33,136)"/>
<path d="M0 0 C2.76276177 0.52268466 5.3260876 1.10869587 8 2 C6.92598892 4.91517292 6.22189824 6.77810176 4 9 C4 7.35 4 5.7 4 4 C3.34 4 2.68 4 2 4 C2 4.66 2 5.32 2 6 C1.01 5.67 0.02 5.34 -1 5 C-0.67 3.35 -0.34 1.7 0 0 Z " fill="#F0D5CB" transform="translate(130,12)"/>
<path d="M0 0 C1.32 0.33 2.64 0.66 4 1 C3.67 7.6 3.34 14.2 3 21 C2.67 21 2.34 21 2 21 C1.34 14.07 0.68 7.14 0 0 Z " fill="#E9562E" transform="translate(104,108)"/>
<path d="M0 0 C1.32 0 2.64 0 4 0 C4 0.99 4 1.98 4 3 C4.66 3 5.32 3 6 3 C5.34 4.32 4.68 5.64 4 7 C1.36 7 -1.28 7 -4 7 C-4 5.02 -4 3.04 -4 1 C-3.67 1 -3.34 1 -3 1 C-3 2.65 -3 4.3 -3 6 C-2.01 6 -1.02 6 0 6 C0 4.02 0 2.04 0 0 Z " fill="#EC9D85" transform="translate(89,2)"/>
<path d="M0 0 C3.465 1.485 3.465 1.485 7 3 C6.360625 3.268125 5.72125 3.53625 5.0625 3.8125 C2.66868314 4.88667752 2.66868314 4.88667752 2 8 C1.67 7.67 1.34 7.34 1 7 C0.67 7.99 0.34 8.98 0 10 C-2.475 9.01 -2.475 9.01 -5 8 C-4.01 7.34 -3.02 6.68 -2 6 C-2.33 5.01 -2.66 4.02 -3 3 C-2.01 3 -1.02 3 0 3 C0 2.01 0 1.02 0 0 Z " fill="#EFA38E" transform="translate(28,30)"/>
<path d="M0 0 C0.66 0.33 1.32 0.66 2 1 C1.938125 2.093125 1.87625 3.18625 1.8125 4.3125 C1.64402086 7.92126083 1.64402086 7.92126083 3.5 9.9375 C3.995 10.288125 4.49 10.63875 5 11 C0.61110675 10.33501617 -2.9811485 8.81242323 -7 7 C-6.01 6.01 -5.02 5.02 -4 4 C-3.01 4.33 -2.02 4.66 -1 5 C-0.67 3.35 -0.34 1.7 0 0 Z " fill="#E3EAEC" transform="translate(127,10)"/>
<path d="M0 0 C0.33 0 0.66 0 1 0 C1.06058594 0.99 1.12117188 1.98 1.18359375 3 C1.60460466 9.69466638 2.05074129 16.35518903 3 23 C1.68 23 0.36 23 -1 23 C-0.67 15.41 -0.34 7.82 0 0 Z " fill="#E9552D" transform="translate(86,113)"/>
<path d="M0 0 C0.33 0 0.66 0 1 0 C1.3893647 2.60275329 1.76193662 5.20606349 2.125 7.8125 C2.23714844 8.55048828 2.34929687 9.28847656 2.46484375 10.04882812 C3.2265625 15.66015625 3.2265625 15.66015625 1 19 C0.4431237 16.39825 -0.09589581 13.79490754 -0.625 11.1875 C-0.78484375 10.44951172 -0.9446875 9.71152344 -1.109375 8.95117188 C-2.2265625 3.33984375 -2.2265625 3.33984375 0 0 Z " fill="#8DBFDF" transform="translate(166,76)"/>
<path d="M0 0 C1.32 0.33 2.64 0.66 4 1 C4 2.32 4 3.64 4 5 C3.34 5.66 2.68 6.32 2 7 C-0.93453261 6.63318342 -1.86437246 6.13562754 -4 4 C-3.67 3.01 -3.34 2.02 -3 1 C-3 1.66 -3 2.32 -3 3 C-2.34 3 -1.68 3 -1 3 C-0.67 2.01 -0.34 1.02 0 0 Z " fill="#F3B4A3" transform="translate(174,66)"/>
<path d="M0 0 C1.98 0.495 1.98 0.495 4 1 C4.36923077 6.53846154 4.36923077 6.53846154 2.5 8.875 C1.7575 9.431875 1.7575 9.431875 1 10 C0.34 9.67 -0.32 9.34 -1 9 C-0.34 8.34 0.32 7.68 1 7 C0.34 6.34 -0.32 5.68 -1 5 C-0.625 2.375 -0.625 2.375 0 0 Z " fill="#7DC7E9" transform="translate(87,41)"/>
<path d="M0 0 C0.66 0 1.32 0 2 0 C2.75 2.125 2.75 2.125 3 5 C1.0625 8.3125 1.0625 8.3125 -1 11 C-3.76223278 8.23776722 -3.57856291 5.79293383 -4 2 C-2.68 2.33 -1.36 2.66 0 3 C0 2.01 0 1.02 0 0 Z " fill="#EDF2F3" transform="translate(28,36)"/>
<path d="M0 0 C0.12375 0.639375 0.2475 1.27875 0.375 1.9375 C0.58125 2.618125 0.7875 3.29875 1 4 C1.66 4.33 2.32 4.66 3 5 C3 4.34 3 3.68 3 3 C3.66 3 4.32 3 5 3 C5 4.65 5 6.3 5 8 C6.98 7.34 8.96 6.68 11 6 C10.34 7.32 9.68 8.64 9 10 C6.69 9.67 4.38 9.34 2 9 C2 8.34 2 7.68 2 7 C1.01 6.34 0.02 5.68 -1 5 C-0.67 3.35 -0.34 1.7 0 0 Z " fill="#EBB1A0" transform="translate(129,13)"/>
<path d="M0 0 C0.33 0.66 0.66 1.32 1 2 C2.65 1.34 4.3 0.68 6 0 C6 0.99 6 1.98 6 3 C5.34 2.67 4.68 2.34 4 2 C4 2.66 4 3.32 4 4 C3.34 4 2.68 4 2 4 C2.33 4.99 2.66 5.98 3 7 C2.01 7.33 1.02 7.66 0 8 C-0.66 6.02 -1.32 4.04 -2 2 C-1.34 1.34 -0.68 0.68 0 0 Z " fill="#EDBBAC" transform="translate(149,28)"/>
<path d="M0 0 C0.66 0 1.32 0 2 0 C4.29648649 2.5614657 5 3.47967572 5 7 C2.69 7 0.38 7 -2 7 C-1.34 4.69 -0.68 2.38 0 0 Z " fill="#94C6E5" transform="translate(101,159)"/>
<path d="M0 0 C0.33 0 0.66 0 1 0 C1 2.31 1 4.62 1 7 C1.66 7 2.32 7 3 7 C3.99 8.485 3.99 8.485 5 10 C8.465 9.505 8.465 9.505 12 9 C11.01 10.485 11.01 10.485 10 12 C6.5625 12.4375 6.5625 12.4375 3 12 C1.0625 10.5 1.0625 10.5 0 8 C-0.22844671 5.27940731 -0.13704173 2.7408346 0 0 Z " fill="#EC7757" transform="translate(76,70)"/>
<path d="M0 0 C0.99 0.33 1.98 0.66 3 1 C3 4.96 3 8.92 3 13 C2.01 13.33 1.02 13.66 0 14 C0 9.38 0 4.76 0 0 Z " fill="#E9562E" transform="translate(86,65)"/>
<path d="M0 0 C4.875 4.625 4.875 4.625 6 8 C4.68 8.33 3.36 8.66 2 9 C0.14223235 5.86501708 -0.20140476 3.62528568 0 0 Z " fill="#ECD8D0" transform="translate(66,6)"/>
<path d="M0 0 C0.66 0.33 1.32 0.66 2 1 C1.67 1.33 1.34 1.66 1 2 C3.31 2.66 5.62 3.32 8 4 C7.67 4.66 7.34 5.32 7 6 C-0.75 5.25 -0.75 5.25 -3 3 C-2.01 2.01 -1.02 1.02 0 0 Z " fill="#EC7250" transform="translate(63,74)"/>
<path d="M0 0 C0.99 0.33 1.98 0.66 3 1 C2.6875 3.375 2.6875 3.375 2 6 C1.01 6.66 0.02 7.32 -1 8 C-1.99 6.35 -2.98 4.7 -4 3 C-3.01 3 -2.02 3 -1 3 C-0.67 2.01 -0.34 1.02 0 0 Z " fill="#E4F6FB" transform="translate(100,42)"/>
<path d="M0 0 C1.32 0.66 2.64 1.32 4 2 C3 4 3 4 -0.0625 5.125 C-1.5165625 5.558125 -1.5165625 5.558125 -3 6 C-3.66 4.68 -4.32 3.36 -5 2 C-3.35 1.67 -1.7 1.34 0 1 C0 0.67 0 0.34 0 0 Z " fill="#F0A58F" transform="translate(21,44)"/>
<path d="M0 0 C0.12375 0.61875 0.2475 1.2375 0.375 1.875 C0.87197356 4.19120832 0.87197356 4.19120832 3 6 C1.68 6.33 0.36 6.66 -1 7 C-1.33 8.32 -1.66 9.64 -2 11 C-2 9.35 -2 7.7 -2 6 C-2.99 5.67 -3.98 5.34 -5 5 C-4.360625 4.731875 -3.72125 4.46375 -3.0625 4.1875 C-0.66868314 3.11332248 -0.66868314 3.11332248 0 0 Z " fill="#EF9880" transform="translate(167,45)"/>
<path d="M0 0 C1.98 0.495 1.98 0.495 4 1 C3.34 3.31 2.68 5.62 2 8 C0.4375 6.25 0.4375 6.25 -1 4 C-0.6875 1.75 -0.6875 1.75 0 0 Z " fill="#72B1DB" transform="translate(57,152)"/>
<path d="M0 0 C1.32 1.32 2.64 2.64 4 4 C2.02 4.99 2.02 4.99 0 6 C0.33 6.66 0.66 7.32 1 8 C-2 7 -2 7 -3.1875 4.9375 C-3.5896875 3.9784375 -3.5896875 3.9784375 -4 3 C-2.68 2.67 -1.36 2.34 0 2 C0 1.34 0 0.68 0 0 Z " fill="#EEA28C" transform="translate(35,24)"/>
<path d="M0 0 C0.66 0 1.32 0 2 0 C2.33 2.31 2.66 4.62 3 7 C2.401875 6.690625 1.80375 6.38125 1.1875 6.0625 C-1.08956772 4.89790296 -1.08956772 4.89790296 -4 4 C-4 3.01 -4 2.02 -4 1 C-2.68 1.33 -1.36 1.66 0 2 C0 1.34 0 0.68 0 0 Z " fill="#6AADD8" transform="translate(111,157)"/>
<path d="M0 0 C0.99 1.32 1.98 2.64 3 4 C1.8125 5.5 1.8125 5.5 0 7 C-2.6875 7.1875 -2.6875 7.1875 -5 7 C-5.33 6.34 -5.66 5.68 -6 5 C-4.35 4.67 -2.7 4.34 -1 4 C-0.67 2.68 -0.34 1.36 0 0 Z " fill="#EC7453" transform="translate(116,73)"/>
<path d="M0 0 C2 2 2 2 2.125 5.125 C2.08375 6.07375 2.0425 7.0225 2 8 C0.02 6.68 -1.96 5.36 -4 4 C-2.68 3.67 -1.36 3.34 0 3 C0 2.01 0 1.02 0 0 Z " fill="#86BCDE" transform="translate(134,147)"/>
<path d="M0 0 C2 1.375 2 1.375 4 3 C4 3.66 4 4.32 4 5 C2.02 5.33 0.04 5.66 -2 6 C-2.66 5.01 -3.32 4.02 -4 3 C-2.68 2.67 -1.36 2.34 0 2 C0 1.34 0 0.68 0 0 Z " fill="#76B1D8" transform="translate(145,139)"/>
<path d="M0 0 C0.99 0.33 1.98 0.66 3 1 C2.67 2.32 2.34 3.64 2 5 C0.02 5 -1.96 5 -4 5 C-4 4.34 -4 3.68 -4 3 C-2.1875 1.3125 -2.1875 1.3125 0 0 Z " fill="#F0A995" transform="translate(158,34)"/>
<path d="M0 0 C0.66 0 1.32 0 2 0 C1.67 1.98 1.34 3.96 1 6 C-0.65 6 -2.3 6 -4 6 C-2.7260411 3.96166576 -1.38938077 1.96147874 0 0 Z " fill="#EA5A33" transform="translate(59,128)"/>
<path d="M0 0 C0.66 0 1.32 0 2 0 C2.33 1.98 2.66 3.96 3 6 C2.38125 5.814375 1.7625 5.62875 1.125 5.4375 C-1.04160178 4.76313824 -1.04160178 4.76313824 -3 6 C-3.33 4.68 -3.66 3.36 -4 2 C-2.68 2.33 -1.36 2.66 0 3 C0 2.01 0 1.02 0 0 Z " fill="#EC9F88" transform="translate(60,8)"/>
<path d="M0 0 C0.66 0 1.32 0 2 0 C1.67 1.32 1.34 2.64 1 4 C-1.97 3.67 -4.94 3.34 -8 3 C-8 2.67 -8 2.34 -8 2 C-6.865625 1.855625 -5.73125 1.71125 -4.5625 1.5625 C-1.19222799 1.38828522 -1.19222799 1.38828522 0 0 Z " fill="#EE8264" transform="translate(126,130)"/>
<path d="M0 0 C2.375 0.3125 2.375 0.3125 5 1 C5.66 1.99 6.32 2.98 7 4 C4.69 4 2.38 4 0 4 C0 2.68 0 1.36 0 0 Z " fill="#F09B84" transform="translate(4,83)"/>
<path d="M0 0 C1.32 0.33 2.64 0.66 4 1 C4 2.98 4 4.96 4 7 C2.02 6.34 0.04 5.68 -2 5 C-1.01 4.34 -0.02 3.68 1 3 C0.67 2.01 0.34 1.02 0 0 Z " fill="#EFAF9D" transform="translate(25,33)"/>
<path d="M0 0 C1.32 0 2.64 0 4 0 C3.67 1.32 3.34 2.64 3 4 C1.68 4 0.36 4 -1 4 C-0.67 2.68 -0.34 1.36 0 0 Z " fill="#F7F9F7" transform="translate(163,45)"/>
<path d="M0 0 C0.66 0 1.32 0 2 0 C2.66 2.31 3.32 4.62 4 7 C3.01 7.495 3.01 7.495 2 8 C0.4375 6.8125 0.4375 6.8125 -1 5 C-0.6875 2.3125 -0.6875 2.3125 0 0 Z " fill="#EC9C84" transform="translate(123,8)"/>
<path d="M0 0 C1.32 1.32 2.64 2.64 4 4 C3.67 4.99 3.34 5.98 3 7 C-0.875 5.25 -0.875 5.25 -2 3 C-1.34 3 -0.68 3 0 3 C0 2.01 0 1.02 0 0 Z " fill="#EDA590" transform="translate(70,5)"/>
<path d="M0 0 C1.98 0.495 1.98 0.495 4 1 C4 1.99 4 2.98 4 4 C2.35 3.67 0.7 3.34 -1 3 C-0.67 2.01 -0.34 1.02 0 0 Z " fill="#9FD6EF" transform="translate(93,47)"/>
</svg>
