<?xml version="1.0" encoding="UTF-8"?>
<svg version="1.1" xmlns="http://www.w3.org/2000/svg" width="179" height="60">
<path d="M0 0 C2.53814358 1.29204141 4.85820032 2.60515988 7.25 4.125 C8.17619141 4.69347656 8.17619141 4.69347656 9.12109375 5.2734375 C10.40881503 6.06996613 11.67960708 6.89438985 12.93383789 7.74267578 C14.99654386 9.08880234 14.99654386 9.08880234 17.47045898 9.90966797 C20.5627828 11.26988841 22.01558876 12.22992168 24 15 C25.5558515 21.77322758 24.83846861 28.99024847 24.5625 35.875 C24.51733352 37.82282484 24.47627269 39.7707495 24.43945312 41.71875 C24.34048618 46.48163458 24.18532948 51.23972529 24 56 C17.453125 60.015625 17.453125 60.015625 13.375 59.875 C10 59 10 59 7.375 57.75 C6.59125 57.5025 5.8075 57.255 5 57 C4.21625 57.474375 3.4325 57.94875 2.625 58.4375 C-0.88295635 60.52556925 -3.211355 59.94970169 -7 59 C-15.27353437 56.50918381 -23.59208769 52.9640565 -29 46 C-32.59279859 35.96145865 -32.35882421 24.07792541 -29 14 C-25.34303639 8.74257448 -20.1013829 6.60561366 -14.15185547 4.75195312 C-11.96755477 3.98866221 -10.2128318 3.01821649 -8.25390625 1.796875 C-3.66153314 -0.73912936 -3.66153314 -0.73912936 0 0 Z " fill="#D7274F" transform="translate(29,0)"/>
<path d="M0 0 C2.557289 1.31444082 4.90061712 2.64814855 7.3125 4.1875 C8.30455444 4.80443726 8.30455444 4.80443726 9.31665039 5.43383789 C10.62365114 6.24776406 11.92802432 7.0659276 13.22949219 7.88867188 C14.72551658 8.8277098 16.23980258 9.73755961 17.7578125 10.640625 C19.54139798 11.7018264 21.27857853 12.84067533 23 14 C23 14.66 23 15.32 23 16 C20.10260473 18.0998799 17.55823155 19.44872469 14 20 C10.63261156 18.5990968 7.83434331 16.78556752 4.796875 14.7734375 C1.21067218 12.49950443 -0.79261818 11.91585236 -5 12 C-8.33499305 12.83169965 -8.33499305 12.83169965 -11 14 C-11 14.66 -11 15.32 -11 16 C-12.32 16 -13.64 16 -15 16 C-15 16.66 -15 17.32 -15 18 C-16.65 18.66 -18.3 19.32 -20 20 C-21.34569257 31.50733958 -21.34569257 31.50733958 -17.49658203 41.81445312 C-13.41361734 45.05520627 -8.79888683 47.04344451 -4 49 C-3 50 -3 50 -2.90234375 52.28515625 C-2.91394531 53.20167969 -2.92554687 54.11820313 -2.9375 55.0625 C-2.94652344 55.98160156 -2.95554687 56.90070312 -2.96484375 57.84765625 C-2.97644531 58.55792969 -2.98804687 59.26820312 -3 60 C-5.01042969 59.365479 -7.00693341 58.68711718 -9 58 C-9.78213867 57.74444336 -10.56427734 57.48888672 -11.37011719 57.22558594 C-18.18658953 54.80269358 -24.60024029 51.93275774 -29 46 C-32.4003568 35.9281626 -32.25495681 24.10109038 -29 14 C-25.36187356 8.73195833 -20.09613212 6.6039777 -14.15185547 4.75195312 C-11.96755477 3.98866221 -10.2128318 3.01821649 -8.25390625 1.796875 C-3.65553456 -0.7424419 -3.65553456 -0.7424419 0 0 Z " fill="#7687BA" transform="translate(29,0)"/>
<path d="M0 0 C0.04942899 4.92959122 0.08573318 9.85903825 0.10986328 14.78881836 C0.11992237 16.46592725 0.13357122 18.14301861 0.15087891 19.82006836 C0.17513152 22.23035002 0.1864839 24.64039986 0.1953125 27.05078125 C0.20563507 27.80087967 0.21595764 28.55097809 0.22659302 29.32380676 C0.227408 33.10300779 0.15057067 34.77414399 -2 38 C-3.875 38.2578125 -3.875 38.2578125 -6 38.125 C-9.11735621 37.9143627 -9.11735621 37.9143627 -12 39 C-16.98109259 39.37593152 -20.05673864 39.1765161 -24 36 C-27.37622501 32.15808878 -27.50941037 28.36020742 -27.35546875 23.44140625 C-26.71824895 19.06489664 -24.65663647 16.2567587 -21.1875 13.625 C-17.45202434 12.55772124 -13.52479098 12.23760451 -10 14 C-9.97421875 13.24074219 -9.9484375 12.48148438 -9.921875 11.69921875 C-9.86515625 10.70535156 -9.8084375 9.71148437 -9.75 8.6875 C-9.68039063 7.20830078 -9.68039063 7.20830078 -9.609375 5.69921875 C-9 3 -9 3 -7.265625 1.14453125 C-4.63356895 -0.18511086 -2.90765603 -0.08819288 0 0 Z M-18 22 C-18 24.64 -18 27.28 -18 30 C-14.59679066 30.67673447 -14.59679066 30.67673447 -11 31 C-8.60435072 29.05032721 -8.60435072 29.05032721 -8.8125 25.4375 C-8.60712194 22.17036305 -8.60712194 22.17036305 -10 21 C-14.14276875 20.75266863 -14.14276875 20.75266863 -18 22 Z " fill="#D9244C" transform="translate(85,12)"/>
<path d="M0 0 C2.30652397 1.95705064 3.0179222 2.92457811 4.0625 5.75 C4.25384471 8.50198719 4.3419906 11.1274594 4.3125 13.875 C4.32023437 14.60332031 4.32796875 15.33164062 4.3359375 16.08203125 C4.31592069 21.49657931 4.31592069 21.49657931 2.0625 23.75 C-0.2704614 23.79166002 -2.6045386 23.79166002 -4.9375 23.75 C-5.5975 24.08 -6.2575 24.41 -6.9375 24.75 C-11.92970285 25.12677003 -14.91770143 24.82396361 -18.9375 21.75 C-20.38180855 18.86138291 -20.31438506 16.95352299 -19.9375 13.75 C-17.08703786 9.56932219 -14.41972354 8.41004676 -9.625 7.4375 C-8.06540527 7.18933091 -6.50351911 6.95373453 -4.9375 6.75 C-9.05798864 5.75969769 -11.08492381 5.87874871 -14.9375 7.75 C-16.5 6.5 -16.5 6.5 -17.9375 4.75 C-17.9375 2.6875 -17.9375 2.6875 -16.9375 0.75 C-11.93650454 -2.37562216 -5.29580495 -2.25353402 0 0 Z M-10.9375 14.75 C-10.9375 15.74 -10.9375 16.73 -10.9375 17.75 C-8.9575 17.75 -6.9775 17.75 -4.9375 17.75 C-4.6075 16.43 -4.2775 15.11 -3.9375 13.75 C-7.56635324 13.59850702 -7.56635324 13.59850702 -10.9375 14.75 Z " fill="#D7254C" transform="translate(125.9375,26.25)"/>
<path d="M0 0 C3.15954305 2.54137159 4.71540886 4.14622659 6 8 C6.12047541 10.33105907 6.17534303 12.66586142 6.1875 15 C6.20167969 16.2375 6.21585938 17.475 6.23046875 18.75 C6 22 6 22 4 25 C1.69 25 -0.62 25 -3 25 C-3.33 19.39 -3.66 13.78 -4 8 C-5.65 8 -7.3 8 -9 8 C-9.04898438 9.05960938 -9.09796875 10.11921875 -9.1484375 11.2109375 C-9.22346709 12.59898497 -9.29901485 13.98700451 -9.375 15.375 C-9.42140625 16.42300781 -9.42140625 16.42300781 -9.46875 17.4921875 C-9.7734375 22.7734375 -9.7734375 22.7734375 -12 25 C-15.625 25.125 -15.625 25.125 -19 25 C-19.02902429 21.72918529 -19.04680684 18.4584037 -19.0625 15.1875 C-19.07087891 14.25873047 -19.07925781 13.32996094 -19.08789062 12.37304688 C-19.09111328 11.48037109 -19.09433594 10.58769531 -19.09765625 9.66796875 C-19.10289307 8.84578857 -19.10812988 8.0236084 -19.11352539 7.17651367 C-19 5 -19 5 -18 2 C-15.06054016 0.53027008 -12.25044564 1 -9 1 C-5.86128812 -0.56935594 -3.46144178 -0.35201103 0 0 Z " fill="#D7264B" transform="translate(152,25)"/>
<path d="M0 0 C6.25799487 1.50639951 6.25799487 1.50639951 9 4 C9.40547153 7.21356061 9.063687 10.39955882 8.875 13.625 C8.68880406 20.14883264 8.68880406 20.14883264 11.48144531 25.80126953 C15.57169212 29.04676824 20.19318574 31.04021241 25 33 C26 34 26 34 26.09765625 36.28515625 C26.08605469 37.20167969 26.07445313 38.11820313 26.0625 39.0625 C26.05347656 39.98160156 26.04445313 40.90070312 26.03515625 41.84765625 C26.02355469 42.55792969 26.01195313 43.26820312 26 44 C23.9876606 43.37156178 21.99174877 42.69092784 20 42 C18.82679199 41.60071289 18.82679199 41.60071289 17.62988281 41.19335938 C10.94584111 38.71928137 4.28898314 35.89819346 0 30 C-2.54062739 20.33322261 -1.2127469 9.79526345 0 0 Z " fill="#B6BAE3" transform="translate(0,16)"/>
<path d="M0 0 C0 2.64 0 5.28 0 8 C1.98 8 3.96 8 6 8 C5.67 9.98 5.34 11.96 5 14 C3.35 14.33 1.7 14.66 0 15 C0 18.3 0 21.6 0 25 C1.98 25 3.96 25 6 25 C6.125 27.875 6.125 27.875 6 31 C4 33 4 33 0.1875 33.4375 C-2.9678801 33.3110549 -4.13258144 32.92542294 -7 31.3125 C-10.12645046 26.13431643 -9.38873068 20.90006783 -9 15 C-10.32 15 -11.64 15 -13 15 C-13 13.02 -13 11.04 -13 9 C-11.68 8.67 -10.36 8.34 -9 8 C-9.0825 7.236875 -9.165 6.47375 -9.25 5.6875 C-9 3 -9 3 -7.3125 1.1875 C-4.65769564 -0.17577792 -2.94425817 -0.24535485 0 0 Z " fill="#D7254D" transform="translate(173,18)"/>
<path d="M0 0 C0 13.53 0 27.06 0 41 C-7 45 -7 45 -9 45 C-9 31.47 -9 17.94 -9 4 C-1 0 -1 0 0 0 Z " fill="#243769" transform="translate(53,15)"/>
<path d="M0 0 C0 2.64 0 5.28 0 8 C-1.7015625 8.2165625 -1.7015625 8.2165625 -3.4375 8.4375 C-6.80777201 8.61171478 -6.80777201 8.61171478 -8 10 C-8.24479131 13.03722557 -8.38408365 16.07340606 -8.5234375 19.1171875 C-9 22 -9 22 -10.1640625 23.8828125 C-12.79363951 25.48293809 -14.9892023 25.20071985 -18 25 C-18.05787784 21.37506666 -18.0935542 17.75025143 -18.125 14.125 C-18.14175781 13.09246094 -18.15851563 12.05992188 -18.17578125 10.99609375 C-18.18222656 10.00996094 -18.18867187 9.02382813 -18.1953125 8.0078125 C-18.20578613 7.09660645 -18.21625977 6.18540039 -18.22705078 5.24658203 C-18 3 -18 3 -16 1 C-14.125 0.83984375 -14.125 0.83984375 -12 0.9375 C-7.80246003 1.11496952 -4.31072676 -0.09371145 0 0 Z " fill="#D6264C" transform="translate(106,25)"/>
<path d="M0 0 C1.4375 2.0625 1.4375 2.0625 2 4 C1.030625 4.474375 0.06125 4.94875 -0.9375 5.4375 C-4.29334094 8.24544855 -4.45691583 8.66563926 -4.875 12.75 C-4.94349789 14.16562304 -4.99394331 15.58273366 -5 17 C-7.9719385 15.87548273 -10.33440687 14.77706209 -13 13 C-13.76416167 9.59977676 -13.67040808 6.41248703 -13 3 C-8.92052023 -1.27847878 -5.58003147 -1.71693276 0 0 Z " fill="#8187B7" transform="translate(31,22)"/>
<path d="M0 0 C5.75 1.75 5.75 1.75 8 4 C8.17546482 7.01308951 8.23127445 9.93310454 8.1953125 12.9453125 C8.1924826 13.8303244 8.18965271 14.7153363 8.18673706 15.62716675 C8.1755224 18.45991412 8.1504157 21.29234784 8.125 24.125 C8.11497185 26.04296419 8.10584572 27.96093333 8.09765625 29.87890625 C8.07557889 34.58605876 8.04104045 39.29297616 8 44 C7.34 44 6.68 44 6 44 C6 31.13 6 18.26 6 5 C5.34 5 4.68 5 4 5 C4 4.34 4 3.68 4 3 C3.01 3 2.02 3 1 3 C0.67 2.01 0.34 1.02 0 0 Z " fill="#96325F" transform="translate(36,16)"/>
<path d="M0 0 C0.28329101 3.70796458 0.44731303 7.30148499 0 11 C-2.82991149 13.6769433 -4.13680915 14 -8 14 C-8.35040695 10.59975479 -8.530811 7.38657418 -8 4 C-3.61904762 0 -3.61904762 0 0 0 Z " fill="#303568" transform="translate(34,46)"/>
<path d="M0 0 C2.9719385 1.12451727 5.33440687 2.22293791 8 4 C8.29296875 6.1640625 8.29296875 6.1640625 8.1875 8.625 C8.16042969 9.44226562 8.13335937 10.25953125 8.10546875 11.1015625 C8.07066406 11.72804688 8.03585938 12.35453125 8 13 C5.0280615 11.87548273 2.66559313 10.77706209 0 9 C-0.29296875 6.8359375 -0.29296875 6.8359375 -0.1875 4.375 C-0.16042969 3.55773437 -0.13335938 2.74046875 -0.10546875 1.8984375 C-0.05326172 0.95871094 -0.05326172 0.95871094 0 0 Z " fill="#BBB5E4" transform="translate(18,26)"/>
<path d="M0 0 C0.52493438 5.24934383 0.52493438 5.24934383 0 8 C-4.6 12 -4.6 12 -8 12 C-8.2878026 8.94929243 -8.44198649 6.04000462 -8 3 C-5.16755403 0.47376441 -3.78435224 0 0 0 Z " fill="#323564" transform="translate(34,27)"/>
<path d="M0 0 C1.52519276 0.08937803 3.04681929 0.24537146 4.5625 0.4375 C5.38878906 0.53933594 6.21507812 0.64117187 7.06640625 0.74609375 C7.70449219 0.82988281 8.34257812 0.91367187 9 1 C8.01 2.485 8.01 2.485 7 4 C6.34 3.67 5.68 3.34 5 3 C5 5.31 5 7.62 5 10 C6.32 10.33 7.64 10.66 9 11 C7 12.3125 7 12.3125 4 13 C1.09918899 11.65415238 -1.43354639 9.89777463 -4 8 C-2.68 7.67 -1.36 7.34 0 7 C-0.185625 6.030625 -0.37125 5.06125 -0.5625 4.0625 C-0.706875 3.051875 -0.85125 2.04125 -1 1 C-0.67 0.67 -0.34 0.34 0 0 Z " fill="#CF3763" transform="translate(21,37)"/>
<path d="M0 0 C0.66 0 1.32 0 2 0 C2.33 6.93 2.66 13.86 3 21 C2.01 20.67 1.02 20.34 0 20 C0 13.4 0 6.8 0 0 Z " fill="#BE3258" transform="translate(9,20)"/>
<path d="M0 0 C0.99 0.495 0.99 0.495 2 1 C1.67 1.99 1.34 2.98 1 4 C2.7015625 3.9690625 2.7015625 3.9690625 4.4375 3.9375 C8 4 8 4 9 5 C9.07226502 6.85287502 9.0838122 8.70833878 9.0625 10.5625 C9.05347656 11.57441406 9.04445313 12.58632813 9.03515625 13.62890625 C9.02355469 14.41136719 9.01195312 15.19382812 9 16 C8.67 16 8.34 16 8 16 C8 12.7 8 9.4 8 6 C7.01 6.495 7.01 6.495 6 7 C4.00039988 7.039992 1.99952758 7.04346799 0 7 C0 4.69 0 2.38 0 0 Z " fill="#BE2852" transform="translate(26,40)"/>
<path d="M0 0 C2.33944736 0.28730055 4.6739143 0.61936779 7 1 C6.67 1.99 6.34 2.98 6 4 C3.0625 5.25 3.0625 5.25 0 6 C-0.66 5.67 -1.32 5.34 -2 5 C-1.125 1.125 -1.125 1.125 0 0 Z " fill="#7388BC" transform="translate(25,24)"/>
<path d="M0 0 C2.9375 1.5625 2.9375 1.5625 5 3 C2.09905209 4.45047396 0.44027404 3.45356803 -2.625 2.5625 C-3.62789062 2.27503906 -4.63078125 1.98757812 -5.6640625 1.69140625 C-6.43492188 1.46324219 -7.20578125 1.23507812 -8 1 C-8 1.66 -8 2.32 -8 3 C-9.65 3 -11.3 3 -13 3 C-8.11974014 -0.74153256 -6.21070182 -1.26319359 0 0 Z " fill="#B73C6B" transform="translate(31,12)"/>
<path d="M0 0 C0.99 0.33 1.98 0.66 3 1 C2.67 1.99 2.34 2.98 2 4 C1.34 4 0.68 4 0 4 C-0.33 5.98 -0.66 7.96 -1 10 C-1.33 10 -1.66 10 -2 10 C-2.1953125 3.9453125 -2.1953125 3.9453125 -2 2 C-1.34 1.34 -0.68 0.68 0 0 Z " fill="#324076" transform="translate(28,28)"/>
<path d="M0 0 C2 2 2 2 2.1953125 4.6015625 C2.17210937 5.59929688 2.14890625 6.59703125 2.125 7.625 C2.10695313 8.62789062 2.08890625 9.63078125 2.0703125 10.6640625 C2.03550781 11.82035156 2.03550781 11.82035156 2 13 C0.35 13.33 -1.3 13.66 -3 14 C-2.525625 13.67 -2.05125 13.34 -1.5625 13 C0.85791615 9.90186733 0.68198917 6.87973208 1 3 C0.34 2.67 -0.32 2.34 -1 2 C-0.67 1.34 -0.34 0.68 0 0 Z " fill="#9B305D" transform="translate(33,24)"/>
<path d="M0 0 C0.33 0.66 0.66 1.32 1 2 C-0.8253125 1.9690625 -0.8253125 1.9690625 -2.6875 1.9375 C-5.91977322 1.93175884 -8.84934741 2.21233685 -12 3 C-7.94117153 -1.24332067 -5.82608245 -1.16521649 0 0 Z " fill="#9B6D9A" transform="translate(31,22)"/>
<path d="M0 0 C-1.75 2.5 -1.75 2.5 -4 5 C-5.32 5 -6.64 5 -8 5 C-8 4.01 -8 3.02 -8 2 C-3.71900826 -1.23966942 -3.71900826 -1.23966942 0 0 Z " fill="#2C3C6F" transform="translate(52,17)"/>
<path d="M0 0 C0.99 0.33 1.98 0.66 3 1 C2.34 1 1.68 1 1 1 C1 1.66 1 2.32 1 3 C-0.32 3 -1.64 3 -3 3 C-3 3.66 -3 4.32 -3 5 C-6 7 -6 7 -9 7 C-9 6.01 -9 5.02 -9 4 C-7.35 4 -5.7 4 -4 4 C-4 3.34 -4 2.68 -4 2 C-2.68 2 -1.36 2 0 2 C0 1.34 0 0.68 0 0 Z " fill="#9475A6" transform="translate(17,13)"/>
<path d="M0 0 C1.98 0 3.96 0 6 0 C6 0.66 6 1.32 6 2 C7.32 2.66 8.64 3.32 10 4 C6.38970831 4 3.44193324 3.03907418 0 2 C0 1.34 0 0.68 0 0 Z " fill="#9279A6" transform="translate(24,9)"/>
<path d="M0 0 C0.99 0 1.98 0 3 0 C3 2.31 3 4.62 3 7 C2.34 7 1.68 7 1 7 C0.67 4.69 0.34 2.38 0 0 Z " fill="#F73262" transform="translate(23,40)"/>
</svg>
