<?xml version="1.0" encoding="UTF-8"?>
<svg version="1.1" xmlns="http://www.w3.org/2000/svg" width="312" height="158">
<path d="M0 0 C24.09 0 48.18 0 73 0 C73 25.41 73 50.82 73 77 C48.91 77 24.82 77 0 77 C0 74.03 0 71.06 0 68 C-1.0725 67.938125 -2.145 67.87625 -3.25 67.8125 C-16.55528692 66.00879033 -25.92650533 58.44139887 -34.16796875 48.34375 C-35.90040232 45.95011044 -37.48266454 43.53449662 -39 41 C-39.45503906 40.25363281 -39.91007812 39.50726563 -40.37890625 38.73828125 C-41.5625 36.625 -41.5625 36.625 -43 33 C-40.95343165 26.1185856 -31.49186562 21.33262438 -25.48046875 17.96484375 C-17.39825371 13.76779492 -9.23561796 10 0 10 C0 6.7 0 3.4 0 0 Z M1 11 C1 12.32 1 13.64 1 15 C1.89460938 15.15855469 2.78921875 15.31710938 3.7109375 15.48046875 C14.31635917 17.52693071 23.0848541 20.48061139 31 28 C33 31 33 31 32.87890625 32.91015625 C29.89894939 39.99583144 21.69039198 45.60939411 15 49 C11.99221479 50.00259507 9.46179353 50.30314642 6.3125 50.5625 C5.31863281 50.64628906 4.32476562 50.73007812 3.30078125 50.81640625 C2.54152344 50.87699219 1.78226563 50.93757813 1 51 C1 52.32 1 53.64 1 55 C14.9449099 55.95440448 25.57138261 50.3368243 36.10546875 41.4296875 C41.58356084 36.96042428 41.58356084 36.96042428 45 31 C36.22851691 21.32372209 25.04318452 13.53003391 12 11 C10.08438746 10.93311409 8.16664408 10.91468281 6.25 10.9375 C5.26515625 10.94652344 4.2803125 10.95554687 3.265625 10.96484375 C2.14414063 10.98224609 2.14414063 10.98224609 1 11 Z M-28 30 C-29.47731935 31.86422231 -29.47731935 31.86422231 -30 34 C-27.45522366 43.73505044 -18.87491875 52.21181051 -11 58 C-8.92451259 59.07023063 -8.92451259 59.07023063 -6.875 59.75 C-6.21242188 59.99234375 -5.54984375 60.2346875 -4.8671875 60.484375 C-2.84088514 61.13309373 -2.84088514 61.13309373 0 61 C0 59.35 0 57.7 0 56 C-0.78503906 55.67128906 -1.57007813 55.34257813 -2.37890625 55.00390625 C-9.9363174 51.58220721 -14.67615064 48.12011121 -19 41 C-19.40992188 40.35289063 -19.81984375 39.70578125 -20.2421875 39.0390625 C-21.27337267 36.26443023 -20.98348582 34.7732528 -20 32 C-14.58089844 26.53048819 -7.32350267 24.56052206 0 23 C0 21.02 0 19.04 0 17 C-10.83721098 16.48699593 -20.52112967 22.50623152 -28 30 Z M1 23 C0.32845316 25.28341743 0.32845316 25.28341743 1 28 C2.89271027 29.42403915 4.88455649 30.51241266 6.953125 31.6640625 C9.97409382 33.63576352 11.25906248 35.88082028 13 39 C16.43595166 37.47291037 19.11912454 35.40072955 22 33 C20.614012 29.64933828 19.2243823 28.16628149 16.125 26.3125 C15.44695312 25.89613281 14.76890625 25.47976562 14.0703125 25.05078125 C9.72245713 22.84403956 5.83969514 22.90692894 1 23 Z M-9 32 C-10.92336969 34.02946853 -10.92336969 34.02946853 -12 36 C-8.96287836 41.4157523 -6.04302687 45.33234409 -1 49 C-0.67 49 -0.34 49 0 49 C0 42.4 0 35.8 0 29 C-3.39785093 29 -5.99246426 30.52261402 -9 32 Z M44.1875 46.5625 C30.77493623 57.28492482 17.98833176 61.09331937 1 62 C1 63.65 1 65.3 1 67 C22.09046322 68.45786612 46.15359475 62.10275964 63 49 C55.51013128 42.79410877 52.08968666 39.99285741 44.1875 46.5625 Z " fill="#7ABB08" transform="translate(133,0)"/>
<path d="M0 0 C0.33 0 0.66 0 1 0 C1 3.3 1 6.6 1 10 C3.97 10 6.94 10 10 10 C10 10.33 10 10.66 10 11 C7.03 11 4.06 11 1 11 C1 12.32 1 13.64 1 15 C2.01707031 15.03867187 2.01707031 15.03867187 3.0546875 15.078125 C14.99996402 15.80609199 23.25445002 19.80945607 32 28 C34 31 34 31 33.91015625 32.87890625 C30.74522506 40.25469009 22.06378463 46.49257807 15 50 C11.85069107 51.04976964 9.61185544 51.10131595 6.3125 51.0625 C5.31863281 51.05347656 4.32476562 51.04445312 3.30078125 51.03515625 C2.16189453 51.01775391 2.16189453 51.01775391 1 51 C1 52.32 1 53.64 1 55 C3.97 55 6.94 55 10 55 C10 55.33 10 55.66 10 56 C7.03 56 4.06 56 1 56 C1 59.63 1 63.26 1 67 C4.3 67 7.6 67 11 67 C11 67.33 11 67.66 11 68 C7.7 68 4.4 68 1 68 C1 70.64 1 73.28 1 76 C24.43 76 47.86 76 72 76 C72 50.92 72 25.84 72 0 C72.33 0 72.66 0 73 0 C73 25.41 73 50.82 73 77 C48.91 77 24.82 77 0 77 C0 74.03 0 71.06 0 68 C-1.0725 67.938125 -2.145 67.87625 -3.25 67.8125 C-16.55528692 66.00879033 -25.92650533 58.44139887 -34.16796875 48.34375 C-35.90040232 45.95011044 -37.48266454 43.53449662 -39 41 C-39.45503906 40.25363281 -39.91007812 39.50726563 -40.37890625 38.73828125 C-41.5625 36.625 -41.5625 36.625 -43 33 C-40.95343165 26.1185856 -31.49186562 21.33262438 -25.48046875 17.96484375 C-17.39825371 13.76779492 -9.23561796 10 0 10 C0 6.7 0 3.4 0 0 Z M-28 30 C-29.47731935 31.86422231 -29.47731935 31.86422231 -30 34 C-27.45522366 43.73505044 -18.87491875 52.21181051 -11 58 C-8.92451259 59.07023063 -8.92451259 59.07023063 -6.875 59.75 C-6.21242188 59.99234375 -5.54984375 60.2346875 -4.8671875 60.484375 C-2.84088514 61.13309373 -2.84088514 61.13309373 0 61 C0 59.35 0 57.7 0 56 C-0.78503906 55.67128906 -1.57007813 55.34257813 -2.37890625 55.00390625 C-9.9363174 51.58220721 -14.67615064 48.12011121 -19 41 C-19.40992188 40.35289063 -19.81984375 39.70578125 -20.2421875 39.0390625 C-21.27337267 36.26443023 -20.98348582 34.7732528 -20 32 C-14.58089844 26.53048819 -7.32350267 24.56052206 0 23 C0 21.02 0 19.04 0 17 C-10.83721098 16.48699593 -20.52112967 22.50623152 -28 30 Z M1 23 C0.32845316 25.28341743 0.32845316 25.28341743 1 28 C2.89271027 29.42403915 4.88455649 30.51241266 6.953125 31.6640625 C9.97409382 33.63576352 11.25906248 35.88082028 13 39 C16.43595166 37.47291037 19.11912454 35.40072955 22 33 C20.614012 29.64933828 19.2243823 28.16628149 16.125 26.3125 C15.44695312 25.89613281 14.76890625 25.47976562 14.0703125 25.05078125 C9.72245713 22.84403956 5.83969514 22.90692894 1 23 Z M-9 32 C-10.92336969 34.02946853 -10.92336969 34.02946853 -12 36 C-8.96287836 41.4157523 -6.04302687 45.33234409 -1 49 C-0.67 49 -0.34 49 0 49 C0 42.4 0 35.8 0 29 C-3.39785093 29 -5.99246426 30.52261402 -9 32 Z " fill="#87C11F" transform="translate(133,0)"/>
<path d="M0 0 C20.45294118 0 20.45294118 0 24.69140625 3.328125 C28.78062294 7.94160024 29.3085144 11.89203499 29.21875 17.90625 C28.76982637 22.2030905 27.22689868 25.6854657 24.25 28.875 C17.23956443 32.38021779 7.13991013 31 0 31 C0 20.77 0 10.54 0 0 Z M9 8 C9 12.95 9 17.9 9 23 C15.63019987 23.64715023 15.63019987 23.64715023 19 21 C20.13713546 15.72129832 20.13713546 15.72129832 19.1875 10.5625 C18.06705694 8.84956695 18.06705694 8.84956695 16 8 C13.69 8 11.38 8 9 8 Z " fill="#242424" transform="translate(157,89)"/>
<path d="M0 0 C12.15309354 -0.83177066 19.64744762 2.41348134 28.96875 10.09765625 C31 12 31 12 33 15 C32.75402198 20.14414907 28.13902896 23.26763384 24.66796875 26.58203125 C17.29590917 33.26329755 12.94807743 34.54956167 2.78125 34.17578125 C1.40453125 34.08876953 1.40453125 34.08876953 0 34 C-0.02888514 30.85418577 -0.04675923 27.70840531 -0.0625 24.5625 C-0.07087891 23.66466797 -0.07925781 22.76683594 -0.08789062 21.84179688 C-0.09111328 20.98779297 -0.09433594 20.13378906 -0.09765625 19.25390625 C-0.10551147 18.06776733 -0.10551147 18.06776733 -0.11352539 16.85766602 C0 15 0 15 1 14 C3.1875 13.5 3.1875 13.5 6 14 C8.32974739 16.0891162 10.27939925 18.38657893 12 21 C12 21.66 12 22.32 12 23 C14.64 21.02 17.28 19.04 20 17 C17.72990724 12.45981448 15.57118325 10.81881587 11 9 C7.35744178 8.12852774 3.70927848 7.50977426 0 7 C0 4.69 0 2.38 0 0 Z " fill="#83C019" transform="translate(134,16)"/>
<path d="M0 0 C0.33 0 0.66 0 1 0 C1 3.3 1 6.6 1 10 C3.97 10 6.94 10 10 10 C10 10.33 10 10.66 10 11 C7.03 11 4.06 11 1 11 C1 12.32 1 13.64 1 15 C2.98 15 4.96 15 7 15 C7 15.33 7 15.66 7 16 C5.02 16 3.04 16 1 16 C1.0868748 17.95917659 1.19504512 19.91741871 1.3125 21.875 C1.37050781 22.96554688 1.42851562 24.05609375 1.48828125 25.1796875 C1.65714844 26.11039063 1.82601562 27.04109375 2 28 C2.99 28.66 3.98 29.32 5 30 C4.01 30.33 3.02 30.66 2 31 C1.67 37.27 1.34 43.54 1 50 C4.63 50 8.26 50 12 50 C12 50.33 12 50.66 12 51 C8.37 51 4.74 51 1 51 C1 52.32 1 53.64 1 55 C3.97 55 6.94 55 10 55 C10 55.33 10 55.66 10 56 C7.03 56 4.06 56 1 56 C1 59.63 1 63.26 1 67 C4.3 67 7.6 67 11 67 C11 67.33 11 67.66 11 68 C7.7 68 4.4 68 1 68 C1 70.64 1 73.28 1 76 C24.43 76 47.86 76 72 76 C72 50.92 72 25.84 72 0 C72.33 0 72.66 0 73 0 C73 25.41 73 50.82 73 77 C48.91 77 24.82 77 0 77 C0 74.03 0 71.06 0 68 C-1.32 67.67 -2.64 67.34 -4 67 C-2.68 67 -1.36 67 0 67 C0 65.35 0 63.7 0 62 C-0.66 61.67 -1.32 61.34 -2 61 C-1.34 61 -0.68 61 0 61 C0.2113453 58.6087705 0.2113453 58.6087705 -1 56 C-3.15190882 54.78842108 -5.36562289 53.92841264 -7.65625 53.0078125 C-14.62540433 50.01107614 -19.21186428 43.94321737 -22 37 C-21.86375404 33.95717356 -21.50698262 32.54870438 -19.43359375 30.3046875 C-13.54166998 26.08464034 -7.56408428 22.2908671 0 23 C0 21.02 0 19.04 0 17 C-0.99 16.67 -1.98 16.34 -3 16 C-2.01 16 -1.02 16 0 16 C0 14.35 0 12.7 0 11 C-1.32 10.67 -2.64 10.34 -4 10 C-2.68 10 -1.36 10 0 10 C0 6.7 0 3.4 0 0 Z M-9 32 C-10.92336969 34.02946853 -10.92336969 34.02946853 -12 36 C-8.96287836 41.4157523 -6.04302687 45.33234409 -1 49 C-0.67 49 -0.34 49 0 49 C0 42.4 0 35.8 0 29 C-3.39785093 29 -5.99246426 30.52261402 -9 32 Z " fill="#8BC327" transform="translate(133,0)"/>
<path d="M0 0 C20.9197433 -0.49416716 20.9197433 -0.49416716 26 3 C28.5875325 6.63330198 29.36737399 9.08001887 29.29296875 13.51953125 C29.28330078 14.54111328 29.27363281 15.56269531 29.26367188 16.61523438 C29.23853516 17.67033203 29.21339844 18.72542969 29.1875 19.8125 C29.16719727 21.42415039 29.16719727 21.42415039 29.14648438 23.06835938 C29.11122577 25.71275455 29.06194366 28.35611748 29 31 C26.03 31 23.06 31 20 31 C19.505 21.1 19.505 21.1 19 11 C14.82844992 8.66915342 14.82844992 8.66915342 9 8 C9 15.59 9 23.18 9 31 C6.03 31 3.06 31 0 31 C0 20.77 0 10.54 0 0 Z " fill="#222222" transform="translate(81,89)"/>
<path d="M0 0 C3.96 0 7.92 0 12 0 C13.5755766 3.76827943 15.14185668 7.54027448 16.69970703 11.31591797 C17.23070661 12.59919394 17.76421316 13.8814356 18.30029297 15.16259766 C19.07140415 17.00668359 19.8327012 18.85486363 20.59375 20.703125 C21.05458984 21.81333008 21.51542969 22.92353516 21.99023438 24.06738281 C23 27 23 27 23 31 C20.03 31 17.06 31 14 31 C13.34 29.35 12.68 27.7 12 26 C8.04 26 4.08 26 0 26 C-0.99 28.475 -0.99 28.475 -2 31 C-4.97 31 -7.94 31 -11 31 C-10.3339303 27.0577597 -9.16360451 23.54698373 -7.71484375 19.82421875 C-7.26689453 18.66728516 -6.81894531 17.51035156 -6.35742188 16.31835938 C-5.88884766 15.12017578 -5.42027344 13.92199219 -4.9375 12.6875 C-4.46505859 11.46998047 -3.99261719 10.25246094 -3.50585938 8.99804688 C-2.34085964 5.99728997 -1.17090695 2.99845682 0 0 Z M5 9 C4.01 12.3 3.02 15.6 2 19 C4.64 19 7.28 19 10 19 C9.01 15.7 8.02 12.4 7 9 C6.34 9 5.68 9 5 9 Z " fill="#292929" transform="translate(211,89)"/>
<path d="M0 0 C2.97 0 5.94 0 9 0 C10.98 6.27 12.96 12.54 15 19 C17.50997937 12.31620763 17.50997937 12.31620763 19.625 5.5625 C20.8891258 1.1108742 20.8891258 1.1108742 22 0 C23.51928038 -0.07179964 25.04167482 -0.08392007 26.5625 -0.0625 C27.38878906 -0.05347656 28.21507812 -0.04445313 29.06640625 -0.03515625 C29.70449219 -0.02355469 30.34257812 -0.01195313 31 0 C29.17849179 7.11027326 27.07092307 14.1231162 24.875 21.125 C24.47643799 22.40564331 24.47643799 22.40564331 24.06982422 23.7121582 C23.69108154 24.91038208 23.69108154 24.91038208 23.3046875 26.1328125 C23.07765137 26.85355957 22.85061523 27.57430664 22.61669922 28.31689453 C22 30 22 30 21 31 C18.98035801 31.07244053 16.95832876 31.08377188 14.9375 31.0625 C13.28041016 31.04896484 13.28041016 31.04896484 11.58984375 31.03515625 C10.73519531 31.02355469 9.88054687 31.01195313 9 31 C6.75039463 25.13616378 4.71509541 19.23495444 2.8125 13.25 C2.53986328 12.41339844 2.26722656 11.57679687 1.98632812 10.71484375 C1.72916016 9.90660156 1.47199219 9.09835938 1.20703125 8.265625 C0.9747583 7.54149414 0.74248535 6.81736328 0.50317383 6.07128906 C0 4 0 4 0 0 Z " fill="#292929" transform="translate(111,89)"/>
<path d="M0 0 C0.33 0 0.66 0 1 0 C1 3.3 1 6.6 1 10 C3.97 10 6.94 10 10 10 C10 10.33 10 10.66 10 11 C7.03 11 4.06 11 1 11 C1 12.32 1 13.64 1 15 C2.98 15 4.96 15 7 15 C7 15.33 7 15.66 7 16 C5.02 16 3.04 16 1 16 C1.0868748 17.95917659 1.19504512 19.91741871 1.3125 21.875 C1.37050781 22.96554688 1.42851562 24.05609375 1.48828125 25.1796875 C1.65714844 26.11039063 1.82601562 27.04109375 2 28 C2.99 28.66 3.98 29.32 5 30 C4.01 30.33 3.02 30.66 2 31 C1.67 37.27 1.34 43.54 1 50 C4.63 50 8.26 50 12 50 C12 50.33 12 50.66 12 51 C8.37 51 4.74 51 1 51 C1 52.32 1 53.64 1 55 C3.97 55 6.94 55 10 55 C10 55.33 10 55.66 10 56 C7.03 56 4.06 56 1 56 C1 59.63 1 63.26 1 67 C4.3 67 7.6 67 11 67 C11 67.33 11 67.66 11 68 C7.7 68 4.4 68 1 68 C1 70.64 1 73.28 1 76 C24.43 76 47.86 76 72 76 C72 50.92 72 25.84 72 0 C72.33 0 72.66 0 73 0 C73 25.41 73 50.82 73 77 C48.91 77 24.82 77 0 77 C0 74.03 0 71.06 0 68 C-1.32 67.67 -2.64 67.34 -4 67 C-2.68 67 -1.36 67 0 67 C0 65.35 0 63.7 0 62 C-0.66 61.67 -1.32 61.34 -2 61 C-1.34 61 -0.68 61 0 61 C-0.07726318 60.40533936 -0.15452637 59.81067871 -0.23413086 59.19799805 C-1.22156207 50.36209191 -0.8986728 41.67271238 -0.5625 32.8125 C-0.50913872 31.27280806 -0.45639993 29.73309441 -0.40429688 28.19335938 C-0.27669597 24.46196234 -0.14071149 20.73092837 0 17 C-0.99 16.67 -1.98 16.34 -3 16 C-2.01 16 -1.02 16 0 16 C0 14.35 0 12.7 0 11 C-1.32 10.67 -2.64 10.34 -4 10 C-2.68 10 -1.36 10 0 10 C0 6.7 0 3.4 0 0 Z " fill="#98CB40" transform="translate(133,0)"/>
<path d="M0 0 C2.97 0 5.94 0 9 0 C9 10.23 9 20.46 9 31 C6.03 31 3.06 31 0 31 C0 20.77 0 10.54 0 0 Z " fill="#282828" transform="translate(189,89)"/>
<path d="M0 0 C2.97 0 5.94 0 9 0 C9 10.23 9 20.46 9 31 C6.03 31 3.06 31 0 31 C0 20.77 0 10.54 0 0 Z " fill="#272727" transform="translate(144,89)"/>
<path d="M0 0 C1.32 0 2.64 0 4 0 C5.703125 2.1875 5.703125 2.1875 7.25 5 C8.03117187 6.3921875 8.03117187 6.3921875 8.828125 7.8125 C9.21484375 8.534375 9.6015625 9.25625 10 10 C10.33 6.7 10.66 3.4 11 0 C11.99 0 12.98 0 14 0 C14 5.94 14 11.88 14 18 C9 17 9 17 7.63671875 15.37109375 C6.31835938 12.68554688 6.31835938 12.68554688 5 10 C4.67 12.64 4.34 15.28 4 18 C2.68 18 1.36 18 0 18 C0 12.06 0 6.12 0 0 Z " fill="#5C5C5C" transform="translate(97,138)"/>
<path d="M0 0 C1.32 0 2.64 0 4 0 C5.703125 2.1875 5.703125 2.1875 7.25 5 C8.03117187 6.3921875 8.03117187 6.3921875 8.828125 7.8125 C9.21484375 8.534375 9.6015625 9.25625 10 10 C10.33 6.7 10.66 3.4 11 0 C11.99 0 12.98 0 14 0 C14 5.94 14 11.88 14 18 C9 17 9 17 7.63671875 15.37109375 C6.31835938 12.68554688 6.31835938 12.68554688 5 10 C4.67 12.64 4.34 15.28 4 18 C2.68 18 1.36 18 0 18 C0 12.06 0 6.12 0 0 Z " fill="#5C5C5C" transform="translate(66,138)"/>
<path d="M0 0 C4 1 4 1 5.484375 2.84765625 C5.90203125 3.57855469 6.3196875 4.30945313 6.75 5.0625 C7.39195312 6.16271484 7.39195312 6.16271484 8.046875 7.28515625 C8.36140625 7.85105469 8.6759375 8.41695312 9 9 C9.33 6.03 9.66 3.06 10 0 C11.32 0 12.64 0 14 0 C14 5.94 14 11.88 14 18 C9 17 9 17 7.41796875 15.15234375 C6.27864583 13.1015625 5.13932292 11.05078125 4 9 C3.67 11.97 3.34 14.94 3 18 C2.01 18 1.02 18 0 18 C0 12.06 0 6.12 0 0 Z " fill="#A2A2A2" transform="translate(172,138)"/>
<path d="M0 0 C9.8 0 9.8 0 13 3 C13.38074562 5.98250738 13.24581612 8.18880681 12.375 11.0625 C11.84319835 13.81014184 12.83095642 15.5243783 14 18 C12.35 18 10.7 18 9 18 C8.319375 16.5459375 8.319375 16.5459375 7.625 15.0625 C6.34213779 11.92920418 6.34213779 11.92920418 4 11 C4 13.31 4 15.62 4 18 C2.68 18 1.36 18 0 18 C0 12.06 0 6.12 0 0 Z M4 4 C4 5.32 4 6.64 4 8 C5.65 7.67 7.3 7.34 9 7 C9 6.01 9 5.02 9 4 C7.35 4 5.7 4 4 4 Z " fill="#484848" transform="translate(252,138)"/>
<path d="M0 0 C9.8 0 9.8 0 13 3 C13.38074562 5.98250738 13.24581612 8.18880681 12.375 11.0625 C11.84319835 13.81014184 12.83095642 15.5243783 14 18 C12.35 18 10.7 18 9 18 C8.319375 16.5459375 8.319375 16.5459375 7.625 15.0625 C6.34213779 11.92920418 6.34213779 11.92920418 4 11 C4 13.31 4 15.62 4 18 C2.68 18 1.36 18 0 18 C0 12.06 0 6.12 0 0 Z M4 4 C4 5.32 4 6.64 4 8 C5.65 7.67 7.3 7.34 9 7 C9 6.01 9 5.02 9 4 C7.35 4 5.7 4 4 4 Z " fill="#484848" transform="translate(142,138)"/>
<path d="M0 0 C9.8 0 9.8 0 13 3 C13.38074562 5.98250738 13.24581612 8.18880681 12.375 11.0625 C11.84319835 13.81014184 12.83095642 15.5243783 14 18 C12.35 18 10.7 18 9 18 C8.319375 16.5459375 8.319375 16.5459375 7.625 15.0625 C6.34213779 11.92920418 6.34213779 11.92920418 4 11 C4 13.31 4 15.62 4 18 C2.68 18 1.36 18 0 18 C0 12.06 0 6.12 0 0 Z M4 4 C4 5.32 4 6.64 4 8 C5.65 7.67 7.3 7.34 9 7 C9 6.01 9 5.02 9 4 C7.35 4 5.7 4 4 4 Z " fill="#484848" transform="translate(16,138)"/>
<path d="M0 0 C9.61904762 0 9.61904762 0 12 2 C13.15103889 5.04203136 13.24543694 6.43693878 11.9375 9.4375 C10.67517832 12.88784594 11.61625036 14.69437585 13 18 C11.35 17.67 9.7 17.34 8 17 C7.34 15.02 6.68 13.04 6 11 C5.01 11 4.02 11 3 11 C3 13.31 3 15.62 3 18 C2.01 18 1.02 18 0 18 C0 12.06 0 6.12 0 0 Z M3 4 C3 5.32 3 6.64 3 8 C4.98 7.67 6.96 7.34 9 7 C9 6.01 9 5.02 9 4 C7.02 4 5.04 4 3 4 Z " fill="#3F3F3F" transform="translate(296,138)"/>
<path d="M0 0 C2.8125 0.9375 2.8125 0.9375 4.8125 2.9375 C5.18359375 5.87109375 5.18359375 5.87109375 5.25 9.375 C5.28996094 10.52871094 5.32992187 11.68242187 5.37109375 12.87109375 C4.8125 15.9375 4.8125 15.9375 2.484375 17.88671875 C-0.1875 18.9375 -0.1875 18.9375 -3.375 18.3125 C-6.1875 16.9375 -6.1875 16.9375 -8.1875 13.9375 C-9.03959869 9.14780844 -8.82064244 5.86859183 -6.0625 1.8125 C-3.1875 -0.0625 -3.1875 -0.0625 0 0 Z M-3.1875 3.9375 C-4.42017348 4.94586062 -4.42017348 4.94586062 -4.28515625 7.00390625 C-4.27355469 7.82761719 -4.26195312 8.65132812 -4.25 9.5 C-4.24097656 10.32628906 -4.23195312 11.15257812 -4.22265625 12.00390625 C-4.21105469 12.64199219 -4.19945312 13.28007812 -4.1875 13.9375 C-2.29570797 14.6189823 -2.29570797 14.6189823 -0.1875 14.9375 C2.19244368 12.99417668 2.19244368 12.99417668 2.0625 9.4375 C2.19244368 5.88082332 2.19244368 5.88082332 -0.1875 3.9375 C-1.1775 3.9375 -2.1675 3.9375 -3.1875 3.9375 Z " fill="#404040" transform="translate(58.1875,138.0625)"/>
<path d="M0 0 C3.96 0 7.92 0 12 0 C12 1.32 12 2.64 12 4 C9.36 4 6.72 4 4 4 C4 5.32 4 6.64 4 8 C6.31 8 8.62 8 11 8 C11 8.99 11 9.98 11 11 C8.69 11 6.38 11 4 11 C4 12.32 4 13.64 4 15 C6.64 15 9.28 15 12 15 C12 15.99 12 16.98 12 18 C8.04 18 4.08 18 0 18 C0 12.06 0 6.12 0 0 Z " fill="#555555" transform="translate(238,138)"/>
<path d="M0 0 C3.96 0 7.92 0 12 0 C12 1.32 12 2.64 12 4 C9.36 4 6.72 4 4 4 C4 5.32 4 6.64 4 8 C6.31 8 8.62 8 11 8 C11 8.99 11 9.98 11 11 C8.69 11 6.38 11 4 11 C4 12.32 4 13.64 4 15 C6.64 15 9.28 15 12 15 C12 15.99 12 16.98 12 18 C8.04 18 4.08 18 0 18 C0 12.06 0 6.12 0 0 Z " fill="#555555" transform="translate(203,138)"/>
<path d="M0 0 C0 1.32 0 2.64 0 4 C-1.98 4 -3.96 4 -6 4 C-6.33 4.66 -6.66 5.32 -7 6 C-4.36 6.66 -1.72 7.32 1 8 C1.625 10.8125 1.625 10.8125 2 14 C0 17 0 17 -2.8125 17.8125 C-6.19163187 18.01127246 -8.00596977 17.49701511 -11 16 C-11 15.01 -11 14.02 -11 13 C-8.13822943 11.56911472 -6.06624227 12.40008303 -3 13 C-2.67 12.34 -2.34 11.68 -2 11 C-3.11375 10.71125 -4.2275 10.4225 -5.375 10.125 C-9 9 -9 9 -11 7 C-10.875 4 -10.875 4 -10 1 C-6.78080253 -1.74227932 -3.91373661 -0.88948559 0 0 Z " fill="#515151" transform="translate(234,139)"/>
<path d="M0 0 C0.33 0 0.66 0 1 0 C1 3.3 1 6.6 1 10 C3.97 10 6.94 10 10 10 C10 10.33 10 10.66 10 11 C7.03 11 4.06 11 1 11 C1 12.32 1 13.64 1 15 C2.98 15 4.96 15 7 15 C7 15.33 7 15.66 7 16 C5.02 16 3.04 16 1 16 C1.0868748 17.95917659 1.19504512 19.91741871 1.3125 21.875 C1.37050781 22.96554688 1.42851562 24.05609375 1.48828125 25.1796875 C1.65714844 26.11039063 1.82601562 27.04109375 2 28 C2.99 28.66 3.98 29.32 5 30 C4.01 30.33 3.02 30.66 2 31 C1.67 37.27 1.34 43.54 1 50 C4.63 50 8.26 50 12 50 C12 50.33 12 50.66 12 51 C8.37 51 4.74 51 1 51 C1 52.32 1 53.64 1 55 C3.97 55 6.94 55 10 55 C10 55.33 10 55.66 10 56 C7.03 56 4.06 56 1 56 C1 59.63 1 63.26 1 67 C4.3 67 7.6 67 11 67 C11 67.33 11 67.66 11 68 C7.7 68 4.4 68 1 68 C1 70.97 1 73.94 1 77 C0.67 77 0.34 77 0 77 C0 74.03 0 71.06 0 68 C-1.32 67.67 -2.64 67.34 -4 67 C-2.68 67 -1.36 67 0 67 C0 65.35 0 63.7 0 62 C-0.66 61.67 -1.32 61.34 -2 61 C-1.34 61 -0.68 61 0 61 C-0.07726318 60.40533936 -0.15452637 59.81067871 -0.23413086 59.19799805 C-1.22156207 50.36209191 -0.8986728 41.67271238 -0.5625 32.8125 C-0.50913872 31.27280806 -0.45639993 29.73309441 -0.40429688 28.19335938 C-0.27669597 24.46196234 -0.14071149 20.73092837 0 17 C-0.99 16.67 -1.98 16.34 -3 16 C-2.01 16 -1.02 16 0 16 C0 14.35 0 12.7 0 11 C-1.32 10.67 -2.64 10.34 -4 10 C-2.68 10 -1.36 10 0 10 C0 6.7 0 3.4 0 0 Z " fill="#BDDD83" transform="translate(133,0)"/>
<path d="M0 0 C3.96 0 7.92 0 12 0 C12 1.32 12 2.64 12 4 C9.03 4 6.06 4 3 4 C3 5.32 3 6.64 3 8 C5.31 8 7.62 8 10 8 C10 8.99 10 9.98 10 11 C7.69 11 5.38 11 3 11 C3 12.32 3 13.64 3 15 C5.97 15 8.94 15 12 15 C12 15.99 12 16.98 12 18 C8.04 18 4.08 18 0 18 C0 12.06 0 6.12 0 0 Z " fill="#474747" transform="translate(282,138)"/>
<path d="M0 0 C3.96 0 7.92 0 12 0 C12 1.32 12 2.64 12 4 C9.03 4 6.06 4 3 4 C3 5.32 3 6.64 3 8 C5.31 8 7.62 8 10 8 C10 8.99 10 9.98 10 11 C7.69 11 5.38 11 3 11 C3 12.32 3 13.64 3 15 C5.97 15 8.94 15 12 15 C12 15.99 12 16.98 12 18 C8.04 18 4.08 18 0 18 C0 12.06 0 6.12 0 0 Z " fill="#474747" transform="translate(158,138)"/>
<path d="M0 0 C3.96 0 7.92 0 12 0 C12 1.32 12 2.64 12 4 C9.03 4 6.06 4 3 4 C3 5.32 3 6.64 3 8 C5.31 8 7.62 8 10 8 C10 8.99 10 9.98 10 11 C7.69 11 5.38 11 3 11 C3 12.32 3 13.64 3 15 C5.97 15 8.94 15 12 15 C12 15.99 12 16.98 12 18 C8.04 18 4.08 18 0 18 C0 12.06 0 6.12 0 0 Z " fill="#474747" transform="translate(128,138)"/>
<path d="M0 0 C2.8125 0.9375 2.8125 0.9375 4.8125 2.9375 C4.8125 3.9275 4.8125 4.9175 4.8125 5.9375 C2.1725 5.6075 -0.4675 5.2775 -3.1875 4.9375 C-3.1875 7.9075 -3.1875 10.8775 -3.1875 13.9375 C-0.5475 13.6075 2.0925 13.2775 4.8125 12.9375 C4.6875 14.8125 4.6875 14.8125 3.8125 16.9375 C1.0625 18.375 1.0625 18.375 -2.1875 18.9375 C-5.13200894 17.62882936 -6.73451431 16.84347137 -8.1875 13.9375 C-8.85216628 9.10442659 -8.85329827 5.9166151 -6.0625 1.8125 C-3.1875 -0.0625 -3.1875 -0.0625 0 0 Z " fill="#828282" transform="translate(196.1875,138.0625)"/>
<path d="M0 0 C3.96 0 7.92 0 12 0 C12 1.32 12 2.64 12 4 C9.36 4 6.72 4 4 4 C4 5.32 4 6.64 4 8 C6.31 8 8.62 8 11 8 C11 8.99 11 9.98 11 11 C8.69 11 6.38 11 4 11 C4 13.31 4 15.62 4 18 C2.68 18 1.36 18 0 18 C0 12.06 0 6.12 0 0 Z " fill="#5D5D5D" transform="translate(114,138)"/>
<path d="M0 0 C1.890625 0.24609375 1.890625 0.24609375 4 1 C5.44963687 3.55850089 6.10400905 6.1776285 7 9 C7.99 6.03 8.98 3.06 10 0 C11.32 0 12.64 0 14 0 C12.41039668 6.23440168 10.72399099 12.16287645 8 18 C7.01 18 6.02 18 5 18 C4.15875684 15.75267898 3.32685168 13.50261215 2.5 11.25 C2.26152344 10.61578125 2.02304687 9.9815625 1.77734375 9.328125 C0.55198242 5.96713393 0 3.63128413 0 0 Z " fill="#2F2F2F" transform="translate(266,138)"/>
<path d="M0 0 C3.96 0 7.92 0 12 0 C12 1.32 12 2.64 12 4 C10.68 4 9.36 4 8 4 C8 8.62 8 13.24 8 18 C6.68 18 5.36 18 4 18 C4 13.38 4 8.76 4 4 C2.68 4 1.36 4 0 4 C0 2.68 0 1.36 0 0 Z " fill="#606060" transform="translate(37,138)"/>
<path d="M0 0 C3.96 0 7.92 0 12 0 C12 1.32 12 2.64 12 4 C10.68 4 9.36 4 8 4 C8 8.62 8 13.24 8 18 C6.68 18 5.36 18 4 18 C4 13.38 4 8.76 4 4 C2.68 4 1.36 4 0 4 C0 2.68 0 1.36 0 0 Z " fill="#606060" transform="translate(2,138)"/>
<path d="M0 0 C1.98 0 3.96 0 6 0 C6 0.33 6 0.66 6 1 C4.35 1 2.7 1 1 1 C1 2.32 1 3.64 1 5 C6.40787385 3.90213575 6.40787385 3.90213575 10 0 C10.12684989 5.58139535 10.12684989 5.58139535 9.375 8.0625 C8.84319835 10.81014184 9.83095642 12.5243783 11 15 C9.35 15 7.7 15 6 15 C5.54625 14.030625 5.0925 13.06125 4.625 12.0625 C3.34213779 8.92920418 3.34213779 8.92920418 1 8 C1 10.31 1 12.62 1 15 C0.67 15 0.34 15 0 15 C0 10.05 0 5.1 0 0 Z " fill="#6B6B6B" transform="translate(255,141)"/>
<path d="M0 0 C1.98 0 3.96 0 6 0 C6 0.33 6 0.66 6 1 C4.35 1 2.7 1 1 1 C1 2.32 1 3.64 1 5 C6.40787385 3.90213575 6.40787385 3.90213575 10 0 C10.12684989 5.58139535 10.12684989 5.58139535 9.375 8.0625 C8.84319835 10.81014184 9.83095642 12.5243783 11 15 C9.35 15 7.7 15 6 15 C5.54625 14.030625 5.0925 13.06125 4.625 12.0625 C3.34213779 8.92920418 3.34213779 8.92920418 1 8 C1 10.31 1 12.62 1 15 C0.67 15 0.34 15 0 15 C0 10.05 0 5.1 0 0 Z " fill="#6B6B6B" transform="translate(145,141)"/>
<path d="M0 0 C1.98 0 3.96 0 6 0 C6 0.33 6 0.66 6 1 C4.35 1 2.7 1 1 1 C1 2.32 1 3.64 1 5 C6.40787385 3.90213575 6.40787385 3.90213575 10 0 C10.12684989 5.58139535 10.12684989 5.58139535 9.375 8.0625 C8.84319835 10.81014184 9.83095642 12.5243783 11 15 C9.35 15 7.7 15 6 15 C5.54625 14.030625 5.0925 13.06125 4.625 12.0625 C3.34213779 8.92920418 3.34213779 8.92920418 1 8 C1 10.31 1 12.62 1 15 C0.67 15 0.34 15 0 15 C0 10.05 0 5.1 0 0 Z " fill="#6B6B6B" transform="translate(19,141)"/>
<path d="M0 0 C1.32 0 2.64 0 4 0 C4 5.94 4 11.88 4 18 C2.68 18 1.36 18 0 18 C0 12.06 0 6.12 0 0 Z " fill="#656565" transform="translate(90,138)"/>
<path d="M0 0 C1.32 0 2.64 0 4 0 C4 5.94 4 11.88 4 18 C2.68 18 1.36 18 0 18 C0 12.06 0 6.12 0 0 Z " fill="#656565" transform="translate(31,138)"/>
<path d="M0 0 C4 1 4 1 6 4 C5.625 6.6875 5.625 6.6875 5 9 C4.67 9 4.34 9 4 9 C3.67 11.97 3.34 14.94 3 18 C2.01 18 1.02 18 0 18 C0 12.06 0 6.12 0 0 Z " fill="#363636" transform="translate(172,138)"/>
<path d="M0 0 C0.99 0 1.98 0 3 0 C3 5.94 3 11.88 3 18 C1.35 17.67 -0.3 17.34 -2 17 C-2.33 15.35 -2.66 13.7 -3 12 C-2.34 12 -1.68 12 -1 12 C-0.67 8.04 -0.34 4.08 0 0 Z " fill="#373737" transform="translate(108,138)"/>
<path d="M0 0 C0.99 0 1.98 0 3 0 C3 5.94 3 11.88 3 18 C1.35 17.67 -0.3 17.34 -2 17 C-2.33 15.35 -2.66 13.7 -3 12 C-2.34 12 -1.68 12 -1 12 C-0.67 8.04 -0.34 4.08 0 0 Z " fill="#373737" transform="translate(77,138)"/>
<path d="M0 0 C0.33 0 0.66 0 1 0 C1.33 2.64 1.66 5.28 2 8 C5.32534757 9.10844919 7.62182575 8.84454356 11 8 C10.875 9.875 10.875 9.875 10 12 C6.62064748 13.76647973 4.83606539 14.21810402 1.125 13.25 C-1.45602786 10.51714697 -1.3330001 9.53949108 -1.375 5.875 C-1.19879518 1.19879518 -1.19879518 1.19879518 0 0 Z " fill="#272727" transform="translate(190,143)"/>
<path d="M0 0 C1.89453125 0.26171875 1.89453125 0.26171875 4 1 C5.01171875 2.70703125 5.01171875 2.70703125 5.6875 4.8125 C5.91824219 5.49957031 6.14898437 6.18664062 6.38671875 6.89453125 C6.9765623 8.91953554 7.50694518 10.94944489 8 13 C7.01 13.33 6.02 13.66 5 14 C4.67 14.66 4.34 15.32 4 16 C3.32586789 14.08594633 2.6609668 12.16863974 2 10.25 C1.62875 9.18265625 1.2575 8.1153125 0.875 7.015625 C0 4 0 4 0 0 Z " fill="#626262" transform="translate(266,138)"/>
<path d="M0 0 C2.75 0.9375 2.75 0.9375 3.75 2.9375 C2.76 3.4325 2.76 3.4325 1.75 3.9375 C1.42 4.5975 1.09 5.2575 0.75 5.9375 C-0.57 5.6075 -1.89 5.2775 -3.25 4.9375 C-3.58 7.5775 -3.91 10.2175 -4.25 12.9375 C-4.58 12.9375 -4.91 12.9375 -5.25 12.9375 C-5.58 10.6275 -5.91 8.3175 -6.25 5.9375 C-6.58 8.5775 -6.91 11.2175 -7.25 13.9375 C-7.58 13.9375 -7.91 13.9375 -8.25 13.9375 C-8.72751731 9.06682347 -8.94897394 5.96540286 -6.125 1.8125 C-3.25 -0.0625 -3.25 -0.0625 0 0 Z " fill="#7B7B7B" transform="translate(58.25,138.0625)"/>
<path d="M0 0 C0.66 0 1.32 0 2 0 C2 5.61 2 11.22 2 17 C0.68 16.67 -0.64 16.34 -2 16 C-3.25 12.9375 -3.25 12.9375 -4 10 C-3.01 10.33 -2.02 10.66 -1 11 C-0.67 7.37 -0.34 3.74 0 0 Z " fill="#121212" transform="translate(183,139)"/>
<path d="M0 0 C0.66 0 1.32 0 2 0 C2 1.65 2 3.3 2 5 C-0.79953012 6.90368048 -2.15773599 6.99184124 -5.625 6.8125 C-9 6 -9 6 -11 3 C-8 1 -8 1 -5.95703125 1.2421875 C-3.97135417 1.828125 -1.98567708 2.4140625 0 3 C0 2.01 0 1.02 0 0 Z " fill="#636363" transform="translate(233,150)"/>
<path d="M0 0 C3.63 0 7.26 0 11 0 C11 0.33 11 0.66 11 1 C8.03 1 5.06 1 2 1 C2 4.63 2 8.26 2 12 C5.3 12 8.6 12 12 12 C12 12.33 12 12.66 12 13 C8.7 13 5.4 13 2 13 C2 15.97 2 18.94 2 22 C1.67 22 1.34 22 1 22 C1 19.03 1 16.06 1 13 C-0.32 12.67 -1.64 12.34 -3 12 C-1.68 12 -0.36 12 1 12 C1 10.35 1 8.7 1 7 C0.34 6.67 -0.32 6.34 -1 6 C-0.34 6 0.32 6 1 6 C0.67 4.02 0.34 2.04 0 0 Z " fill="#CFE6A5" transform="translate(132,55)"/>
<path d="M0 0 C0.33 0 0.66 0 1 0 C1 3.3 1 6.6 1 10 C3.97 10 6.94 10 10 10 C10 10.33 10 10.66 10 11 C7.03 11 4.06 11 1 11 C1 12.32 1 13.64 1 15 C2.98 15 4.96 15 7 15 C7 15.33 7 15.66 7 16 C5.02 16 3.04 16 1 16 C1 18.31 1 20.62 1 23 C0.67 23 0.34 23 0 23 C0 21.02 0 19.04 0 17 C-0.99 16.67 -1.98 16.34 -3 16 C-2.01 16 -1.02 16 0 16 C0 14.35 0 12.7 0 11 C-1.32 10.67 -2.64 10.34 -4 10 C-2.68 10 -1.36 10 0 10 C0 6.7 0 3.4 0 0 Z " fill="#CFE7A6" transform="translate(133,0)"/>
<path d="M0 0 C0.99 0.33 1.98 0.66 3 1 C3.6875 3.3125 3.6875 3.3125 4 6 C2.5625 7.8125 2.5625 7.8125 1 9 C0.01 8.01 -0.98 7.02 -2 6 C-1.34 6 -0.68 6 0 6 C0 5.01 0 4.02 0 3 C-1.98 3 -3.96 3 -6 3 C-6 2.67 -6 2.34 -6 2 C-4.02 2 -2.04 2 0 2 C0 1.34 0 0.68 0 0 Z " fill="#6A6A6A" transform="translate(305,139)"/>
<path d="M0 0 C0.33 0 0.66 0 1 0 C1.1953125 2.01822917 1.390625 4.03645833 1.5859375 6.0546875 C1.86374749 8.22668245 1.86374749 8.22668245 4 10 C4 10.99 4 11.98 4 13 C0.125 12.125 0.125 12.125 -1 11 C-1.09823937 9.33570949 -1.12973631 7.66718069 -1.125 6 C-1.12757812 5.0925 -1.13015625 4.185 -1.1328125 3.25 C-1 1 -1 1 0 0 Z " fill="#232323" transform="translate(52,143)"/>
<path d="M0 0 C2.15377564 2.62198774 3.40072174 4.64404172 4 8 C2.35 7.67 0.7 7.34 -1 7 C-1.66 5.02 -2.32 3.04 -3 1 C-2.01 0.67 -1.02 0.34 0 0 Z " fill="#5D5D5D" transform="translate(305,148)"/>
<path d="M0 0 C1.65 0.33 3.3 0.66 5 1 C4.67 2.65 4.34 4.3 4 6 C2.35 5.67 0.7 5.34 -1 5 C-0.67 3.35 -0.34 1.7 0 0 Z " fill="#929292" transform="translate(236,113)"/>
<path d="M0 0 C1.32 0 2.64 0 4 0 C3.875 1.875 3.875 1.875 3 4 C-0.0625 5.25 -0.0625 5.25 -3 6 C-3 5.01 -3 4.02 -3 3 C-2.34 3 -1.68 3 -1 3 C-0.67 2.01 -0.34 1.02 0 0 Z " fill="#5A5A5A" transform="translate(197,151)"/>
<path d="M0 0 C0.33 1.98 0.66 3.96 1 6 C0.67 5.01 0.34 4.02 0 3 C-0.66 3 -1.32 3 -2 3 C-2 3.99 -2 4.98 -2 6 C-2.66 5.67 -3.32 5.34 -4 5 C-3.67 4.34 -3.34 3.68 -3 3 C-5.97 2.505 -5.97 2.505 -9 2 C-5.86501708 0.14223235 -3.62528568 -0.20140476 0 0 Z " fill="#737373" transform="translate(235,147)"/>
<path d="M0 0 C1.32 0 2.64 0 4 0 C3.34 2.64 2.68 5.28 2 8 C1.01 8 0.02 8 -1 8 C-2 6 -2 6 -1.0625 2.875 C-0.5365625 1.451875 -0.5365625 1.451875 0 0 Z " fill="#6E6E6E" transform="translate(276,138)"/>
<path d="M0 0 C2.5625 0.1875 2.5625 0.1875 4.5625 2.1875 C4.5625 3.1775 4.5625 4.1675 4.5625 5.1875 C2.9125 4.8575 1.2625 4.5275 -0.4375 4.1875 C-0.4375 3.5275 -0.4375 2.8675 -0.4375 2.1875 C-1.4275 1.8575 -2.4175 1.5275 -3.4375 1.1875 C-2.4375 0.1875 -2.4375 0.1875 0 0 Z " fill="#494949" transform="translate(196.4375,138.8125)"/>
<path d="M0 0 C0.33 0.99 0.66 1.98 1 3 C3.31 3.33 5.62 3.66 8 4 C4.77208445 6.1519437 3.71599191 6.20086443 0 6 C-0.38218767 4.34385343 -0.71395102 2.67542976 -1 1 C-0.67 0.67 -0.34 0.34 0 0 Z " fill="#323232" transform="translate(225,142)"/>
<path d="M0 0 C0.66 0.33 1.32 0.66 2 1 C1.51789063 1.47050781 1.03578125 1.94101562 0.5390625 2.42578125 C-0.40839844 3.35970703 -0.40839844 3.35970703 -1.375 4.3125 C-2.00148438 4.92738281 -2.62796875 5.54226562 -3.2734375 6.17578125 C-5.18086607 8.08812528 -5.18086607 8.08812528 -7 11 C-7.33 9.68 -7.66 8.36 -8 7 C-5.36 4.69 -2.72 2.38 0 0 Z " fill="#B4D974" transform="translate(98,24)"/>
<path d="M0 0 C2.64 0 5.28 0 8 0 C8 0.66 8 1.32 8 2 C6.02 2 4.04 2 2 2 C2 3.65 2 5.3 2 7 C1.67 7 1.34 7 1 7 C0.67 4.69 0.34 2.38 0 0 Z " fill="#0C0C0C" transform="translate(297,139)"/>
<path d="M0 0 C2.9375 0.375 2.9375 0.375 6 1 C6.33 1.66 6.66 2.32 7 3 C6.01 3.495 6.01 3.495 5 4 C4.67 4.66 4.34 5.32 4 6 C3.67 5.01 3.34 4.02 3 3 C2.01 2.67 1.02 2.34 0 2 C0 1.34 0 0.68 0 0 Z " fill="#737373" transform="translate(55,138)"/>
<path d="M0 0 C0.66 0 1.32 0 2 0 C2 1.65 2 3.3 2 5 C0.68 5.33 -0.64 5.66 -2 6 C-2 5.01 -2 4.02 -2 3 C-1.34 3 -0.68 3 0 3 C0 2.01 0 1.02 0 0 Z " fill="#2F2F2F" transform="translate(233,150)"/>
<path d="M0 0 C0.66 0 1.32 0 2 0 C2.625 1.875 2.625 1.875 3 4 C2.34 4.66 1.68 5.32 1 6 C0.67 5.34 0.34 4.68 0 4 C-0.66 4.99 -1.32 5.98 -2 7 C-1.125 1.125 -1.125 1.125 0 0 Z " fill="#808080" transform="translate(225,139)"/>
</svg>
