<?xml version="1.0" encoding="UTF-8"?>
<svg version="1.1" xmlns="http://www.w3.org/2000/svg" width="900" height="900">
<path d="M0 0 C297 0 594 0 900 0 C900 297 900 594 900 900 C603 900 306 900 0 900 C0 603 0 306 0 0 Z " fill="#000000" transform="translate(0,0)"/>
<path d="M0 0 C0.93328125 -0.01160156 1.8665625 -0.02320313 2.828125 -0.03515625 C15.93195549 0.01974807 27.40256114 5.6164981 37 14.375 C47.98929814 25.95724588 52.5117377 38.8504368 52.24609375 54.6328125 C51.34834164 68.28434466 44.98868263 81.0844511 35 90.375 C24.52996796 99.4040346 11.11715921 103.81700502 -2.62109375 103.6484375 C-16.21045851 102.54872012 -28.988987 96.46831278 -38.2578125 86.46875 C-49.20832528 73.30849249 -52.3776006 59.2332911 -51 42.375 C-48.7361983 29.76044231 -41.99916559 18.41854647 -32 10.375 C-21.60254227 3.31552392 -12.55072753 -0.15601733 0 0 Z " fill="#FDBD01" transform="translate(647,310.625)"/>
<path d="M0 0 C0.94230469 -0.01611328 1.88460937 -0.03222656 2.85546875 -0.04882812 C16.29430068 -0.05812192 28.32387618 5.89464914 38.05859375 15.0546875 C48.03943837 25.9600338 52.48795168 39.25553479 52.33984375 53.8359375 C51.49509002 67.50558875 45.56384856 79.51125237 36.125 89.3125 C32.9528439 91.95007971 29.65808437 94.18810522 26.125 96.3125 C25.13886719 96.91191406 25.13886719 96.91191406 24.1328125 97.5234375 C13.06644947 103.6306005 0.26992878 105.17439442 -11.85864258 101.87353516 C-27.80228118 97.09137978 -38.97046068 87.94763716 -46.875 73.3125 C-52.547115 61.90153924 -52.97481065 46.9101397 -49.3125 34.75 C-43.06250287 19.20176153 -32.71302285 9.43876576 -17.875 2.3125 C-11.89279861 0.09341209 -6.29825712 -0.02136451 0 0 Z " fill="#FDBD01" transform="translate(251.875,310.6875)"/>
<path d="M0 0 C11.20852968 8.41032732 18.97822508 19.2417672 22 33 C22.42402671 36.45081361 22.52519751 39.8378276 22.5 43.3125 C22.49500488 44.22676758 22.49000977 45.14103516 22.48486328 46.08300781 C22.10103746 61.07074441 14.95069312 72.81026617 4.265625 83 C-6.30535519 92.33162389 -19.92541287 96.20315706 -33.85546875 95.48046875 C-46.48745947 94.31610833 -58.70478265 87.91354109 -67.3125 78.6875 C-77.65483231 66.20464399 -82.04452935 53.18035094 -81 37 C-78.99468855 22.92602512 -72.01113701 10.92498142 -61 2 C-57.13878777 -0.66655518 -53.20545942 -2.92322991 -49 -5 C-47.94619141 -5.54140625 -47.94619141 -5.54140625 -46.87109375 -6.09375 C-32.65837509 -12.10147452 -12.48038293 -8.08012311 0 0 Z " fill="#FDBD01" transform="translate(479,495)"/>
<path d="M0 0 C1.35420067 1.1636471 2.68904823 2.35033686 4 3.5625 C4.62261719 4.10648438 5.24523437 4.65046875 5.88671875 5.2109375 C15.18687951 13.8050123 20.54535138 25.67389244 21.125 38.28125 C21.41163414 52.46964005 17.59237588 65.31931147 8.2265625 76.24609375 C-3.00350335 87.9293026 -15.73973014 93.38633201 -31.8125 93.9375 C-46.29229652 93.67051894 -57.74005197 87.65393416 -68.25 78 C-78.56260947 67.26043536 -82.45383319 53.86181589 -82.43383789 39.26391602 C-82.26463321 31.57387903 -80.63716691 25.3844958 -77 18.5625 C-76.49210938 17.59957031 -75.98421875 16.63664063 -75.4609375 15.64453125 C-68.60595362 3.86760396 -58.42287136 -4.20765813 -45.390625 -8.24609375 C-29.06343248 -11.83312847 -13.56960836 -10.131363 0 0 Z " fill="#FDBD01" transform="translate(283,577.4375)"/>
<path d="M0 0 C6.99410279 5.80642496 10.95952566 13.9167407 12.41796875 22.84765625 C12.89242411 33.05876083 8.10498513 42.05316602 1.51171875 49.47265625 C-4.51758056 55.24169804 -12.29240767 57.89009813 -20.5546875 58.15625 C-30.956381 57.72593743 -39.09348142 53.28290144 -46.25 45.82421875 C-52.09154698 38.50190754 -53.94063558 30.9129129 -52.9296875 21.71875 C-51.7052254 11.50938356 -46.9554841 4.98167569 -39.203125 -1.5859375 C-26.94112513 -10.72976558 -11.85719472 -8.42811053 0 0 Z " fill="#FBBC03" transform="translate(272.9296875,465.28125)"/>
<path d="M0 0 C5.66626854 4.93374713 10.3960925 11.32127549 11.20703125 18.94677734 C11.34821476 21.17596411 11.41277178 23.3915372 11.4375 25.625 C11.44773193 26.34163818 11.45796387 27.05827637 11.46850586 27.79663086 C11.32874444 36.27321006 7.62536495 42.78182754 2 49 C-5.71093356 55.84912333 -13.34527878 58.38367821 -23.640625 58.2109375 C-32.95852242 57.37788045 -39.98028586 52.41255337 -46.25 45.75 C-51.93755803 38.63278257 -53.71395217 31.19647641 -53.375 22.171875 C-52.28892592 12.98549839 -47.93423312 6.03577766 -41 0 C-27.23623648 -9.17584235 -13.98675776 -8.85977903 0 0 Z " fill="#FBBC03" transform="translate(668,465)"/>
<path d="M0 0 C6.54551169 5.30901121 10.35561716 11.06685147 13 19 C14.13786223 30.62347873 12.57112766 39.01889558 5.1015625 48.37890625 C-1.81908701 55.80561116 -8.81864411 58.70090213 -18.875 59.1875 C-27.62730077 59.02142219 -35.37048929 56.00981242 -41.984375 50.28125 C-48.66604881 43.31403457 -51.17862866 35.48533894 -51.5 25.9375 C-51.18730352 16.70791039 -48.48081885 9.57727628 -42.125 2.82421875 C-30.00566907 -7.57969217 -13.34217812 -9.21408541 0 0 Z " fill="#FCBD02" transform="translate(469,383)"/>
<path d="M0 0 C8.52419025 6.04194605 13.93576048 13.67880238 16 24 C16.91267068 32.97459506 14.09851911 41.55219425 8.875 48.875 C4.38576614 54.20778321 -1.99169202 58.84863512 -9 60 C-11.61865761 60.14594876 -14.1935938 60.23065443 -16.8125 60.25 C-17.49892578 60.270625 -18.18535156 60.29125 -18.89257812 60.3125 C-27.25132073 60.3757639 -34.00324039 56.63225069 -40 51 C-47.88413991 41.49265482 -49.86019987 33.80303245 -48.79296875 21.640625 C-47.47355569 13.46316382 -42.48776589 6.70361484 -36.125 1.5625 C-25.33988823 -5.7169349 -11.34636452 -6.70209552 0 0 Z " fill="#FBBC03" transform="translate(269,205)"/>
<path d="M0 0 C7.02968374 5.26971951 13.31825403 11.04583902 15 20 C15.72939885 30.02402418 15.99117397 38.46257709 10 47 C9.278125 48.0725 8.55625 49.145 7.8125 50.25 C-0.23129551 58.1150445 -7.94055596 60.30364283 -18.85742188 60.31469727 C-27.90611115 60.14139395 -33.68077607 57.00065254 -40.2109375 50.92578125 C-47.18000049 43.42414795 -49.51936061 35.44377365 -49.30078125 25.30859375 C-48.40277217 15.43049387 -43.24356884 8.52615467 -36 2 C-25.2751059 -5.46973455 -11.48411757 -6.93870755 0 0 Z " fill="#FBBC03" transform="translate(664,205)"/>
<path d="M0 0 C8.86530117 5.16330728 14.23385753 12.15024806 17.125 21.875 C18.29134079 31.9055308 17.3915477 40.82580781 11.4375 49.25 C6.38141892 55.30653968 -0.59945992 60.52596339 -8.5625 61.5625 C-20.07829186 62.48315964 -28.0529509 60.82221376 -36.9375 53.3125 C-42.84610488 47.68216537 -46.23283476 41.65329203 -46.765625 33.42578125 C-46.92564043 21.30461237 -45.45057478 14.68541123 -36.98046875 5.80078125 C-26.92633347 -3.50619697 -12.57813416 -5.82261453 0 0 Z " fill="#FBBD03" transform="translate(464.5625,251.4375)"/>
<path d="M0 0 C7.19404913 5.01172735 12.270107 11.64342798 15 20 C16.25011606 32.25113738 14.51341435 40.65248479 6.625 50.375 C1.24954093 56.15857418 -5.38340279 59.52958844 -13.296875 60.3359375 C-25.56186033 60.47468168 -32.93690623 57.88488684 -41.86328125 49.37890625 C-48.55112144 41.93302933 -49.29874571 34.12385768 -49.21875 24.484375 C-48.68008031 15.90413638 -44.54645822 9.22360527 -38.375 3.375 C-27.46576635 -5.66923599 -12.38727628 -7.30310723 0 0 Z " fill="#FDBD02" transform="translate(467,639)"/>
<path d="M0 0 C5.87662544 5.04941716 10.75420435 10.13725019 12.2265625 17.9765625 C12.95486818 27.98556337 13.24350639 36.47261514 7.2265625 44.9765625 C6.60974609 45.93949219 6.60974609 45.93949219 5.98046875 46.921875 C1.52770184 53.02626168 -5.36609986 57.03803404 -12.79052734 58.32666016 C-22.83715495 59.42598016 -31.44564468 58.06853764 -39.7734375 51.9765625 C-46.72827142 45.96126133 -51.06217139 38.99268837 -52.1484375 29.8046875 C-52.53277801 19.57162151 -50.1764692 12.4759165 -43.5859375 4.6640625 C-31.85120469 -7.63130829 -14.15112769 -10.32434387 0 0 Z " fill="#FBBC04" transform="translate(666.7734375,593.0234375)"/>
<path d="M0 0 C0.33 1.32 0.66 2.64 1 4 C0.34 4 -0.32 4 -1 4 C-1 4.99 -1 5.98 -1 7 C-1.66 7 -2.32 7 -3 7 C-3.12375 7.680625 -3.2475 8.36125 -3.375 9.0625 C-4 12 -4 12 -5 14.9375 C-6.51004249 20.1649401 -6.4639661 25.5327997 -6.625 30.9375 C-6.66367188 32.00291016 -6.70234375 33.06832031 -6.7421875 34.16601562 C-6.83586146 36.77717734 -6.92158335 39.38834304 -7 42 C-9.80142691 39.19857309 -9.31319568 37.15375177 -9.38012695 33.32128906 C-9.355612 20.42875781 -7.4527409 10.76507019 0 0 Z " fill="#DDAF23" transform="translate(210,332)"/>
<path d="M0 0 C-1.70577342 0.65256456 -3.41476089 1.29673041 -5.125 1.9375 C-6.07632813 2.29714844 -7.02765625 2.65679688 -8.0078125 3.02734375 C-20.21876895 6.99670166 -32.18506724 5.39625405 -44 1 C-40.74811124 -0.02880551 -39.78720743 0.05319814 -36.25 0.9375 C-31.63818667 2.08271539 -27.22357959 2.19640253 -22.5 2.1875 C-21.42153809 2.18834595 -21.42153809 2.18834595 -20.32128906 2.18920898 C-16.87062689 2.45370045 -16.87062689 2.45370045 -14 1 C-12.21916334 0.57654372 -10.4245111 0.21034196 -8.625 -0.125 C-7.64789063 -0.31320312 -6.67078125 -0.50140625 -5.6640625 -0.6953125 C-3 -1 -3 -1 0 0 Z " fill="#CFA31F" transform="translate(275,666)"/>
<path d="M0 0 C4.55383366 3.23521516 8.62928155 6.34578639 10 12 C9.278125 11.2575 8.55625 10.515 7.8125 9.75 C2.98057306 4.97264291 2.98057306 4.97264291 -3 2 C-3 1.34 -3 0.68 -3 0 C-4.65 0 -6.3 0 -8 0 C-8 -0.66 -8 -1.32 -8 -2 C-10.87526069 -1.8583467 -13.75013536 -1.71181468 -16.625 -1.5625 C-17.43324219 -1.52318359 -18.24148438 -1.48386719 -19.07421875 -1.44335938 C-23.45150865 -1.21203918 -27.68547281 -0.83079083 -32 0 C-23.33412847 -7.11839447 -9.21289731 -5.4512299 0 0 Z " fill="#E3B323" transform="translate(467,639)"/>
<path d="M0 0 C-12.61718457 5.00336629 -24.05405175 5.28133722 -37 1 C-33.61544129 -0.0321812 -30.55556737 -0.10151284 -27.02734375 -0.0625 C-25.30741211 -0.05089844 -25.30741211 -0.05089844 -23.55273438 -0.0390625 C-22.35970703 -0.02617187 -21.16667969 -0.01328125 -19.9375 0 C-17.57166007 0.02548024 -15.20576695 0.04652303 -12.83984375 0.0625 C-11.26771118 0.07990234 -11.26771118 0.07990234 -9.66381836 0.09765625 C-0.73953315 -0.22951029 -0.73953315 -0.22951029 0 0 Z " fill="#D1A41B" transform="translate(272,410)"/>
<path d="M0 0 C0.33 0 0.66 0 1 0 C1.14416964 4.10883484 1.23525798 7.25011518 0 11.1875 C-2.04960155 19.0016059 -1.61866893 26.42456489 1 34 C1 35.32 1 36.64 1 38 C1.66 38 2.32 38 3 38 C3 39.32 3 40.64 3 42 C3.66 42 4.32 42 5 42 C4.67 43.32 4.34 44.64 4 46 C3.20044999 44.48329636 2.41078612 42.96138002 1.625 41.4375 C1.18414062 40.59058594 0.74328125 39.74367188 0.2890625 38.87109375 C-2.69250447 32.23033095 -3.33951758 26.2900633 -3.3125 19.125 C-3.32861328 18.27808594 -3.34472656 17.43117188 -3.36132812 16.55859375 C-3.36593997 10.53552094 -2.2344086 5.58475339 0 0 Z " fill="#DBAE26" transform="translate(204,600)"/>
<path d="M0 0 C1.18118408 0.00193359 1.18118408 0.00193359 2.38623047 0.00390625 C9.00518193 0.11186061 15.07605674 1.23755398 21.375 3.3125 C21.375 3.6425 21.375 3.9725 21.375 4.3125 C20.116875 4.15007812 18.85875 3.98765625 17.5625 3.8203125 C12.15882031 3.22107999 6.80690485 3.16470879 1.375 3.1875 C-0.05392578 3.18169922 -0.05392578 3.18169922 -1.51171875 3.17578125 C-2.41535156 3.17707031 -3.31898438 3.17835938 -4.25 3.1796875 C-5.06726563 3.18081543 -5.88453125 3.18194336 -6.7265625 3.18310547 C-8.63590459 3.10427582 -8.63590459 3.10427582 -9.625 4.3125 C-12.29558851 4.45365161 -14.94932238 4.35497107 -17.625 4.3125 C-11.91186782 0.50374522 -6.67056333 -0.04523374 0 0 Z " fill="#E4B524" transform="translate(447.625,486.6875)"/>
<path d="M0 0 C0.33 0.66 0.66 1.32 1 2 C0.04060332 3.69036558 -0.96642853 5.35394174 -2 7 C-4.18709219 11.40622969 -4.41807093 15.48846613 -4.625 20.3125 C-4.66367187 21.05306641 -4.70234375 21.79363281 -4.7421875 22.55664062 C-4.83581705 24.37071309 -4.91896851 26.18532116 -5 28 C-4.34 28.33 -3.68 28.66 -3 29 C-3 30.65 -3 32.3 -3 34 C-2.34 34 -1.68 34 -1 34 C-1.33 35.32 -1.66 36.64 -2 38 C-7.0052388 30.26463094 -7.88201289 23.06454216 -7 14 C-5.55356673 8.66316001 -3.42753656 4.33107055 0 0 Z " fill="#D5A920" transform="translate(622,213)"/>
<path d="M0 0 C1.64162109 0.11794922 1.64162109 0.11794922 3.31640625 0.23828125 C6.32196601 0.6708712 8.68611168 1.4322111 11.4375 2.6875 C8.42718256 3.62173645 7.57099732 3.73199911 4.4375 2.6875 C-5.92578083 1.86544521 -14.01719376 2.83973648 -22.625 8.8125 C-24.62934381 10.54474148 -24.62934381 10.54474148 -25.5625 12.6875 C-26.2225 12.6875 -26.8825 12.6875 -27.5625 12.6875 C-26.12148828 9.10821281 -24.41969199 7.61349226 -21.1875 5.5625 C-20.41664063 5.06492187 -19.64578125 4.56734375 -18.8515625 4.0546875 C-12.54618078 0.28867452 -7.37812655 -0.58362985 0 0 Z " fill="#D5A822" transform="translate(452.5625,377.3125)"/>
<path d="M0 0 C0.95003906 -0.00322266 1.90007813 -0.00644531 2.87890625 -0.00976562 C8.25686214 0.031259 12.79051879 0.54490335 17.875 2.3125 C16.885 2.9725 15.895 3.6325 14.875 4.3125 C14.875 3.6525 14.875 2.9925 14.875 2.3125 C0.83901141 2.08132634 0.83901141 2.08132634 -13.125 3.3125 C-13.455 3.6425 -13.785 3.9725 -14.125 4.3125 C-15.79117115 4.35313832 -17.45888095 4.355221 -19.125 4.3125 C-19.125 4.9725 -19.125 5.6325 -19.125 6.3125 C-20.775 6.3125 -22.425 6.3125 -24.125 6.3125 C-17.42499534 0.19510444 -8.60483003 -0.14714142 0 0 Z " fill="#DEAF21" transform="translate(647.125,310.6875)"/>
<path d="M0 0 C0.94602608 3.0851746 1.01578237 5.49259007 0.625 8.6875 C0.53476562 9.47511719 0.44453125 10.26273437 0.3515625 11.07421875 C0 13 0 13 -1 14 C-1.09851171 15.83115883 -1.12972629 17.66619933 -1.125 19.5 C-1.12757813 20.5003125 -1.13015625 21.500625 -1.1328125 22.53125 C-1.27870382 24.94399622 -1.27870382 24.94399622 0 26 C0.07179964 27.51928038 0.08392007 29.04167482 0.0625 30.5625 C0.05347656 31.38878906 0.04445313 32.21507812 0.03515625 33.06640625 C0.02355469 33.70449219 0.01195312 34.34257812 0 35 C-4.48805566 30.51194434 -3.23371543 22.51784277 -3.25976562 16.49047852 C-3.19359254 10.62079858 -2.25225855 5.45636447 0 0 Z " fill="#D9AA1E" transform="translate(599,343)"/>
<path d="M0 0 C1.12308596 3.4907721 0.96308527 6.44297672 0.66015625 10.078125 C0.56669922 11.23828125 0.47324219 12.3984375 0.37695312 13.59375 C0.22129883 15.40359375 0.22129883 15.40359375 0.0625 17.25 C-0.08735352 19.08304688 -0.08735352 19.08304688 -0.24023438 20.953125 C-0.48765358 23.96928289 -0.74112939 26.98480694 -1 30 C-1.33 30 -1.66 30 -2 30 C-4.30027142 19.64877859 -2.98962768 10.03660722 0 0 Z " fill="#CCA11C" transform="translate(401,520)"/>
<path d="M0 0 C1.66611905 -0.042721 3.33382885 -0.04063832 5 0 C5.33 0.33 5.66 0.66 6 1 C7.63472882 1.08700342 9.27314055 1.10701063 10.91015625 1.09765625 C12.39418945 1.09282227 12.39418945 1.09282227 13.90820312 1.08789062 C15.46958008 1.07532227 15.46958008 1.07532227 17.0625 1.0625 C18.10728516 1.05798828 19.15207031 1.05347656 20.22851562 1.04882812 C22.8190666 1.03699913 25.40950559 1.02051689 28 1 C24.39324283 4.60675717 19.57912641 4.17970118 14.6875 4.25 C9.0623746 4.22443125 5.06664607 3.38430403 0 1 C0 0.67 0 0.34 0 0 Z " fill="#D6AB24" transform="translate(435,309)"/>
<path d="M0 0 C8.75965262 0.54479018 17.34562983 1.54107999 26 3 C26 3.33 26 3.66 26 4 C8.14350797 4.55353075 8.14350797 4.55353075 0 1 C0 0.67 0 0.34 0 0 Z " fill="#BE9414" transform="translate(432,586)"/>
<path d="M0 0 C7.92 0 15.84 0 24 0 C20.66356242 3.33643758 16.68933706 2.96664498 12.125 3.1875 C7.85705043 3.14630358 4.09278955 2.16936844 0 1 C0 0.67 0 0.34 0 0 Z " fill="#DCAE1F" transform="translate(438,439)"/>
<path d="M0 0 C0.33 0 0.66 0 1 0 C1.41643775 9.56264461 1.48946971 19.76579544 -4 28 C-2.66666667 18.66666667 -1.33333333 9.33333333 0 0 Z " fill="#D2A61D" transform="translate(303,355)"/>
<path d="M0 0 C2.94159419 -0.17303495 4.95744669 -0.01547393 7.75 1 C11.30736076 2.09457254 14.16497383 2.20071482 17.875 2.125 C19.02742188 2.10695313 20.17984375 2.08890625 21.3671875 2.0703125 C22.23601562 2.04710937 23.10484375 2.02390625 24 2 C21.18458597 4.81541403 19.30299822 4.2998833 15.375 4.3125 C9.51096067 4.24613742 5.26315901 3.52631632 0 1 C0 0.67 0 0.34 0 0 Z " fill="#D4A928" transform="translate(435,695)"/>
<path d="M0 0 C4.95 0.33 9.9 0.66 15 1 C15 1.33 15 1.66 15 2 C17.64 2.33 20.28 2.66 23 3 C23 3.33 23 3.66 23 4 C14.7763806 4.38750039 7.8231062 3.58716898 0 1 C0 0.67 0 0.34 0 0 Z " fill="#BC9316" transform="translate(630,410)"/>
<path d="M0 0 C4.54832128 4.54832128 4.125 12.5428664 4.125 18.625 C4.09340527 20.41687258 4.05540086 22.20870541 4 24 C3.67 24 3.34 24 3 24 C2.90912109 22.93458984 2.90912109 22.93458984 2.81640625 21.84765625 C2.73261719 20.92855469 2.64882813 20.00945313 2.5625 19.0625 C2.48128906 18.14597656 2.40007812 17.22945312 2.31640625 16.28515625 C2.23955024 14.03840268 2.23955024 14.03840268 1 13 C0.76518307 10.81707226 0.58636677 8.62796826 0.4375 6.4375 C0.35371094 5.23996094 0.26992188 4.04242187 0.18359375 2.80859375 C0.12300781 1.88175781 0.06242187 0.95492187 0 0 Z " fill="#CDA21E" transform="translate(300,601)"/>
<path d="M0 0 C0.64324219 0.144375 1.28648437 0.28875 1.94921875 0.4375 C9.37079771 1.96204689 16.43860122 2.21638343 24 2 C20.41713082 5.58286918 14.87333999 4.9617277 10 5 C6.5 4.125 6.5 4.125 4 3 C2.67088318 2.65023242 1.33917261 2.30903983 0 2 C0 1.34 0 0.68 0 0 Z " fill="#1D0C00" transform="translate(435,439)"/>
<path d="M0 0 C0.66 0.33 1.32 0.66 2 1 C-2.91467577 7.41638225 -2.91467577 7.41638225 -7 8 C-7.33 8.66 -7.66 9.32 -8 10 C-8.99 9.67 -9.98 9.34 -11 9 C-9.73113036 7.87278564 -8.45982438 6.74831342 -7.1875 5.625 C-6.47980469 4.99851562 -5.77210938 4.37203125 -5.04296875 3.7265625 C-3 2 -3 2 0 0 Z " fill="#E2B21B" transform="translate(621,317)"/>
<path d="M0 0 C3.85481955 2.81441843 6.34005334 5.58866862 8.875 9.625 C9.49117187 10.58664062 10.10734375 11.54828125 10.7421875 12.5390625 C11.15726563 13.35117187 11.57234375 14.16328125 12 15 C11.67 15.66 11.34 16.32 11 17 C10.54109375 16.33613281 10.0821875 15.67226563 9.609375 14.98828125 C5.72316644 9.3921309 5.72316644 9.3921309 1.5625 4 C0 2 0 2 0 0 Z " fill="#D8AB21" transform="translate(682,324)"/>
<path d="M0 0 C2.72943537 -0.05416741 5.45778564 -0.09375225 8.1875 -0.125 C9.34088867 -0.15013672 9.34088867 -0.15013672 10.51757812 -0.17578125 C14.8149434 -0.21266851 18.07901831 0.0041496 22 2 C22 2.33 22 2.66 22 3 C20.00045254 3.04254356 17.99958364 3.04080783 16 3 C15.67 2.67 15.34 2.34 15 2 C12.47403741 1.76346477 9.96892793 1.57826308 7.4375 1.4375 C6.72658203 1.39431641 6.01566406 1.35113281 5.28320312 1.30664062 C3.52238088 1.20028223 1.7612168 1.09961154 0 1 C0 0.67 0 0.34 0 0 Z " fill="#CEA31F" transform="translate(246,568)"/>
<path d="M0 0 C1.41377341 2.63904371 2.37240135 5.07120629 3 8 C3.66 8 4.32 8 5 8 C5.33 9.98 5.66 11.96 6 14 C1.56398034 10.48177751 0.47966871 6.24609814 -1 1 C-0.67 0.67 -0.34 0.34 0 0 Z " fill="#E2B220" transform="translate(222,497)"/>
<path d="M0 0 C3.84160316 5.76240474 4.23538321 11.29157865 4 18 C3.67 18 3.34 18 3 18 C2.49095343 16.12743583 1.99317545 14.25180659 1.5 12.375 C1.08234375 10.80878906 1.08234375 10.80878906 0.65625 9.2109375 C0.00881404 6.04312582 -0.1161292 3.22258533 0 0 Z " fill="#C2971B" transform="translate(281,219)"/>
<path d="M0 0 C-1.74468372 0.70088156 -3.49601161 1.38524009 -5.25 2.0625 C-6.22453125 2.44535156 -7.1990625 2.82820312 -8.203125 3.22265625 C-11.04007395 4.01113787 -12.29409552 4.02437812 -15 3 C-14.67 2.34 -14.34 1.68 -14 1 C-11.6015625 0.33203125 -11.6015625 0.33203125 -8.625 -0.1875 C-7.64789063 -0.36667969 -6.67078125 -0.54585937 -5.6640625 -0.73046875 C-3 -1 -3 -1 0 0 Z " fill="#E1B11F" transform="translate(275,666)"/>
<path d="M0 0 C2.76222843 2.38556092 3.98658817 4.49203597 5 8 C5.15512216 10.69212002 5.09156216 13.29891626 5 16 C4.67 16 4.34 16 4 16 C4 14.02 4 12.04 4 10 C3.34 10 2.68 10 2 10 C0.68373308 6.38026598 0 3.90432869 0 0 Z " fill="#D3A61E" transform="translate(477,651)"/>
<path d="M0 0 C-5.16017278 2.98746845 -10.19834261 4.02541328 -16 5 C-14.54987453 2.09974906 -12.68687091 1.91293145 -9.6875 0.8125 C-8.72199219 0.44769531 -7.75648438 0.08289063 -6.76171875 -0.29296875 C-3.9652203 -1.008904 -2.66140462 -0.99249531 0 0 Z " fill="#D8AA21" transform="translate(243,570)"/>
<path d="M0 0 C3.45195767 1.4258086 5.1014256 3.09746334 7.25 6.125 C8.03117188 7.21167969 8.03117188 7.21167969 8.828125 8.3203125 C9.40820312 9.15175781 9.40820312 9.15175781 10 10 C9.67 10.66 9.34 11.32 9 12 C7.49405319 10.38050958 5.99539332 8.75424026 4.5 7.125 C3.6646875 6.22007812 2.829375 5.31515625 1.96875 4.3828125 C0 2 0 2 0 0 Z " fill="#DAAB20" transform="translate(666,465)"/>
<path d="M0 0 C0.33 0.99 0.66 1.98 1 3 C-1.97 5.97 -4.94 8.94 -8 12 C-8.99 11.67 -9.98 11.34 -11 11 C-10.45730469 10.54109375 -9.91460937 10.0821875 -9.35546875 9.609375 C-8.64003906 8.99578125 -7.92460937 8.3821875 -7.1875 7.75 C-6.47980469 7.14671875 -5.77210938 6.5434375 -5.04296875 5.921875 C-3.08110329 4.07629602 -1.54330375 2.20054668 0 0 Z " fill="#1C0B00" transform="translate(294,649)"/>
<path d="M0 0 C4.23429756 1.31061591 8.07407404 2.94356259 12 5 C12 5.66 12 6.32 12 7 C7.39104317 5.68315519 3.85859765 3.84801255 0 1 C0 0.67 0 0.34 0 0 Z " fill="#D4A920" transform="translate(617,403)"/>
<path d="M0 0 C0 0.66 0 1.32 0 2 C-0.598125 2.2475 -1.19625 2.495 -1.8125 2.75 C-4.28647521 4.16370012 -5.43370255 5.65055383 -7 8 C-7.99 7.67 -8.98 7.34 -10 7 C-8.71372289 5.82739389 -7.42080217 4.6620717 -6.125 3.5 C-5.04605469 2.52546875 -5.04605469 2.52546875 -3.9453125 1.53125 C-2 0 -2 0 0 0 Z " fill="#E6B520" transform="translate(435,639)"/>
<path d="M0 0 C-1.90401138 1.90401138 -3.33425686 2.93520439 -6.046875 3.19921875 C-8.03233273 3.1886578 -10.0169914 3.09915043 -12 3 C-7.97869817 0.31913211 -4.73968522 -1.57989507 0 0 Z " fill="#CB9E18" transform="translate(442,488)"/>
<path d="M0 0 C0.66 0 1.32 0 2 0 C1.56179109 4.55737263 1.14958831 7.57653445 -2 11 C-2.24042276 6.91281305 -1.42258812 3.82320557 0 0 Z " fill="#E4B420" transform="translate(497,551)"/>
<path d="M0 0 C0.66 0.33 1.32 0.66 2 1 C0.71389765 3.5722047 -0.33393981 4.00974907 -3 5 C-5.25 4.625 -5.25 4.625 -7 4 C-4.61426621 2.10786631 -2.92824652 0.97608217 0 0 Z " fill="#DFAF1A" transform="translate(241,460)"/>
<path d="M0 0 C0.66 0.33 1.32 0.66 2 1 C-0.75 7.75 -0.75 7.75 -3 10 C-2.25 3.375 -2.25 3.375 0 0 Z " fill="#E2B21F" transform="translate(422,650)"/>
<path d="M0 0 C0.68359375 1.796875 0.68359375 1.796875 1 4 C-0.21484375 5.703125 -0.21484375 5.703125 -1.9375 7.25 C-2.50339844 7.77078125 -3.06929688 8.2915625 -3.65234375 8.828125 C-4.09707031 9.21484375 -4.54179687 9.6015625 -5 10 C-5.66 9.67 -6.32 9.34 -7 9 C-6.57847656 8.51789062 -6.15695312 8.03578125 -5.72265625 7.5390625 C-5.17480469 6.90742187 -4.62695312 6.27578125 -4.0625 5.625 C-3.51722656 4.99851562 -2.97195313 4.37203125 -2.41015625 3.7265625 C-0.93041376 2.04367666 -0.93041376 2.04367666 0 0 Z " fill="#1E0D00" transform="translate(280,506)"/>
<path d="M0 0 C1.32 0.33 2.64 0.66 4 1 C-2.75 5 -2.75 5 -5 5 C-5 4.01 -5 3.02 -5 2 C-3.35 2 -1.7 2 0 2 C0 1.34 0 0.68 0 0 Z " fill="#DAAC1E" transform="translate(267,259)"/>
<path d="M0 0 C0.33 0.66 0.66 1.32 1 2 C0.22265625 4.1640625 0.22265625 4.1640625 -0.9375 6.625 C-1.31777344 7.44226563 -1.69804688 8.25953125 -2.08984375 9.1015625 C-2.39019531 9.72804688 -2.69054687 10.35453125 -3 11 C-3.83583327 8.62392051 -4.1842383 7.45550373 -3.22265625 5.078125 C-1.61132812 2.5390625 -1.61132812 2.5390625 0 0 Z " fill="#CCA01E" transform="translate(620,473)"/>
<path d="M0 0 C0.66 0.33 1.32 0.66 2 1 C0.29374499 3.78388975 -0.47626739 4.85384206 -3.6875 5.75 C-4.8321875 5.87375 -4.8321875 5.87375 -6 6 C-4 4 -2 2 0 0 Z " fill="#E5B71E" transform="translate(630,463)"/>
<path d="M0 0 C0.66 0.33 1.32 0.66 2 1 C1.01 2.485 1.01 2.485 0 4 C-0.66 4 -1.32 4 -2 4 C-2 4.66 -2 5.32 -2 6 C-3.32 5.67 -4.64 5.34 -6 5 C-4.02 3.35 -2.04 1.7 0 0 Z " fill="#DFB021" transform="translate(223,319)"/>
<path d="M0 0 C2.96404505 2.80804268 5.44499019 5.18315774 7 9 C1.21538462 4.56923077 1.21538462 4.56923077 0.125 1.6875 C0.08375 1.130625 0.0425 0.57375 0 0 Z " fill="#D7AA21" transform="translate(486,502)"/>
<path d="M0 0 C-0.66 0 -1.32 0 -2 0 C-2 0.66 -2 1.32 -2 2 C-4.64 2.33 -7.28 2.66 -10 3 C-9 1 -9 1 -6.6875 -0.1875 C-3.88010429 -1.03624754 -2.698065 -0.99928333 0 0 Z " fill="#D5A81D" transform="translate(246,203)"/>
</svg>
